<?xml version="1.0" encoding="utf-8"?>
<!-- Generator: Adobe Illustrator 24.0.1, SVG Export Plug-In . SVG Version: 6.00 Build 0)  -->
<svg version="1.1" id="圖層_1" xmlns="http://www.w3.org/2000/svg" xmlns:xlink="http://www.w3.org/1999/xlink" x="0px" y="0px"
	 viewBox="0 0 208.1 58.8" style="enable-background:new 0 0 208.1 58.8;" xml:space="preserve">
<style type="text/css">
	.st0{fill:#333333;}
	.st1{fill:none;stroke:#323333;stroke-width:1.5;stroke-miterlimit:10;}
</style>
<g>
	<g>
		<path class="st0" d="M16.1,52.7c0.5,0,0.9,0,1.4,0c1.8,0,6.3,0,8.2,0V53c-0.9,0.2-1.3,1.2-1.3,2.2h-6.9c-4.3,0-6.6-0.9-8-4.7
			c-1.2,2-3.2,3.9-6.4,5.2l-0.2-0.2c3.4-2.5,4.6-6.3,4.9-9.4l3.9,0.7c-0.1,0.3-0.3,0.6-0.9,0.6c-0.2,0.9-0.6,1.8-1,2.6
			c0.8,1.3,1.9,2.1,3.3,2.5V45H3.3l-0.2-0.7h18.2l1.5-2c0,0,1.7,1.4,2.7,2.3c-0.1,0.3-0.3,0.4-0.7,0.4h-8.9v3.3H19l1.6-2.2
			c0,0,1.9,1.5,2.9,2.5c-0.1,0.3-0.3,0.4-0.7,0.4H16v3.7H16.1z M10.1,42.6c0,0.3-1.3,0.9-2.5,0.9H7.1V33.4l3.1,1.2h8.2l1.3-1.5
			l2.9,2.1c-0.1,0.2-0.5,0.4-1,0.5v6.6c0,0.1-1.5,0.7-2.5,0.7h-0.5v-1.2H10v0.8H10.1z M10.1,35.4v2.5h8.6v-2.5H10.1z M18.7,41.2
			v-2.6h-8.6v2.6H18.7z"/>
		<path class="st0" d="M44.8,36c-0.6,1.4-1.3,2.8-2.2,4.1l1.5,0.6c-0.1,0.2-0.3,0.4-0.7,0.5V55c0,0.2-1.3,0.6-2.4,0.6h-0.5V43.1
			c-2.6,3.2-5.9,6-9.7,8l-0.2-0.2C35.4,47,39.5,41.1,41,36h-9.9l-0.2-0.7h17.3l1.7-2.2c0,0,2,1.5,3.1,2.5c-0.1,0.3-0.3,0.4-0.7,0.4
			H44.8z M44.4,42.1c10.9,2.4,9.7,8.8,6.5,7.3c-1.3-2.4-4.3-5.3-6.7-7L44.4,42.1z"/>
		<path class="st0" d="M81.3,38.4c-0.2,0.2-0.4,0.2-0.9,0.3c-0.7,0.8-1.9,1.8-2.9,2.4l-0.2-0.2c0.1-0.7,0.3-1.9,0.4-2.8H71v5.4
			c0,0.1-0.8,0.6-2.3,0.6h-0.5v-6h-6.5c0.2,1.6-0.5,2.7-1.3,3.1c-0.8,0.4-1.8,0.1-2-0.7s0.3-1.4,1-1.7c0.8-0.4,1.5-1.4,1.4-2.5h0.4
			c0.2,0.5,0.3,0.9,0.4,1.3h6.7v-1.9h-7.1L61,35h13.6l1.4-2c0,0,1.7,1.2,2.6,2.1c0,0.3-0.3,0.4-0.6,0.4h-7v1.9h6.5l1.4-1.4
			L81.3,38.4z M77.9,43.2c0,0,1.5,1.1,2.4,1.9c-0.1,0.3-0.3,0.4-0.6,0.4h-9c-0.7,0.7-1.4,1.5-2.1,2.1h7l1.2-1.3l2.7,1.9
			c-0.1,0.2-0.5,0.4-0.9,0.5v3.9c0,1.7-0.4,2.6-3.1,2.8c0-0.7-0.1-1.3-0.3-1.7c-0.2-0.3-0.5-0.6-1.3-0.7v-0.3c0,0,1.2,0.1,1.6,0.1
			c0.3,0,0.4-0.1,0.4-0.4v-4.1h-2.3v5.1c0,0.1-0.8,0.5-2.1,0.5H71v-5.6h-2.3V54c0,0.1-0.8,0.5-2.1,0.5h-0.5v-6.3h-2.4v6.4
			c0,0.2-1.2,0.8-2.2,0.8h-0.4v-9l2.8,1.1h3.2c0.1-0.6,0.3-1.5,0.4-2.1h-7.9l-0.2-0.7h17.1L77.9,43.2z M61.5,42.2
			c1.1-0.1,3.6-0.4,6.1-0.7v0.3c-1,0.5-2.5,1.3-4.5,2.4c-0.1,0.3-0.4,0.5-0.6,0.6L61.5,42.2z M62,39.2c5.6-1.5,6.1,2.2,4.1,2.2
			c-0.9-0.6-2.8-1.5-4.2-1.8L62,39.2z M71.4,41.6c6-1.3,6.4,2.5,4.3,2.4c-1-0.7-3-1.7-4.4-2.1L71.4,41.6z M71.5,40.7
			c1.2-0.7,3.1-1.9,3.8-2.6l1.7,2.3c-0.2,0.1-0.4,0.1-0.7-0.1c-0.9,0.2-3.1,0.6-4.7,0.6L71.5,40.7z"/>
		<path class="st0" d="M105.8,44.9c0,0,1.7,1.3,2.8,2.2c-0.1,0.3-0.3,0.4-0.7,0.4h-5.1c-0.4,1.4-0.9,2.6-2.1,3.7
			c9.7,1.8,6.6,5.2,4.1,4.2c-1.5-0.9-3.7-1.8-6.3-2.7c-2.3,1.2-5.8,2.2-11.2,2.9l-0.1-0.4c4.2-1,7-2.1,8.9-3.2
			c-1.8-0.5-3.7-0.9-5.7-1.3c0.6-0.7,1.4-1.9,2.2-3.2h-6.3L86,46.8h7c0.7-1.2,1.3-2.3,1.7-3.1h-3.3v0.2c0,0.2-1.2,0.8-2.4,0.8h-0.4
			V37l3,1.2h1.9v-2.9h-6.8l-0.2-0.7h17.4l1.6-2c0,0,1.8,1.3,2.9,2.3c-0.1,0.3-0.3,0.4-0.7,0.4h-6.5v2.9h1.9l1.3-1.4l2.7,2
			c-0.1,0.2-0.5,0.4-1,0.5V44c0,0.2-1.4,0.6-2.3,0.6h-0.5v-0.9h-7.5l2.7,1c-0.1,0.3-0.3,0.5-1.1,0.4c-0.3,0.5-0.6,1.1-1,1.7h3.7
			c0.1-0.6,0.2-1.3,0.2-1.9l3.8,0.3c0,0.3-0.3,0.6-0.9,0.6c0,0.3-0.1,0.6-0.2,0.9h1.3L105.8,44.9z M91.4,43h2.1v-4h-2.1V43z
			 M95.8,47.5c-0.6,1-1.4,2.1-2,2.9c1.5,0.1,2.8,0.2,4,0.3c1.1-1,1.7-2.1,2-3.3L95.8,47.5L95.8,47.5z M96.2,38.3h2.3v-2.9h-2.3V38.3
			z M98.4,43v-4h-2.3v4H98.4z M101.1,39v4h2.1v-4H101.1z"/>
		<path class="st0" d="M134,51.9c0,0,1.7,1.5,2.7,2.5c0,0.3-0.3,0.4-0.6,0.4h-15.9l-0.2-0.7h7.3v-4.3h-4.9l-0.2-0.7h5.1v-3.8H125V46
			c0,0.3-1.2,0.9-2.3,0.9h-0.4v-4.2c-0.1,0.2-0.3,0.2-0.6,0.2H119v5.9c1.1-0.3,2.2-0.6,3.3-1l0.1,0.3c-1.5,1.1-3.9,2.7-7.2,4.7
			c-0.1,0.3-0.3,0.6-0.6,0.7l-1.3-3.1c0.6-0.1,1.7-0.4,2.9-0.7V43h-2.4l-0.2-0.7h2.6v-6h-2.5l-0.2-0.7h5.1l1.4-2c0,0,1.2,1,2.1,1.8
			v-1.6L125,35h7l1.3-1.4l2.6,2.1c-0.1,0.2-0.5,0.4-1,0.5v9.4c0,0.2-1.3,0.8-2.3,0.8h-0.5v-1.1H130v3.8h1.8l1.4-2
			c0,0,1.6,1.3,2.5,2.3c0,0.3-0.3,0.4-0.7,0.4h-5V54h2.5L134,51.9z M120.2,40.3c0,0,1.3,1.2,2,2.1v-6.2h-0.1H119v6h0.1L120.2,40.3z
			 M125,35.6v4.1h2.3v-4.1H125z M127.2,44.6v-4.1H125v4.1H127.2z M130,35.6v4.1h2.4v-4.1H130z M132.3,44.6v-4.1H130v4.1H132.3z"/>
		<path class="st0" d="M163,39.4c-0.2,0.3-0.6,0.5-1.2,0.6v14.6c0,0.2-1.4,0.8-2.4,0.8H159v-2h-12.9v1.2c0,0.3-1.2,1-2.4,1h-0.4
			V37.5l3,1.2h4.7v-5.4l3.8,0.4c0,0.3-0.2,0.6-0.9,0.7v4.4h4.8l1.4-1.6L163,39.4z M146.1,39.4v6.1h4.9v-6.1H146.1z M146.1,52.7h4.9
			v-6.5h-4.9V52.7z M153.9,39.4v6.1h5.1v-6.1H153.9z M158.9,52.7v-6.5h-5.1v6.5H158.9z"/>
		<path class="st0" d="M179.8,38.3c-0.2,0.2-0.5,0.4-1,0.5v14.3c0,0.2-1.3,0.8-2.2,0.8h-0.4V52h-3.7v1.8c0,0.3-1,0.9-2.2,0.9h-0.4
			V36.5l2.7,1.1h0.1c0.2-1.3,0.4-3.2,0.5-4.5l3.9,0.9c-0.1,0.4-0.4,0.6-1,0.6c-0.6,0.8-1.6,2.1-2.3,3h2.1l1.3-1.4L179.8,38.3z
			 M172.5,38.3v6h3.7v-6H172.5z M176.2,51.3V45h-3.7v6.3H176.2z M191.6,38.3c-0.2,0.2-0.5,0.4-1.1,0.5c-0.2,9.7-0.5,14.1-1.8,15.5
			c-0.9,0.9-1.9,1.3-3.5,1.3c0-0.9-0.1-1.6-0.5-2c-0.4-0.5-1.4-0.8-2.5-1.1v-0.3c1.2,0.1,2.8,0.2,3.4,0.2c0.4,0,0.6-0.1,0.9-0.3
			c0.9-0.8,1.1-5.6,1.3-13.8h-4.5c-1.2,2-2.5,3.7-4.1,5l-0.3-0.2c1.3-2.5,2.6-6.4,3.2-10l3.8,1.1c-0.1,0.3-0.4,0.5-0.9,0.5
			c-0.4,1-0.8,2-1.3,2.9h3.8L189,36L191.6,38.3z M180.9,42.5c7,2.1,4.4,7.3,1.9,5.1c-0.1-1.7-1.1-3.7-2-5L180.9,42.5z"/>
		<path class="st0" d="M200.4,50.3c0-1.9,1.5-3.4,3.4-3.4s3.4,1.5,3.4,3.4s-1.5,3.4-3.4,3.4C202,53.7,200.4,52.2,200.4,50.3z
			 M201.3,50.3c0,1.4,1.1,2.5,2.5,2.5s2.5-1.2,2.5-2.5c0-1.4-1.1-2.5-2.5-2.5C202.4,47.8,201.3,48.9,201.3,50.3z"/>
	</g>
	<g>
		<g>
			<path class="st0" d="M40.1,16.8c0,0.3-1.2,0.8-2.2,0.8h-0.5v-5.1c-1.1,1.6-2.6,3-4.3,4.2l-0.3-0.3c1.9-2.3,3.1-5.5,3.8-8.6h-3.2
				l-0.2-0.7h4.2V3L41,3.4c-0.1,0.3-0.2,0.5-0.8,0.6v3.2h0.5L42,5.3c0,0,1.5,1.3,2.4,2.2c-0.1,0.3-0.3,0.4-0.6,0.4h-3.5v1.8
				c5.8,1.4,3.5,5.7,1.3,3.9c-0.1-1.1-0.6-2.3-1.3-3.2v6.4H40.1z M36.5,18.3c1.3,3.1,0.4,5.2-0.8,5.9c-0.8,0.5-2,0.3-2.3-0.6
				s0.3-1.6,1-1.9c0.9-0.5,1.8-1.8,1.8-3.3L36.5,18.3z M50.3,22.2c0.9,0.3,1.1,0.6,1.1,1.1c0,1.2-1.2,1.6-6,1.6h-3.1
				c-2.8,0-3.4-0.4-3.4-2.3v-4.7l3.6,0.3c0,0.3-0.3,0.5-0.7,0.6V22c0,0.3,0.1,0.4,1,0.4h3c1,0,2,0,2.4,0s0.5-0.1,0.7-0.3
				c0.3-0.4,0.6-1.3,1.2-2.5h0.3L50.3,22.2z M43.3,17.1c6.4,1.4,3.9,6.1,1.6,4.2c-0.1-1.4-1-3-1.8-4L43.3,17.1z M47.1,16.4
				c0,0.3-1.1,0.9-2.3,0.9h-0.4V3.9L47.2,5h3.9l1.3-1.5l2.7,2.1c-0.2,0.2-0.5,0.4-1,0.5v10.3c0,0.2-1.4,0.7-2.3,0.7h-0.5v-1.5h-4.2
				C47.1,15.6,47.1,16.4,47.1,16.4z M47.1,5.7v2.6h4.2V5.7H47.1z M51.3,11.6V9h-4.2v2.6H51.3z M51.3,15v-2.7h-4.2V15H51.3z
				 M50.5,18.1c7.2,2,4.7,7.5,2.1,5.3c-0.1-1.8-1.2-3.9-2.3-5.2L50.5,18.1z"/>
			<path class="st0" d="M83.6,14.9c-0.2,0.2-0.5,0.4-1,0.4c-0.1,6.4-0.4,8.7-1.5,9.7c-0.7,0.6-1.7,0.7-3,0.7c0-0.6-0.1-1-0.4-1.3
				c-0.4-0.4-1-0.6-1.9-0.8v-0.3c0.8,0,2,0.1,2.5,0.1c0.4,0,0.6-0.1,0.8-0.2c0.6-0.5,0.8-3.1,0.9-8.3h-4.8l2.4,0.9
				c-0.1,0.3-0.3,0.4-0.9,0.4c-0.2,0.3-0.4,0.7-0.6,1c4.4,0.7,2.8,3.9,1,2.7c-0.2-0.7-0.8-1.6-1.4-2.2c-0.8,1.1-1.9,2.2-3.3,2.8
				l-0.2-0.3c1.3-1.4,2.1-3.6,2.4-5.4h-2.1c-0.6,0.6-1.3,1.2-2.1,1.7l2.4,0.2c0,0.3-0.3,0.5-0.7,0.6v3.1c0,0.3,0.1,0.4,0.7,0.4h1.9
				h1.7c0.2,0,0.5,0,0.6-0.1c0.2,0,0.5,0,0.6-0.1H78c0.7,0.3,0.9,0.5,0.9,0.9c0,0.9-0.9,1.2-4.4,1.2h-2.2c-2.1,0-2.5-0.5-2.5-1.9
				v-3.9c-0.5,0.3-1,0.6-1.5,0.9v1.8c0,0.2-1.2,0.8-2,0.8h-0.4v-2H64v2.5c0,0.3-0.9,0.9-2,0.9h-0.4V4.3l2.5,1.1h1.6l1.2-1.3L69.3,6
				c-0.2,0.2-0.5,0.4-1,0.5v11c1.2-1.3,2.4-3.1,3.1-4.8c-0.3,0.1-0.7,0.1-1.2,0.1h-0.5V3.5l2.8,1.1h6.2l1.2-1.4L82.5,5
				c-0.2,0.2-0.4,0.4-0.9,0.5v6.4c0,0.1-0.9,0.6-2.2,0.6h-0.5v-0.9h-6.5l3,1.1c-0.1,0.2-0.3,0.3-0.9,0.2c-0.4,0.4-0.7,0.9-1.2,1.3
				h6.5l1.4-1.3L83.6,14.9z M65.9,17.9V6.1H64v11.8H65.9z M72.4,5.3v2.6H79V5.3H72.4z M78.9,11V8.6h-6.6V11H78.9z"/>
			<path class="st0" d="M90.8,18.9c1,2.5,0.8,4.4,0,5.4C90.3,25,89,25,88.6,24.1c-0.4-0.7,0-1.5,0.7-1.9c0.6-0.6,1.3-2,1.2-3.2h0.3
				V18.9z M88.6,15.8c0,0,0.6-0.1,0.9-0.3c1.2-0.8,2.6-2.5,3.9-4.2c-0.9,0.3-1.9,0.7-3,1.1c-0.2,0.3-0.4,0.5-0.7,0.6l-1.2-3
				c0,0,0.5-0.1,0.7-0.3c1.3-1.2,3-4.7,3.5-6.6L96,4.8c-0.1,0.2-0.4,0.4-0.8,0.3c-1.1,1.5-3,3.6-4.8,4.9c1,0,2.3,0,3.7,0
				c0.6-1,1.1-1.9,1.5-2.7l3,2.1c-0.1,0.2-0.5,0.4-1,0.3c-1.4,1.8-4.3,4.4-6.8,6.1c1.5-0.1,3.6-0.2,5.6-0.4
				c-0.3-0.9-0.8-1.8-1.2-2.4l0.3-0.1c5.5,2.1,3.4,6.2,1.4,4.5c0-0.5-0.2-0.9-0.3-1.4c-1.5,0.6-3.8,1.5-6.4,2.4
				c-0.2,0.3-0.4,0.4-0.6,0.5L88.6,15.8z M93,18.6c4.2,3.1,1.4,6.7-0.2,4.6c0.3-1.5,0.2-3.3-0.1-4.5L93,18.6z M95.5,18.1
				c5.1,1.9,2.8,5.8,0.9,4.1c0-1.3-0.6-2.9-1.2-3.9L95.5,18.1z M108.5,21.5c0,0,1.7,1.4,2.8,2.4c-0.1,0.3-0.3,0.4-0.7,0.4H96.9
				l-0.2-0.7h5.3V7h-4.3l-0.2-0.7h8.9l1.5-2c0,0,1.7,1.4,2.7,2.3c0,0.3-0.3,0.4-0.6,0.4h-5v16.6h2L108.5,21.5z"/>
			<path class="st0" d="M129.7,8.8c-0.1,0.3-0.4,0.5-1.2,0.6c2.2,2.2,6.6,3.4,10.1,3.8v0.4c-1.2,0.4-1.9,1.6-2,2.7
				c-3.8-1.2-7-3.5-8.5-6.6c-2.2,3-7,6-12,7.3l-0.1-0.3c4.3-1.9,8.5-5.9,9.4-8.8L129.7,8.8z M116.3,6.1h4.1l-0.4-3l3.5,0.2
				c0,0.3-0.2,0.5-0.7,0.7l0.3,2.1h0.8l1.3-1.8c0,0,1.5,1.3,2.4,2.1c0,0.3-0.3,0.4-0.6,0.4h-3.7l0.3,2.4c-0.4,0.5-1.4,0.7-2.7,0.7
				l-0.4-3.1h-4L116.3,6.1z M116.8,24.7c2.2-1.8,4-4.6,4.8-6.8l3.2,1.6c-0.1,0.2-0.3,0.4-0.9,0.3c-1.4,1.9-4,4-7,5.1L116.8,24.7z
				 M128.8,17.2V25c0,0.2-1.3,0.8-2.4,0.8h-0.6v-8.6h-5.7l-0.2-0.7h5.9v-3.7l3.8,0.3c0,0.3-0.2,0.5-0.8,0.6v2.8h1.8l1.4-1.8
				c0,0,1.6,1.3,2.5,2.1c-0.1,0.3-0.3,0.4-0.6,0.4C133.9,17.2,128.8,17.2,128.8,17.2z M127.9,6.1h2.9l0.5-3l3.5,0.6
				c-0.1,0.3-0.3,0.5-0.9,0.6l-0.3,1.8h1.2l1.3-1.8c0,0,1.5,1.3,2.3,2.1c0,0.3-0.3,0.4-0.6,0.4h-4.3L133,9.2
				c-0.5,0.4-1.6,0.6-2.7,0.3l0.4-2.7h-2.6L127.9,6.1z M130.2,18.6c8.6,1.6,6.9,7.4,4,5.7c-0.8-1.9-2.6-4.1-4.2-5.5L130.2,18.6z"/>
		</g>
		<line class="st1" x1="145.3" y1="14.4" x2="186.2" y2="14.4"/>
	</g>
</g>
</svg>
