<?xml version="1.0" encoding="utf-8"?>
<!-- Generator: Adobe Illustrator 24.0.1, SVG Export Plug-In . SVG Version: 6.00 Build 0)  -->
<svg version="1.1" id="圖層_1" xmlns="http://www.w3.org/2000/svg" xmlns:xlink="http://www.w3.org/1999/xlink" x="0px" y="0px"
	 viewBox="0 0 88.9 307.2" style="enable-background:new 0 0 88.9 307.2;" xml:space="preserve">
<style type="text/css">
	.st0{fill:#333333;}
</style>
<g>
	<path class="st0" d="M86,22.4c-0.3,0.2-0.7,0.5-1.4,0.5c-0.5,6-1.5,9.2-3.3,10.4c-1.1,0.8-2.5,1.1-4.1,1.1c0-1.1-0.1-2-0.6-2.5
		c-0.5-0.5-1.4-1-2.6-1.2v-0.5c1.1,0.1,3,0.2,3.7,0.2c0.5,0,0.8-0.1,1.2-0.3c0.8-0.7,1.6-3.3,2-7.8H60.8c-2.1,2.1-4.6,4-7.4,5.6
		l-0.3-0.3c5.3-4.3,9.2-10.5,11.7-16.7h-8.9l-0.3-1h9.6c1.1-2.7,1.9-5.4,2.5-7.9l5.2,1.6c-0.1,0.4-0.4,0.7-1.4,0.7
		C70.9,6.1,70.2,8,69.3,10h4.9l1.5-1.6l3.4,2.5c-0.3,0.3-0.6,0.4-1.2,0.5l-1,4.2h0.5l1.4-1.6l3.3,2.5c-0.3,0.3-0.5,0.4-1.2,0.5
		l-0.8,4.3h0.5l1.9-1.8L86,22.4z M60,24.5c1.9,4.5,0.5,7.6-1.3,8.6c-1.2,0.7-2.8,0.4-3.3-0.9c-0.4-1.2,0.3-2.1,1.4-2.7
		c1.4-0.7,2.9-2.7,2.7-5L60,24.5z M58.2,2.6c9.5,1.5,6.1,8.6,2.4,5.9c-0.2-2-1.5-4.2-2.7-5.7L58.2,2.6z M65.6,16.6
		c-1.1,1.6-2.4,3.3-3.8,4.8h14.9l0.9-4.8C77.6,16.6,65.6,16.6,65.6,16.6z M63.7,24.5c6.6,4.6,1.9,10.2-0.6,6.7
		c0.6-2.2,0.6-4.7,0.2-6.6L63.7,24.5z M68.8,11c-0.8,1.6-1.6,3.1-2.6,4.7h7l1.1-4.7H68.8z M68,24.2c8,2.4,4.6,8.4,1.5,5.8
		c0-1.9-0.9-4.1-1.9-5.6L68,24.2z M72.7,23.5c8.1,0.3,5.8,6.4,2.6,4.5c-0.3-1.5-1.6-3.3-2.8-4.3L72.7,23.5z"/>
	<path class="st0" d="M66.3,43.4c-0.1,0.4-0.6,0.8-1.4,0.7c-1,2.6-2.3,5-3.6,7.1l1.7,0.7c-0.1,0.3-0.4,0.5-1.1,0.7v20.1
		c-0.1,0.3-1.7,1.2-3.3,1.2H58v-18c-1.4,1.5-2.9,2.9-4.5,4l-0.4-0.3c3-4.2,6-11.1,7.5-17.9L66.3,43.4z M81.8,50.9
		c0,0,2.6,2.1,4.1,3.5c-0.1,0.4-0.5,0.5-1,0.5h-8.6V72c0,0.4-1.8,1.4-3.4,1.4h-0.8V55h-7.9l-0.3-1h8.2V42.2l5.5,0.5
		c-0.1,0.5-0.3,0.9-1.2,1V54h3.2L81.8,50.9z"/>
	<path class="st0" d="M82,82.2c0,0,2.3,1.9,3.7,3.2c-0.1,0.4-0.4,0.5-1,0.5H59.5v8.3c0,5.9-0.3,13.7-6.1,18.9l-0.4-0.3
		c2.8-5.4,2.9-12.4,2.9-18.6V83.4l4.2,1.5h10.1c-0.2-0.1-0.4-0.1-0.6-0.3c-0.2-1.3-1.1-2.8-1.9-3.5l0.3-0.2c5.9-0.2,5.5,3.3,3.6,4
		H80L82,82.2z M63.9,92.4c-0.1,0.2-0.4,0.4-0.9,0.4c-0.2,1.8-0.5,4.2-3.1,5.9l-0.5-0.4c1.1-2,1.1-4.3,1.1-6.5l3.4,0.3v-1.5H60
		l-0.3-1h3.8v-3.4l4.5,0.4c-0.1,0.5-0.3,0.7-1.1,0.9v2.1h0.3l1.5-2c0,0,1.3,1.1,2.4,2h4.4v-3.4l4.4,0.4c-0.1,0.5-0.3,0.7-1.1,0.9
		v2.1h1.1l1.7-2.4c0,0,2,1.6,3.2,2.8c-0.1,0.4-0.4,0.5-0.9,0.5h-5.5v8.2c0,0.2-1,0.7-2.2,0.7h-0.4v-6.9c-0.2,0.1-0.4,0.3-0.8,0.3
		c-0.2,1.8-0.5,4.2-3.2,5.9l-0.5-0.5c1.1-2,1.1-4.3,1.1-6.5l3.3,0.3v-1.4h-4.5l-0.1-0.2c-0.1,0.1-0.3,0.2-0.6,0.2h-4.1v8.2
		c0,0.2-1.1,0.7-2.2,0.7h-0.4L63.9,92.4L63.9,92.4z M77.2,104.9c10.5,2.9,7.5,10.3,3.7,7.7c-0.2-1-0.7-2.1-1.2-3.1
		c-4.2,0.8-10.2,1.9-17.2,2.9c-0.3,0.3-0.5,0.5-0.8,0.5l-1.2-4c0,0,0.9-0.1,1.4-0.3c2.7-0.8,6-2.5,8.8-4.3c-2.1,0.5-4.6,1.2-7.3,1.7
		c-0.2,0.2-0.5,0.4-0.7,0.5l-1.2-3.6c0,0,0.6-0.1,0.9-0.2c2.5-0.9,5.8-3.8,6.9-5.3l4.4,2.2c-0.2,0.3-0.6,0.5-1.4,0.4
		c-1.6,1-4.2,2.2-6.7,3c2.1,0,4.6-0.1,7.2-0.2c1.5-1.1,2.8-2.1,3.6-2.9l4.3,2.7c-0.2,0.3-0.7,0.5-1.5,0.3c-3.1,1.9-8.9,4.4-14.2,6
		c3.7-0.1,8.8-0.3,14.2-0.5c-0.8-1.3-1.6-2.5-2.4-3.5L77.2,104.9z M70.4,92c0,0.4-0.4,0.7-0.9,0.8v2.3c0,0.3,0.1,0.4,0.1,0.4h-0.1
		h-0.1c0.1,0,0.2,0,0.3,0c0.1,0,0.3,0,0.4-0.1h0.4c0.6,0.2,0.9,0.4,0.9,0.9c0,0.9-0.7,1.2-2.3,1.2h-0.4c-1.4,0-1.5-0.5-1.5-1.8v-4
		L70.4,92z M84,96c0.6,0.2,0.9,0.4,0.9,0.8c0,0.9-0.8,1.3-2.8,1.3h-0.9c-1.6,0-1.8-0.5-1.8-1.9v-4.6l3.2,0.4
		c-0.1,0.4-0.4,0.7-0.9,0.8v2.9c0,0.3,0.1,0.4,0.3,0.4h0.4h0.4h0.4c0.1,0,0.4-0.1,0.5-0.1L84,96L84,96z"/>
</g>
<g>
	<path class="st0" d="M18.7,284.1c-0.4,2.2-1.2,2.9-2.6,2.9c-0.9,0-1.6-0.4-2.1-1.1c0.2-4.2,3.8-6.5,8.5-6.5c5.5,0,8.3,2.4,8.3,6
		c0,2.7-1.3,4.5-4.8,6.6c-2.7,1.6-3.5,2.3-3.7,4.1l-0.2,2.1h-1.2c-0.2-1.1-0.4-2.6-0.4-3.5c0-1.6,0.9-2.5,3-4.4c2.1-1.7,3-3,3-5.2
		c0-2.9-2.1-4.4-5.1-4.4c-0.8,0-1.4,0.1-2.1,0.3L18.7,284.1z M24.3,303.5c0,1.5-1.2,2.7-2.8,2.7s-2.7-1.2-2.7-2.7s1.2-2.7,2.7-2.7
		S24.3,302,24.3,303.5z"/>
	<g>
		<path class="st0" d="M18.6,61.5c-0.2,0.3-0.5,0.4-1.3,0.4c-0.8,2.4-2.5,5.1-4.7,7.1c0.2,0.1,0.4,0.2,0.6,0.3
			c2.6,2.1,6.8,2.5,14.4,2.5c4.1,0,7.3,0,11.3-0.2V72c-1.6,0.3-2.5,1.8-2.7,3.3h-9.9c-7.6,0-10.6-1.2-13.4-4.7
			c-0.5-0.6-0.9-0.5-1.1,0.1c-0.5,1-1.2,2.7-1.8,4.4c0.1,0.3,0,0.5-0.2,0.7L7,71.9c1.4-0.8,3.4-2.3,4.5-2.8c1.1-2.1,2-5,2.4-7.4h-2
			l-1.1,1.1l-2.9-2c0.3-0.2,0.8-0.5,1.3-0.6c0.9-1.6,2.1-4,2.8-5.7H7.9l-0.3-1h4.4l1.6-1.6l3.2,2.8c-0.3,0.3-0.9,0.5-1.7,0.5
			c-0.7,1.5-1.9,3.8-2.9,5.4h1.5l1.8-1.8L18.6,61.5z M8.9,45c8.8,1.4,5.6,7.9,2.2,5.5c-0.2-1.9-1.4-4-2.5-5.3L8.9,45z M26.8,54
			c-1.5,0.6-4.4,1.8-7.6,3c-0.2,0.3-0.5,0.5-0.8,0.6l-1.4-3c0.7-0.4,0.8-0.7,0.8-1.4v-8.4l3.7,1.5h2l1.4-1.5l3,2.3
			c-0.2,0.2-0.6,0.4-1.1,0.5v3.5c0,0.2-1.5,0.9-2.5,0.9h-0.5v-1H21V54c1.7-0.1,3.7-0.3,5.7-0.5L26.8,54z M34.8,61.6
			c0,0,2.3,1.7,3.7,2.9C38.4,64.8,38,65,37.6,65H17.3L17,64h4.9v-3.4h-3.1l-0.3-0.9h3.4v-3.4l4.4,0.4c0,0.4-0.2,0.6-0.9,0.8v2.2h3.2
			v-3.4l4.4,0.4c0,0.4-0.2,0.6-0.9,0.8v2.2h0.1l1.6-2.1c0,0,1.9,1.5,3,2.5c-0.1,0.4-0.4,0.5-0.9,0.5h-3.8V64h0.7L34.8,61.6z
			 M17.2,70.7c2.2-1.4,4.3-3.8,5.2-5.6l4.6,2.1c-0.2,0.4-0.7,0.6-1.7,0.5c-1.7,1.4-4.8,2.7-7.9,3.4L17.2,70.7z M23.8,50.1v-2.9H21
			v2.9H23.8z M25.4,64h3.2v-3.4h-3.2V64z M30.9,55.9c-2.6,0-2.9-0.6-2.9-2.5v-8.5l3.6,1.4h1.8l1.4-1.5l3.1,2.3
			c-0.2,0.2-0.6,0.4-1.1,0.6V51c0,0.3-1.6,0.9-2.6,0.9h-0.5v-0.9h-2.6v1.8c0,0.4,0.1,0.5,0.7,0.5h1.6H35c0.2,0,0.5,0,0.7,0
			c0.2,0,0.5-0.1,0.7-0.2h0.3l0.2,0c0.8,0.4,1.2,0.6,1.2,1.1c0,1.1-1.2,1.6-5,1.6H30.9z M28.2,65.5c14.4,1.4,7.9,7.8,5.1,4.9
			c-0.8-1.4-2.6-3.1-5.3-4.5L28.2,65.5z M31.1,47.2v2.9h2.6v-2.9H31.1z"/>
		<path class="st0" d="M18.6,96.8c-1,0.8-2.2,1.8-3.8,3v10.5c0,2.7-0.5,4.2-4.4,4.6c-0.1-1.2-0.2-2.2-0.6-2.8c-0.4-0.6-1-1-2.3-1.3
			v-0.5c0,0,2.5,0.1,3.1,0.1c0.5,0,0.6-0.2,0.6-0.5v-7.6c-0.6,0.4-1.3,0.9-1.9,1.3c-0.1,0.4-0.4,0.8-0.8,1l-1.5-4.3
			c0.8-0.2,2.3-0.7,4.2-1.4v-6.9H7.4l-0.3-0.9h4v-7.9l4.9,0.5c-0.1,0.5-0.4,0.8-1.3,0.9v6.5h0.4l1.5-2.5c0,0,0.9,0.8,1.7,1.8V84
			l3.3,1.3h12.2l1.5-1.7l3.3,2.5c-0.2,0.3-0.7,0.5-1.4,0.7v5c0,0.2-1.5,0.9-2.6,0.9h-0.5V92H21.4v0.8c0,0.3-1.4,0.9-2.6,0.9h-0.4
			v-1.6h-3.6v5.6c1.2-0.4,2.4-0.9,3.7-1.4L18.6,96.8z M36,105.7c0,0,1.9,1.5,3,2.6c-0.1,0.4-0.4,0.5-0.9,0.5h-9v5.2
			c0,0.2-1,0.9-2.7,0.9h-0.6v-6.2h-8.8l-0.3-0.9h9.1v-3h-6.8l-0.3-1h4.5l0,0c-0.1-1.3-0.7-2.8-1.4-3.9h-4.1l-0.3-0.9H26v-2.8h-6.4
			l-0.3-0.9H26v-3l4.4,0.4c0,0.4-0.3,0.8-1.1,0.9v1.7h3.3l1.5-2.2c0,0,1.8,1.5,2.8,2.6c-0.1,0.4-0.4,0.5-0.9,0.5h-6.8v2.8h4.6
			l1.8-2.4c0,0,2,1.7,3.2,2.8c-0.1,0.4-0.4,0.5-0.9,0.5h-6.6l2.8,1.5c-0.1,0.3-0.6,0.5-1.2,0.4c-0.7,0.5-1.9,1.3-3,2h3l1.6-2.1
			c0,0,1.9,1.5,3,2.6c-0.1,0.4-0.4,0.5-0.9,0.5h-7.5v3h5.3L36,105.7z M21.4,86.3v4.8h2.3v-4.8H21.4z M23.3,100
			c3.1,1.1,3.3,3,2.5,3.9h3c0.6-1.2,1.2-2.8,1.6-3.9H23.3z M29,91.1v-4.8h-2.4v4.8H29z M31.8,86.3v4.8h2.3v-4.8H31.8z"/>
		<path class="st0" d="M37.4,126.6c-0.3,0.3-0.7,0.4-1.5,0.4c-2.7,1.8-6.4,4-10,5.6l0.3,0c-0.1,0.5-0.4,0.8-1.2,0.9v15.4
			c0,2.9-0.7,4.5-6,4.9c-0.2-1.3-0.4-2.2-1.2-2.9c-0.8-0.7-1.8-1.1-4.2-1.5v-0.4c0,0,5.3,0.3,6.3,0.3c0.6,0,0.8-0.2,0.8-0.7v-16.5
			l3.5,0.3c2.3-1.9,4.7-4.3,6.3-6.1H9.9l-0.3-1h21.5l2.4-2.3L37.4,126.6z"/>
		<path class="st0" d="M36,188c0,0,2.2,1.8,3.6,3c-0.1,0.4-0.5,0.5-0.9,0.5H18.1l-0.3-1h9v-3.9h-6.9l-0.3-0.9h7.2V182h-3v1
			c0,0.3-1.5,1.1-3,1.1h-0.5v-11.6c-0.1,0-0.3,0.1-0.4,0.1h-4.3v2.8c7.6,2.7,4.3,8.1,1.6,5.6c-0.1-1.6-0.9-3.4-1.6-4.8v15.6
			c0,0.3-1.2,1.1-3,1.1h-0.6V181c-1.4,2.2-3,4.2-4.9,5.9l-0.4-0.4c2.4-3.8,4-9,4.9-13.9H7.4l-0.3-0.9h4.8v-4.9
			c-1.7,0.3-3.3,0.5-4.9,0.6L6.9,167c3.4-1.4,7.5-3.8,9.6-5.5l4.2,3.5c4.8-0.9,10.4-2.6,13.4-3.9l3.8,3.6c-0.4,0.3-1.2,0.4-2.2,0
			c-1.5,0.2-3.3,0.4-5.3,0.6v2.7h3.3l1.9-2.5c0,0,2.2,1.7,3.5,2.9c-0.1,0.3-0.4,0.5-0.9,0.5h-7.9v2.8h3l1.7-1.8l3.5,2.6
			c-0.2,0.2-0.6,0.5-1.2,0.6v9.5c0,0.2-1.2,0.7-2.3,0.8c0.5,0.4,2.2,1.7,3.2,2.7c-0.1,0.4-0.4,0.5-0.9,0.5h-6.9v3.9H34L36,188z
			 M24,171.7h2.8v-2.8h-7.8l-0.2-0.9h8.1v-2.4c-2.5,0.1-5,0.2-7.3,0.2l0-0.4c-0.2,0-0.5-0.1-0.7-0.2c-0.9,0.3-2,0.6-3.1,0.8v5.6H16
			l1.7-2.5c0,0,1.5,1.3,2.6,2.4v-1.4L24,171.7z M26.8,172.7h-3v3.6h3V172.7z M26.8,181.1v-3.9h-3v3.9H26.8z M30.4,172.7v3.6h3.3
			v-3.6H30.4z M33.7,177.2h-3.3v3.9h3.3V177.2z M30.4,185.8h2.6l1.8-2.2c-0.1,0-0.3,0-0.4,0h-0.6V182h-3.3V185.8z"/>
		<path class="st0" d="M26.4,208c-0.1,0.5-0.5,0.7-1.6,0.8c3.1,3.1,9.3,4.7,14.3,5.3l0,0.5c-1.6,0.5-2.6,2.3-2.8,3.8
			c-5.4-1.8-9.8-4.9-11.9-9.3c-3,4.3-9.8,8.4-16.8,10.3l-0.2-0.4c6.1-2.7,12-8.3,13.3-12.4L26.4,208z M7.6,204.3h5.8l-0.5-4.2
			l4.9,0.3c0,0.4-0.3,0.7-1,0.9l0.4,3h1.2l1.8-2.6c0,0,2.1,1.8,3.3,3c-0.1,0.4-0.4,0.5-0.9,0.5h-5.3l0.4,3.3c-0.5,0.7-2,1-3.8,1
			l-0.5-4.3H7.9L7.6,204.3z M8.4,230.3c3.1-2.5,5.7-6.5,6.8-9.5l4.6,2.3c-0.2,0.3-0.5,0.5-1.3,0.4c-2,2.7-5.6,5.6-9.8,7.2L8.4,230.3
			z M25.2,219.8v11c0,0.3-1.8,1.1-3.4,1.1H21v-12h-8l-0.3-1H21v-5.2l5.3,0.5c-0.1,0.4-0.3,0.7-1.1,0.8v3.9h2.6l2-2.6
			c0,0,2.2,1.8,3.6,3c-0.1,0.4-0.4,0.5-0.9,0.5H25.2z M23.9,204.3h4l0.6-4.3l4.9,0.9c-0.1,0.4-0.4,0.7-1.3,0.8l-0.4,2.6h1.6l1.8-2.6
			c0,0,2.1,1.8,3.3,3c-0.1,0.4-0.4,0.5-0.9,0.5h-6l-0.5,3.3c-0.7,0.5-2.2,0.8-3.9,0.4l0.6-3.8h-3.6L23.9,204.3z M27.2,221.8
			c12.1,2.2,9.8,10.4,5.6,8c-1.1-2.7-3.7-5.8-5.9-7.8L27.2,221.8z"/>
		<path class="st0" d="M14,243.3H7.4l-0.3-1h6.8l-0.4-3.4l5,0.3c0,0.4-0.3,0.7-0.9,0.9l0.3,2.1h0.6l1.8-2.5c0,0,2,1.7,3.2,2.9
			c-0.1,0.4-0.4,0.5-0.9,0.5h-4.5l0.2,1.5c-0.6,0.7-2,1.1-3.8,1L14,243.3z M34.8,247.1c0,0,2.1,1.7,3.4,2.9
			c-0.1,0.4-0.4,0.5-0.9,0.5h-5.5v3.6c0,0.4-1.8,1.3-3.2,1.3h-0.5v-1.3h-4.7v0.7c0,0.3-1.7,1-3.1,1h-0.6v-5.3h-3.4v6H32l1.9-2.4
			c0,0,2.2,1.6,3.5,2.8c-0.1,0.4-0.4,0.5-0.9,0.5h-2.4c0.6,0.5,2.5,2.1,3.7,3.1c-0.1,0.4-0.4,0.5-0.9,0.5H25.1v8.5
			c0,0.3-1.8,1-3.5,1h-0.7v-9.4H8.5l-0.3-1h12.6v-2.6l5.4,0.5c-0.1,0.4-0.3,0.8-1.3,0.9v1.1h6.7l2.1-2.7H16.4l-1.3,1.7l-4-2.1
			c0.3-0.3,0.8-0.7,1.3-1v-5.5H8.4l-0.2-1h4.3v-3.7l4.9,0.5c-0.1,0.4-0.4,0.7-1.1,0.8v2.3h3.4v-3.8l4.9,0.4c0,0.4-0.3,0.7-1.1,0.8
			v2.5h4.7V246l4.7,0.4c-0.1,0.4-0.3,0.7-1,0.8v2.3h1.1L34.8,247.1z M8.6,269.6c2.3-1.7,6-5.7,7.4-7.7l4.7,2.5
			c-0.2,0.4-0.8,0.6-1.8,0.5c-2.4,1.5-6.6,3.7-10.1,4.9L8.6,269.6z M28.1,250.5h-4.7v2.6h4.7V250.5z M35.8,239.8
			c0,0,2.1,1.7,3.2,2.9c-0.1,0.4-0.4,0.5-0.9,0.5h-6.6l-0.3,1.9c-0.7,0.5-2.3,0.8-3.9,0.4l0.4-2.3h-3.5l-0.3-1h3.9l0.5-3.4l4.9,0.8
			c-0.1,0.4-0.4,0.8-1.3,0.8l-0.3,1.7H34L35.8,239.8z M26.5,262.8c11.9,0.9,11.1,8,7.3,6.8c-1.6-2.2-5-4.9-7.5-6.5L26.5,262.8z"/>
	</g>
</g>
</svg>
