<?xml version="1.0" encoding="utf-8"?>
<!-- Generator: Adobe Illustrator 24.0.1, SVG Export Plug-In . SVG Version: 6.00 Build 0)  -->
<svg version="1.1" id="圖層_1" xmlns="http://www.w3.org/2000/svg" xmlns:xlink="http://www.w3.org/1999/xlink" x="0px" y="0px"
	 viewBox="0 0 189.9 58.8" style="enable-background:new 0 0 189.9 58.8;" xml:space="preserve">
<style type="text/css">
	.st0{display:none;}
	.st1{display:inline;fill:#333333;}
	.st2{fill:#333333;}
	.st3{fill:none;stroke:#323333;stroke-width:1.5;stroke-miterlimit:10;}
</style>
<g class="st0">
	<path class="st1" d="M7.5,45.4c-0.2,0.2-0.3,0.2-0.8,0.3c-0.5,1.6-1.6,3.3-3,4.6c0.1,0,0.2,0.1,0.4,0.2c1.7,1.4,4.4,1.6,9.3,1.6
		c2.6,0,4.7,0,7.3-0.2v0.2c-1,0.2-1.6,1.2-1.8,2.1h-6.4c-4.9,0-6.8-0.8-8.7-3.1c-0.3-0.4-0.6-0.3-0.7,0c-0.3,0.7-0.8,1.7-1.2,2.8
		c0.1,0.2,0,0.3-0.2,0.4L0,52.1c0.9-0.5,2.2-1.5,2.9-1.8c0.7-1.4,1.3-3.2,1.5-4.8H3.1l-0.7,0.7l-1.9-1.3c0.2-0.2,0.5-0.3,0.8-0.4
		c0.6-1,1.4-2.6,1.8-3.7H0.6l-0.2-0.6h2.8l1-1L6.3,41c-0.2,0.2-0.6,0.3-1.1,0.3c-0.5,1-1.2,2.4-1.9,3.5h1l1.2-1.2L7.5,45.4z
		 M1.2,34.7c5.7,0.9,3.6,5.1,1.4,3.5C2.5,37,1.7,35.6,1,34.8L1.2,34.7z M12.8,40.5c-1,0.4-2.9,1.2-4.9,1.9c-0.2,0.2-0.3,0.3-0.5,0.4
		l-0.9-2C6.9,40.6,7,40.4,7,40v-5.4l2.4,0.9h1.3l0.9-1l1.9,1.5c-0.1,0.1-0.4,0.3-0.7,0.3v2.3c0,0.2-1,0.6-1.6,0.6h-0.3v-0.6H9.1v1.9
		c1.1-0.1,2.4-0.2,3.7-0.3V40.5z M18,45.4c0,0,1.5,1.1,2.4,1.9c-0.1,0.2-0.3,0.3-0.6,0.3H6.7L6.5,47h3.1v-2.2h-2l-0.2-0.6h2.2V42
		l2.9,0.3c0,0.2-0.2,0.4-0.6,0.5v1.4H14V42l2.9,0.3c0,0.3-0.2,0.4-0.6,0.5v1.4l0,0l1-1.3c0,0,1.2,0.9,1.9,1.6c0,0.2-0.3,0.3-0.6,0.3
		h-2.4V47h0.5L18,45.4z M6.6,51.3c1.4-0.9,2.8-2.5,3.4-3.6l3,1.3c-0.1,0.3-0.5,0.4-1.1,0.3c-1.1,0.9-3.1,1.7-5.1,2.2L6.6,51.3z
		 M10.8,38v-1.9H9.1V38H10.8z M11.9,47H14v-2.2h-2.1V47z M15.5,41.8c-1.7,0-1.9-0.4-1.9-1.6v-5.5l2.3,0.9H17l0.9-1l2,1.5
		c-0.1,0.1-0.4,0.3-0.7,0.4v2.2c0,0.2-1,0.6-1.7,0.6h-0.3v-0.6h-1.7v1.2c0,0.3,0.1,0.3,0.5,0.3h1h1c0.1,0,0.3,0,0.5,0
		c0.1,0,0.3-0.1,0.5-0.1h0.2h0.1c0.5,0.2,0.7,0.4,0.7,0.7c0,0.7-0.8,1-3.2,1C16.8,41.8,15.5,41.8,15.5,41.8z M13.7,48
		c9.3,0.9,5.1,5.1,3.3,3.2c-0.5-0.9-1.7-2-3.4-2.9L13.7,48z M15.6,36.2V38h1.7v-1.9h-1.7C15.6,36.1,15.6,36.2,15.6,36.2z"/>
	<path class="st1" d="M32.6,43.1c-0.6,0.5-1.4,1.2-2.5,1.9v6.8c0,1.7-0.3,2.7-2.9,3C27.1,54,27,53.4,26.8,53
		c-0.3-0.4-0.7-0.7-1.5-0.8v-0.3c0,0,1.6,0.1,2,0.1c0.3,0,0.4-0.1,0.4-0.3v-4.9c-0.4,0.3-0.8,0.6-1.2,0.9c0,0.3-0.3,0.5-0.5,0.6
		l-1-2.8c0.5-0.2,1.5-0.5,2.7-0.9v-4.4h-2.4l-0.2-0.6h2.6v-5.1l3.1,0.3c-0.1,0.3-0.3,0.5-0.8,0.6v4.2h0.2l1-1.6c0,0,0.6,0.5,1.1,1.1
		v-4.2l2.1,0.9h7.9l1-1.1l2.1,1.6c-0.1,0.2-0.5,0.3-0.9,0.4v3.2c0,0.2-1,0.6-1.7,0.6h-0.3V40h-8.2v0.5c0,0.2-0.9,0.6-1.7,0.6h-0.3
		v-1H30v3.6c0.8-0.3,1.6-0.6,2.4-0.9L32.6,43.1z M43.9,48.8c0,0,1.2,1,1.9,1.7c0,0.2-0.3,0.3-0.6,0.3h-5.8v3.4
		c0,0.2-0.7,0.6-1.7,0.6h-0.4v-4h-5.7l-0.2-0.6h5.9v-2h-4.4l-0.2-0.6h2.9l0,0c-0.1-0.9-0.5-1.8-0.9-2.5H32l-0.2-0.6h5.4v-1.8h-4.1
		l-0.2-0.6h4.3v-1.9l2.9,0.2c0,0.3-0.2,0.5-0.7,0.6v1.1h2.1l1-1.4c0,0,1.2,1,1.8,1.7c0,0.2-0.3,0.3-0.6,0.3h-4.4v1.8h2.9l1.2-1.5
		c0,0,1.3,1.1,2.1,1.8c-0.1,0.2-0.3,0.3-0.6,0.3h-4.3l1.8,1c-0.1,0.2-0.4,0.3-0.8,0.2c-0.4,0.3-1.2,0.9-2,1.3h2l1-1.4
		c0,0,1.2,1,1.9,1.7c0,0.2-0.3,0.3-0.6,0.3H39v2h3.4L43.9,48.8z M34.4,36.3v3.1h1.5v-3.1H34.4z M35.6,45.1c2,0.7,2.1,1.9,1.6,2.5
		h1.9c0.4-0.8,0.8-1.8,1-2.5H35.6z M39.3,39.3v-3.1h-1.5v3.1H39.3z M41.1,36.3v3.1h1.5v-3.1H41.1z"/>
	<path class="st1" d="M69.9,37.2c-0.2,0.2-0.4,0.2-0.9,0.3c-1.7,1.2-4.1,2.6-6.4,3.6h0.2c-0.1,0.3-0.3,0.5-0.8,0.6v9.9
		c0,1.9-0.5,2.9-3.9,3.2c-0.1-0.9-0.2-1.4-0.7-1.9c-0.5-0.4-1.2-0.7-2.7-1v-0.3c0,0,3.4,0.2,4.1,0.2c0.4,0,0.5-0.2,0.5-0.5V40.8
		l2.3,0.2c1.5-1.2,3-2.8,4-4H52.1l-0.2-0.6h13.9l1.5-1.5L69.9,37.2z"/>
	<path class="st1" d="M82.2,47.7c0,1.5-0.3,2.2-2.7,2.4c0.5,2.5-0.7,4.1-1.9,4.6c-0.8,0.4-1.8,0.1-2.1-0.7c-0.2-0.7,0.3-1.3,1-1.6
		c1-0.3,2.3-1.2,2.6-2.5h0.3c0-0.4-0.1-0.8-0.3-1c-0.3-0.2-0.6-0.5-1.4-0.6V48c0,0,1.6,0.1,2,0.1c0.3,0,0.3-0.1,0.3-0.3v-0.9
		c-0.8,0.2-1.7,0.4-2.7,0.6c-0.1,0.3-0.3,0.4-0.6,0.5l-1-2.2c0.9,0,2.4-0.1,4.2-0.2v-1.1l1.4,0.1c0.3-0.3,0.6-0.6,0.8-0.9h-5.3
		L76.6,43h5.8l0.8-0.7H83h-0.4v-0.5h-3.4V42c0,0.2-0.7,0.6-1.8,0.6H77V38l2.5,1h3l1-1l2.1,1.5c-0.1,0.1-0.3,0.3-0.7,0.3v2.1
		c0,0.1-0.5,0.3-1,0.4l1.7,1.5C85.4,44,85.2,44,84.7,44c-0.6,0.2-1.5,0.5-2.4,0.7h0.5c0,0.3-0.3,0.5-0.7,0.5v0.1l3.4-0.2v0.3
		c-0.9,0.3-2.1,0.6-3.4,0.9L82.2,47.7L82.2,47.7z M75.8,37.7l-0.2-0.6h7.9l1.1-1.5c0,0,1.2,1,2,1.8c-0.1,0.2-0.3,0.3-0.6,0.3H75.8z
		 M82.7,41.2v-1.7h-3.4v1.7H82.7z M79.5,34.2c5.1,0.2,2.9,3.9,0.9,2.5c-0.1-0.9-0.6-1.8-1.1-2.3L79.5,34.2z M82,50
		c4.7,2.6,1.9,6.1,0.1,4c0.2-1.3,0-2.8-0.4-4H82z M95.4,47.5c0.5,0.6,0.6,1.1,0.5,1.5c-0.3,0.9-1.1,1-2,0.7
		c-2.5-1.1-2.6-5.7-2.5-10.6H90c-0.1,1.5-0.2,2.9-0.6,4.2c2.8,2.1,1.6,4.7-0.2,3.6c-0.2-0.5-0.4-0.9-0.7-1.4c-0.9,1.7-2.5,3.1-5,4.2
		l-0.2-0.3c2.2-1.6,3.3-3.5,3.9-5.7c-0.6-0.7-1.2-1.3-1.7-1.8l0.2-0.2c0.7,0.2,1.2,0.4,1.8,0.6c0.1-1,0.2-2,0.2-3.1h-2l-0.2-0.6h2.2
		c0-1.3,0-2.7,0-4.2l3.1,0.3c0,0.3-0.2,0.5-0.7,0.6c0,1.2,0,2.2-0.1,3.3h1.1l1.2-1.2l2.2,1.7c-0.1,0.2-0.4,0.3-0.8,0.3
		c-0.2,2.8-0.2,7.1,0.7,7.6c0.2,0.1,0.2,0,0.3-0.2c0.2-0.5,0.4-1.2,0.5-1.9h0.2V47.5z M85.9,49.9c5.8,1.7,3.5,6,1.4,4.2
		c-0.1-1.4-0.9-3-1.6-4.1L85.9,49.9z M90.1,49.7c7.2,1.2,5.7,6.3,3.2,4.8c-0.5-1.6-2-3.5-3.4-4.7L90.1,49.7z"/>
	<path class="st1" d="M120.3,51.9c0.8,1.3,0.9,1.9,0.5,2.3c-1,1-2.8,0-3.8-0.9s-1.8-1.8-2.5-2.9c-1.7,1.7-4,3.2-6.8,4.2l-0.2-0.3
		c2.5-1.5,4.5-3.5,6-5.7c-1.3-2.7-1.9-5.8-2.2-9.3h-6.1V43h2.6l1.2-1.2l2.2,1.8c-0.2,0.2-0.4,0.3-0.9,0.4c-0.1,4.7-0.4,6.4-1.4,7.1
		c-0.6,0.5-1.3,0.7-2.4,0.7c0-0.7,0-1.3-0.3-1.6s-0.7-0.5-1.4-0.7v-0.3c0.5,0,1.4,0.1,1.8,0.1c0.3,0,0.5,0,0.6-0.2
		c0.4-0.3,0.6-2,0.7-5.5h-2.8c0,3.5-0.3,8.3-4.6,11.4l-0.2-0.2c2.1-3.3,2.3-7.5,2.3-11.2v-5.7l2.9,1h5.7c-0.1-1.5-0.1-2.9-0.1-4.5
		l3.3,0.3c0,0.3-0.2,0.5-0.8,0.6c0,1.2,0,2.4,0.1,3.5h3.3l0.8-1c-0.3,0-0.5,0-0.9-0.2c-0.3-1-1.4-2-2.2-2.6l0.2-0.2
		c3.5-0.2,4.3,1.4,3.8,2.3c0.5,0.4,1.6,1.2,2.3,1.9c0,0.2-0.3,0.3-0.6,0.3h-6.6c0.2,2.3,0.5,4.6,1.3,6.6c0.7-1.6,1.3-3.2,1.7-4.8
		l3.4,1.1c-0.1,0.3-0.3,0.4-0.9,0.4c-0.7,1.9-1.7,3.8-3,5.6c0.6,1,1.4,1.8,2.3,2.5c0.3,0.3,0.5,0.3,0.7-0.1c0.3-0.5,1-1.7,1.4-2.7
		h0.2L120.3,51.9z"/>
	<path class="st1" d="M127.8,48.7c0.9,2.3,0.7,4,0,4.9c-0.5,0.6-1.7,0.6-2.1-0.2c-0.3-0.7,0-1.3,0.6-1.8c0.5-0.5,1.2-1.9,1.1-2.9
		H127.8z M125.8,45.9c0,0,0.6-0.1,0.8-0.3c1.1-0.8,2.4-2.3,3.5-3.8c-0.8,0.3-1.7,0.7-2.7,1c-0.2,0.3-0.4,0.5-0.6,0.6l-1.1-2.7
		c0,0,0.5-0.1,0.7-0.2c1.2-1.1,2.7-4.3,3.2-6l3,1.5c-0.1,0.2-0.3,0.3-0.7,0.3c-1,1.4-2.8,3.2-4.3,4.4c0.9,0,2.1,0,3.4,0
		c0.6-0.9,1-1.7,1.3-2.4l2.7,1.9c-0.1,0.2-0.4,0.3-0.9,0.2c-1.3,1.7-3.9,4-6.2,5.5c1.4-0.1,3.2-0.2,5.1-0.3
		c-0.3-0.8-0.7-1.6-1.1-2.2l0.2-0.1c5,1.9,3.1,5.6,1.3,4.1c0-0.4-0.2-0.9-0.3-1.3c-1.3,0.5-3.4,1.4-5.8,2.1
		c-0.2,0.2-0.4,0.4-0.6,0.5L125.8,45.9z M129.8,48.4c3.8,2.8,1.3,6.1-0.2,4.2c0.3-1.4,0.2-3-0.1-4.1L129.8,48.4z M132.1,48
		c4.6,1.7,2.5,5.3,0.8,3.7c0-1.2-0.5-2.6-1.1-3.6L132.1,48z M143.9,51.1c0,0,1.6,1.3,2.5,2.2c-0.1,0.2-0.3,0.3-0.6,0.3h-12.4
		l-0.2-0.6h4.8V37.9h-3.9l-0.2-0.6h8.1l1.3-1.8c0,0,1.5,1.2,2.4,2.1c0,0.2-0.3,0.3-0.6,0.3h-4.6V53h1.8L143.9,51.1z"/>
	<path class="st1" d="M163.1,39.5c-0.1,0.3-0.3,0.4-1,0.5c2,2,6,3.1,9.2,3.4v0.3c-1,0.3-1.7,1.5-1.8,2.4c-3.5-1.1-6.3-3.1-7.7-6
		c-2,2.8-6.4,5.5-10.9,6.6l-0.1-0.3c3.9-1.8,7.7-5.4,8.6-8L163.1,39.5z M151,37.1h3.8l-0.3-2.7l3.2,0.2c0,0.3-0.2,0.5-0.6,0.6
		l0.2,1.9h0.7l1.2-1.7c0,0,1.4,1.2,2.1,1.9c0,0.2-0.3,0.3-0.6,0.3h-3.4l0.3,2.1c-0.3,0.5-1.3,0.7-2.4,0.7l-0.3-2.8h-3.6L151,37.1z
		 M151.5,54c2-1.6,3.7-4.2,4.4-6.1l2.9,1.5c-0.1,0.2-0.3,0.3-0.8,0.3c-1.3,1.7-3.6,3.6-6.3,4.6L151.5,54z M162.3,47.2v7.1
		c0,0.2-1.2,0.7-2.2,0.7h-0.5v-7.8h-5.2l-0.2-0.6h5.3v-3.4l3.4,0.3c0,0.3-0.2,0.5-0.7,0.5v2.5h1.7l1.3-1.7c0,0,1.4,1.1,2.3,1.9
		c-0.1,0.2-0.3,0.3-0.6,0.3h-4.6V47.2z M161.5,37.1h2.6l0.4-2.8l3.1,0.6c-0.1,0.3-0.2,0.5-0.8,0.5l-0.3,1.7h1l1.2-1.7
		c0,0,1.4,1.2,2.1,1.9c0,0.2-0.3,0.3-0.6,0.3h-3.9l-0.3,2.1c-0.5,0.3-1.4,0.5-2.5,0.3l0.4-2.4h-2.3L161.5,37.1z M163.6,48.4
		c7.8,1.4,6.3,6.7,3.6,5.2c-0.7-1.8-2.4-3.7-3.8-5L163.6,48.4z"/>
</g>
<g>
	<g>
		<path class="st2" d="M62.1,15.8c-0.2,0.2-0.4,0.3-0.9,0.3c-0.3,3.8-1,5.8-2.1,6.6c-0.7,0.5-1.6,0.7-2.6,0.7c0-0.7-0.1-1.3-0.4-1.6
			c-0.3-0.3-0.9-0.6-1.7-0.8v-0.3c0.7,0.1,1.9,0.2,2.4,0.2c0.3,0,0.5,0,0.7-0.2c0.5-0.4,1-2.1,1.3-5H46c-1.3,1.3-2.9,2.6-4.7,3.6
			l-0.2-0.2c3.4-2.8,5.8-6.7,7.5-10.6h-5.7l-0.2-0.6h6.1c0.7-1.7,1.2-3.5,1.6-5.1l3.3,1c-0.1,0.3-0.3,0.4-0.9,0.4
			c-0.4,1.2-0.9,2.4-1.5,3.6h3.1l0.9-1l2.1,1.6c-0.2,0.2-0.4,0.3-0.8,0.3L56,11.4h0.3l0.9-1l2.1,1.6c-0.2,0.2-0.3,0.3-0.7,0.3
			l-0.5,2.8h0.3l1.2-1.2L62.1,15.8z M45.5,17.1c1.2,2.9,0.3,4.8-0.9,5.5c-0.8,0.5-1.8,0.3-2.1-0.5c-0.2-0.8,0.2-1.4,0.9-1.7
			c0.9-0.5,1.8-1.7,1.7-3.2L45.5,17.1z M44.3,3.2c6,0.9,3.9,5.5,1.5,3.8c-0.2-1.3-0.9-2.7-1.7-3.6L44.3,3.2z M49,12.1
			c-0.7,1-1.5,2.1-2.4,3.1h9.5l0.6-3.1H49z M47.9,17.1c4.2,2.9,1.2,6.5-0.4,4.3c0.4-1.4,0.4-3,0.1-4.2L47.9,17.1z M51.1,8.5
			c-0.5,1-1,2-1.7,3h4.5l0.7-3H51.1z M50.6,16.9c5.1,1.5,2.9,5.4,1,3.7c0-1.2-0.6-2.6-1.2-3.6L50.6,16.9z M53.6,16.5
			c5.2,0.2,3.7,4.1,1.6,2.9c-0.2-1-1-2.1-1.8-2.7L53.6,16.5z"/>
		<path class="st2" d="M74.6,4.1c-0.1,0.3-0.4,0.5-0.9,0.5c-0.7,1.7-1.4,3.2-2.3,4.5l1.1,0.4c-0.1,0.2-0.3,0.3-0.7,0.4v12.8
			c0,0.2-1.1,0.7-2.1,0.7h-0.5V12c-0.9,1-1.8,1.8-2.9,2.6l-0.2-0.2c2-2.8,3.9-7.1,4.8-11.4L74.6,4.1z M84.5,8.9c0,0,1.6,1.3,2.6,2.2
			c-0.1,0.2-0.3,0.3-0.6,0.3H81v10.9c0,0.3-1.2,0.9-2.2,0.9h-0.5V11.5h-5.1L73,10.9h5.2V3.4l3.5,0.3c0,0.3-0.2,0.5-0.8,0.6v6.5h2
			L84.5,8.9z"/>
		<path class="st2" d="M109.7,3.7c0,0,1.5,1.2,2.4,2.1c-0.1,0.2-0.3,0.3-0.6,0.3h-16v5.3c0,3.8-0.2,8.7-3.9,12.1l-0.3-0.2
			c1.8-3.4,1.9-7.9,1.9-11.9V4.5l2.7,1h6.4c-0.1,0-0.3-0.1-0.4-0.2c-0.1-0.8-0.7-1.8-1.2-2.2l0.2-0.1c3.7-0.1,3.5,2.1,2.3,2.6h5.4
			L109.7,3.7z M98.2,10.2c-0.1,0.2-0.3,0.3-0.5,0.3c-0.1,1.2-0.3,2.7-2,3.7l-0.3-0.3c0.7-1.2,0.7-2.8,0.7-4.1l2.1,0.2V9h-2.5
			l-0.2-0.6h2.4V6.3l2.8,0.3c0,0.3-0.2,0.5-0.7,0.5v1.3h0.2l1-1.3c0,0,0.9,0.7,1.5,1.3h2.8V6.3l2.8,0.3c0,0.3-0.2,0.5-0.7,0.5v1.4
			h0.7l1.1-1.5c0,0,1.3,1,2,1.8c-0.1,0.2-0.3,0.3-0.6,0.3h-3.5v5.2c0,0.1-0.7,0.4-1.4,0.4h-0.3v-4.4c-0.1,0.1-0.3,0.2-0.5,0.2
			c-0.1,1.1-0.3,2.7-2,3.7l-0.3-0.3c0.7-1.2,0.7-2.7,0.7-4.1l2.1,0.2V9h-2.9V8.9C102.6,9,102.5,9,102.3,9h-2.6v5.2
			c0,0.1-0.7,0.4-1.4,0.4H98v-4.4C98,10.2,98.2,10.2,98.2,10.2z M106.6,18.2c6.7,1.8,4.8,6.6,2.4,4.9c-0.1-0.6-0.4-1.3-0.7-2
			c-2.7,0.5-6.5,1.2-11,1.9c-0.2,0.2-0.3,0.3-0.5,0.3L96,20.8c0,0,0.6-0.1,0.9-0.2c1.7-0.5,3.8-1.6,5.6-2.7
			c-1.3,0.3-2.9,0.7-4.6,1.1c-0.2,0.2-0.3,0.3-0.5,0.3L96.7,17c0,0,0.4-0.1,0.6-0.2c1.6-0.5,3.7-2.4,4.4-3.4l2.8,1.4
			c-0.1,0.2-0.4,0.3-0.9,0.3c-1,0.6-2.7,1.4-4.3,1.9c1.3,0,2.9-0.1,4.6-0.1c1-0.7,1.8-1.4,2.3-1.9l2.7,1.7c-0.1,0.2-0.5,0.3-1,0.2
			c-2,1.2-5.7,2.8-9,3.8c2.3,0,5.6-0.2,9.1-0.3C107.5,19.6,107,18.8,106.6,18.2L106.6,18.2z M102.3,10c0,0.3-0.2,0.5-0.5,0.5V12
			c0,0.2,0,0.2,0.1,0.2l0,0l0,0h0.2c0.1,0,0.2,0,0.3,0h0.3c0.4,0.2,0.5,0.2,0.5,0.6c0,0.5-0.5,0.8-1.4,0.8h-0.3c-0.9,0-1-0.3-1-1.2
			V9.8L102.3,10z M111,12.5c0.4,0.1,0.5,0.2,0.5,0.5c0,0.6-0.5,0.8-1.8,0.8h-0.5c-1,0-1.2-0.3-1.2-1.2V9.7l2,0.2
			c0,0.3-0.3,0.4-0.6,0.5v1.9c0,0.2,0,0.3,0.2,0.3h0.3h0.2h0.2c0.1,0,0.2,0,0.3-0.1L111,12.5L111,12.5z"/>
	</g>
	<line class="st3" x1="117.4" y1="13.9" x2="158.3" y2="13.9"/>
</g>
<g>
	<g>
		<path class="st2" d="M171.1,39c-0.2,1.4-0.8,1.9-1.7,1.9c-0.5,0-1-0.2-1.3-0.7c0.2-2.7,2.4-4.2,5.4-4.2c3.5,0,5.3,1.5,5.3,3.8
			c0,1.7-0.9,2.8-3.1,4.2c-1.7,1-2.2,1.4-2.4,2.6l-0.1,1.3h-0.8c-0.1-0.7-0.3-1.6-0.3-2.2c0-1,0.5-1.6,1.9-2.8
			c1.3-1.1,1.9-1.9,1.9-3.3c0-1.9-1.3-2.8-3.3-2.8c-0.5,0-0.9,0-1.3,0.2L171.1,39z M174.7,51.4c0,0.9-0.8,1.7-1.8,1.7
			s-1.7-0.8-1.7-1.7c0-1,0.7-1.7,1.7-1.7S174.7,50.4,174.7,51.4z"/>
	</g>
	<g>
		<path class="st2" d="M18.8,45.6c-0.2,0.2-0.4,0.2-0.8,0.3c-0.5,1.6-1.6,3.3-3.1,4.7c0.1,0,0.2,0.1,0.4,0.2
			c1.7,1.4,4.5,1.7,9.5,1.7c2.7,0,4.8,0,7.5-0.2v0.2c-1.1,0.2-1.7,1.2-1.8,2.2h-6.6c-5,0-7-0.8-8.9-3.1c-0.3-0.4-0.6-0.4-0.8,0
			c-0.3,0.7-0.8,1.8-1.2,2.9c0.1,0.2,0,0.3-0.2,0.4l-1.8-2.5c0.9-0.5,2.3-1.5,3-1.9c0.7-1.4,1.3-3.3,1.6-4.9h-1.3l-0.7,0.7l-1.9-1.3
			c0.2-0.2,0.5-0.3,0.8-0.4c0.6-1.1,1.4-2.6,1.9-3.7h-2.7l-0.2-0.6h2.9l1-1l2.1,1.9c-0.2,0.2-0.6,0.3-1.1,0.4
			c-0.5,1-1.3,2.5-1.9,3.6h1l1.2-1.2L18.8,45.6z M12.4,34.8c5.8,0.9,3.7,5.2,1.4,3.6c-0.1-1.2-0.9-2.6-1.7-3.5L12.4,34.8z
			 M24.2,40.7c-1,0.4-2.9,1.2-5,2c-0.2,0.2-0.4,0.3-0.5,0.4l-0.9-2c0.5-0.3,0.5-0.5,0.5-0.9v-5.5l2.4,1H22l0.9-1l2,1.5
			c-0.1,0.1-0.4,0.3-0.8,0.4v2.3c0,0.2-1,0.6-1.6,0.6h-0.3v-0.6h-1.8v1.9c1.1-0.1,2.4-0.2,3.8-0.3L24.2,40.7z M29.5,45.7
			c0,0,1.5,1.1,2.4,1.9c-0.1,0.2-0.3,0.4-0.6,0.4H18l-0.2-0.6H21V45h-2.1l-0.2-0.6H21v-2.3l2.9,0.3c0,0.2-0.2,0.4-0.6,0.5v1.5h2.1
			v-2.3l2.9,0.3c0,0.3-0.2,0.4-0.6,0.5v1.5h0l1-1.4c0,0,1.2,1,2,1.6c0,0.2-0.3,0.4-0.6,0.4h-2.5v2.3h0.5L29.5,45.7z M17.9,51.7
			c1.4-0.9,2.8-2.5,3.4-3.7l3.1,1.4c-0.1,0.3-0.5,0.4-1.1,0.3c-1.1,0.9-3.1,1.8-5.2,2.2L17.9,51.7z M22.2,38.1v-1.9h-1.8v1.9H22.2z
			 M23.3,47.3h2.1V45h-2.1V47.3z M26.9,42c-1.7,0-1.9-0.4-1.9-1.7v-5.6l2.4,0.9h1.2l0.9-1l2,1.5c-0.1,0.1-0.4,0.3-0.7,0.4v2.3
			c0,0.2-1,0.6-1.7,0.6h-0.3v-0.6h-1.7v1.2c0,0.3,0.1,0.4,0.5,0.4h1.1h1c0.1,0,0.3,0,0.5,0c0.1,0,0.4-0.1,0.5-0.1h0.2l0.1,0
			c0.6,0.2,0.8,0.4,0.8,0.7c0,0.8-0.8,1-3.3,1H26.9z M25.2,48.3c9.5,0.9,5.2,5.2,3.3,3.2c-0.5-0.9-1.7-2.1-3.5-3L25.2,48.3z
			 M27.1,36.2v1.9h1.7v-1.9H27.1z"/>
		<path class="st2" d="M44.5,43.3c-0.6,0.5-1.5,1.2-2.5,2v6.9c0,1.8-0.3,2.8-2.9,3c-0.1-0.8-0.2-1.4-0.4-1.9
			c-0.3-0.4-0.7-0.7-1.5-0.8v-0.3c0,0,1.6,0.1,2,0.1c0.3,0,0.4-0.1,0.4-0.4v-5c-0.4,0.3-0.8,0.6-1.3,0.9c0,0.3-0.3,0.6-0.5,0.6
			l-1-2.8c0.6-0.2,1.5-0.5,2.8-0.9v-4.5h-2.4l-0.2-0.6h2.6v-5.2l3.2,0.3c-0.1,0.3-0.3,0.5-0.8,0.6v4.3h0.2l1-1.7
			c0,0,0.6,0.6,1.1,1.2v-4.3l2.2,0.9h8.1l1-1.1l2.2,1.7c-0.1,0.2-0.5,0.4-0.9,0.4V40c0,0.2-1,0.6-1.7,0.6h-0.3v-0.4h-8.4v0.6
			c0,0.2-0.9,0.6-1.7,0.6h-0.3v-1.1h-2.4V44c0.8-0.3,1.6-0.6,2.4-0.9L44.5,43.3z M56,49.2c0,0,1.2,1,2,1.7c0,0.2-0.3,0.4-0.6,0.4
			h-5.9v3.4c0,0.2-0.7,0.6-1.8,0.6h-0.4v-4.1h-5.8l-0.2-0.6h6v-2h-4.5L44.6,48h3l0,0c-0.1-0.9-0.5-1.9-0.9-2.5H44l-0.2-0.6h5.5v-1.9
			h-4.2L45,42.3h4.4v-2l2.9,0.2c0,0.3-0.2,0.5-0.7,0.6v1.1h2.2l1-1.5c0,0,1.2,1,1.9,1.7c0,0.2-0.3,0.4-0.6,0.4h-4.5v1.9h3l1.2-1.6
			c0,0,1.3,1.1,2.1,1.9c-0.1,0.2-0.3,0.4-0.6,0.4h-4.4l1.9,1c-0.1,0.2-0.4,0.3-0.8,0.2c-0.4,0.4-1.2,0.9-2,1.3h2l1.1-1.4
			c0,0,1.2,1,2,1.7c0,0.2-0.3,0.4-0.6,0.4h-5v2h3.5L56,49.2z M46.3,36.4v3.1h1.5v-3.1H46.3z M47.6,45.4c2,0.8,2.2,2,1.6,2.6h2
			c0.4-0.8,0.8-1.9,1-2.6H47.6z M51.3,39.5v-3.1h-1.6v3.1H51.3z M53.2,36.4v3.1h1.5v-3.1H53.2z"/>
		<path class="st2" d="M82.6,37.3c-0.2,0.2-0.4,0.2-1,0.3c-1.8,1.2-4.2,2.6-6.6,3.7l0.2,0c-0.1,0.3-0.3,0.5-0.8,0.6V52
			c0,1.9-0.5,2.9-4,3.3c-0.1-0.9-0.2-1.5-0.8-1.9c-0.5-0.4-1.2-0.7-2.7-1v-0.3c0,0,3.5,0.2,4.1,0.2c0.4,0,0.6-0.2,0.6-0.5V41
			l2.3,0.2c1.5-1.2,3.1-2.8,4.1-4H64.4l-0.2-0.6h14.2L80,35L82.6,37.3z"/>
		<path class="st2" d="M107.3,52.2c0,0,1.5,1.2,2.4,2c-0.1,0.2-0.3,0.4-0.6,0.4H95.5l-0.2-0.6h5.9v-2.6h-4.6l-0.2-0.6h4.7v-2.5h-2
			v0.7c0,0.2-1,0.7-2,0.7h-0.3V42c-0.1,0-0.2,0-0.3,0h-2.8v1.8c5,1.8,2.9,5.3,1.1,3.7c-0.1-1.1-0.6-2.3-1.1-3.2v10.3
			c0,0.2-0.8,0.7-2,0.7h-0.4v-7.8c-0.9,1.4-2,2.7-3.3,3.9l-0.3-0.2c1.6-2.5,2.6-6,3.2-9.2h-2.7l-0.2-0.6h3.1v-3.3
			c-1.1,0.2-2.2,0.3-3.3,0.4l-0.1-0.3c2.3-0.9,5-2.5,6.3-3.6l2.8,2.3c3.2-0.6,6.9-1.7,8.9-2.5l2.5,2.4c-0.3,0.2-0.8,0.2-1.4,0
			c-1,0.2-2.2,0.3-3.5,0.4v1.8h2.2l1.3-1.6c0,0,1.4,1.1,2.3,1.9c-0.1,0.2-0.3,0.3-0.6,0.3h-5.2v1.8h2l1.1-1.2L109,42
			c-0.1,0.2-0.4,0.3-0.8,0.4v6.2c0,0.1-0.8,0.4-1.5,0.6c0.4,0.3,1.4,1.1,2.1,1.8c0,0.2-0.3,0.4-0.6,0.4h-4.6v2.6h2.4L107.3,52.2z
			 M99.4,41.4h1.9v-1.8h-5.2l-0.2-0.6h5.3v-1.6c-1.6,0.1-3.3,0.1-4.8,0.1l0-0.2c-0.2,0-0.3,0-0.5-0.1c-0.6,0.2-1.3,0.4-2.1,0.5v3.7
			h0.3l1.1-1.6c0,0,1,0.8,1.7,1.6v-0.9L99.4,41.4z M101.2,42h-2v2.4h2V42z M101.2,47.6V45h-2v2.5H101.2z M103.6,42v2.4h2.2V42H103.6
			z M105.8,45h-2.2v2.5h2.2V45z M103.6,50.7h1.7l1.2-1.5c-0.1,0-0.2,0-0.3,0h-0.4v-1h-2.2V50.7z"/>
		<path class="st2" d="M126.6,39.7c-0.1,0.3-0.4,0.4-1.1,0.5c2,2.1,6.1,3.1,9.4,3.5l0,0.4c-1.1,0.4-1.7,1.5-1.9,2.5
			c-3.6-1.2-6.5-3.2-7.9-6.1c-2,2.8-6.5,5.6-11.1,6.8L114,47c4-1.8,7.9-5.5,8.8-8.2L126.6,39.7z M114.2,37.2h3.8l-0.3-2.8l3.3,0.2
			c0,0.3-0.2,0.5-0.6,0.6l0.2,2h0.8l1.2-1.7c0,0,1.4,1.2,2.2,2c0,0.2-0.3,0.4-0.6,0.4h-3.5l0.3,2.2c-0.4,0.5-1.3,0.7-2.5,0.7
			l-0.3-2.9h-3.7L114.2,37.2z M114.7,54.4c2-1.6,3.7-4.3,4.5-6.3l3,1.5c-0.1,0.2-0.3,0.4-0.8,0.3c-1.3,1.8-3.7,3.7-6.5,4.7
			L114.7,54.4z M125.8,47.5v7.2c0,0.2-1.2,0.7-2.2,0.7h-0.5v-7.9h-5.3l-0.2-0.6h5.4v-3.4l3.5,0.3c0,0.3-0.2,0.5-0.7,0.6v2.6h1.7
			l1.3-1.7c0,0,1.5,1.2,2.4,2c-0.1,0.2-0.3,0.4-0.6,0.4H125.8z M125,37.2h2.7l0.4-2.8l3.2,0.6c-0.1,0.3-0.2,0.5-0.8,0.5l-0.3,1.7
			h1.1l1.2-1.7c0,0,1.4,1.2,2.2,2c0,0.2-0.3,0.4-0.6,0.4h-4l-0.3,2.2c-0.5,0.4-1.5,0.5-2.5,0.3l0.4-2.5h-2.4L125,37.2z M127.2,48.8
			c8,1.5,6.4,6.9,3.7,5.3c-0.7-1.8-2.5-3.8-3.9-5.1L127.2,48.8z"/>
		<path class="st2" d="M144.2,37.3h-4.4l-0.2-0.6h4.5l-0.3-2.2l3.3,0.2c0,0.2-0.2,0.5-0.6,0.6l0.2,1.4h0.4l1.2-1.6
			c0,0,1.3,1.1,2.1,1.9c0,0.2-0.3,0.4-0.6,0.4h-3l0.1,1c-0.4,0.5-1.3,0.7-2.5,0.7L144.2,37.3z M157.9,39.8c0,0,1.4,1.1,2.3,1.9
			c0,0.2-0.3,0.4-0.6,0.4h-3.6v2.4c0,0.3-1.2,0.8-2.1,0.8h-0.3v-0.8h-3.1v0.5c0,0.2-1.1,0.7-2.1,0.7h-0.4v-3.5h-2.3V46H156l1.3-1.6
			c0,0,1.4,1,2.3,1.9c-0.1,0.2-0.3,0.4-0.6,0.4h-1.6c0.4,0.3,1.7,1.4,2.5,2.1c-0.1,0.2-0.3,0.4-0.6,0.4h-7.8v5.6
			c0,0.2-1.2,0.6-2.3,0.6h-0.5v-6.2h-8.1l-0.2-0.6h8.3v-1.7l3.6,0.3c0,0.3-0.2,0.5-0.8,0.6v0.8h4.4l1.4-1.8h-11.4l-0.8,1.1l-2.7-1.4
			c0.2-0.2,0.5-0.5,0.8-0.7v-3.7h-2.7l-0.2-0.6h2.8V39l3.2,0.3c-0.1,0.3-0.2,0.5-0.7,0.6v1.5h2.3V39l3.2,0.3c0,0.3-0.2,0.5-0.7,0.6
			v1.6h3.1v-2.3l3.1,0.2c0,0.3-0.2,0.4-0.7,0.5v1.5h0.7L157.9,39.8z M140.6,54.7c1.5-1.1,4-3.8,4.9-5.1l3.1,1.7
			c-0.1,0.3-0.5,0.4-1.2,0.4c-1.6,1-4.4,2.4-6.7,3.3L140.6,54.7z M153.5,42.1h-3.1v1.7h3.1V42.1z M158.5,35c0,0,1.4,1.1,2.1,1.9
			c-0.1,0.2-0.3,0.4-0.6,0.4h-4.4l-0.2,1.2c-0.5,0.4-1.5,0.5-2.6,0.3l0.2-1.5h-2.3l-0.2-0.6h2.6l0.4-2.3l3.2,0.6
			c0,0.3-0.2,0.5-0.8,0.6l-0.2,1.1h1.5L158.5,35z M152.4,50.2c7.9,0.6,7.3,5.3,4.8,4.5c-1-1.5-3.3-3.3-5-4.3L152.4,50.2z"/>
	</g>
</g>
</svg>
