<?xml version="1.0" encoding="utf-8"?>
<!-- Generator: Adobe Illustrator 24.0.1, SVG Export Plug-In . SVG Version: 6.00 Build 0)  -->
<svg version="1.1" id="圖層_1" xmlns="http://www.w3.org/2000/svg" xmlns:xlink="http://www.w3.org/1999/xlink" x="0px" y="0px"
	 viewBox="0 0 189.9 58.8" style="enable-background:new 0 0 189.9 58.8;" xml:space="preserve">
<style type="text/css">
	.st0{fill:#323333;}
	.st1{fill:none;stroke:#323333;stroke-width:1.5;stroke-miterlimit:10;}
	.st2{fill:#333333;}
</style>
<g>
	<g>
		<path class="st0" d="M69.6,16.4c-0.2,0.2-0.4,0.3-0.8,0.3c-0.3,3.5-0.9,5.3-1.9,6.1c-0.6,0.5-1.5,0.6-2.4,0.6
			c0-0.6-0.1-1.2-0.4-1.5c-0.3-0.3-0.8-0.6-1.6-0.7v-0.3c0.6,0.1,1.8,0.2,2.2,0.2c0.3,0,0.5,0,0.6-0.2c0.5-0.4,0.9-1.9,1.2-4.6H54.7
			c-1.2,1.2-2.7,2.4-4.3,3.3l-0.2-0.2c3.1-2.6,5.3-6.2,6.9-9.8h-5.3l-0.2-0.6h5.6c0.6-1.6,1.1-3.2,1.5-4.7l3,0.9
			c-0.1,0.3-0.3,0.4-0.8,0.4c-0.4,1.1-0.8,2.2-1.4,3.3h2.9l0.8-0.9l1.9,1.5c-0.2,0.2-0.4,0.3-0.7,0.3l-0.6,2.5h0.3l0.8-0.9l1.9,1.5
			c-0.2,0.2-0.3,0.3-0.6,0.3l-0.5,2.6h0.3l1.1-1.1L69.6,16.4z M54.3,17.6c1.1,2.7,0.3,4.4-0.8,5.1c-0.7,0.5-1.7,0.3-1.9-0.5
			c-0.2-0.7,0.2-1.3,0.8-1.6c0.8-0.5,1.7-1.6,1.6-3L54.3,17.6z M53.2,4.8c5.5,0.8,3.6,5.1,1.4,3.5C54.4,7.1,53.7,5.8,53,5L53.2,4.8z
			 M57.5,13c-0.6,0.9-1.4,1.9-2.2,2.9H64l0.6-2.9H57.5z M56.5,17.6c3.9,2.7,1.1,6-0.4,4c0.4-1.3,0.4-2.8,0.1-3.9L56.5,17.6z
			 M59.4,9.7c-0.5,0.9-0.9,1.8-1.6,2.8H62l0.6-2.8H59.4z M59,17.4c4.7,1.4,2.7,5,0.9,3.4c0-1.1-0.6-2.4-1.1-3.3L59,17.4z M61.7,17
			c4.8,0.2,3.4,3.8,1.5,2.7c-0.2-0.9-0.9-1.9-1.7-2.5L61.7,17z"/>
		<path class="st0" d="M81.1,5.6c-0.1,0.3-0.4,0.5-0.8,0.5c-0.6,1.6-1.3,3-2.1,4.2l1,0.4c-0.1,0.2-0.3,0.3-0.6,0.4v11.8
			c0,0.2-1,0.6-1.9,0.6h-0.5V12.9c-0.8,0.9-1.7,1.7-2.7,2.4l-0.2-0.2c1.8-2.6,3.6-6.5,4.4-10.5L81.1,5.6z M90.2,10
			c0,0,1.5,1.2,2.4,2c-0.1,0.2-0.3,0.3-0.6,0.3H87v10.1c0,0.3-1.1,0.8-2,0.8h-0.5V12.4h-4.7l-0.2-0.6h4.8V5l3.2,0.3
			c0,0.3-0.2,0.5-0.7,0.6v6h1.8L90.2,10z"/>
		<path class="st0" d="M113.5,5.2c0,0,1.4,1.1,2.2,1.9c-0.1,0.2-0.3,0.3-0.6,0.3h-14.8v4.9c0,3.5-0.2,8-3.6,11.2l-0.3-0.2
			c1.7-3.1,1.8-7.3,1.8-11V6l2.5,0.9h5.9c-0.1,0-0.3-0.1-0.4-0.2c-0.1-0.7-0.6-1.7-1.1-2l0.2-0.1c3.4-0.1,3.2,1.9,2.1,2.4h5
			L113.5,5.2z M102.9,11.2c-0.1,0.2-0.3,0.3-0.5,0.3c-0.1,1.1-0.3,2.5-1.8,3.4l-0.3-0.3c0.6-1.1,0.6-2.6,0.6-3.8l1.9,0.2v-0.9h-2.3
			l-0.2-0.6h2.2V7.6l2.6,0.3c0,0.3-0.2,0.5-0.6,0.5v1.2h0.2l0.9-1.2c0,0,0.8,0.6,1.4,1.2h2.6V7.6l2.6,0.3c0,0.3-0.2,0.5-0.6,0.5v1.3
			h0.6l1-1.4c0,0,1.2,0.9,1.8,1.7c-0.1,0.2-0.3,0.3-0.6,0.3h-3.2V15c0,0.1-0.6,0.4-1.3,0.4h-0.3v-4.1c-0.1,0.1-0.3,0.2-0.5,0.2
			c-0.1,1-0.3,2.5-1.8,3.4l-0.3-0.3c0.6-1.1,0.6-2.5,0.6-3.8l1.9,0.2v-0.9H107V10c-0.1,0.1-0.2,0.1-0.4,0.1h-2.4v4.8
			c0,0.1-0.6,0.4-1.3,0.4h-0.3v-4.1C102.7,11.2,102.9,11.2,102.9,11.2z M110.6,18.6c6.2,1.7,4.4,6.1,2.2,4.5
			c-0.1-0.6-0.4-1.2-0.6-1.8c-2.5,0.5-6,1.1-10.1,1.8c-0.2,0.2-0.3,0.3-0.5,0.3l-0.7-2.3c0,0,0.6-0.1,0.8-0.2
			c1.6-0.5,3.5-1.5,5.2-2.5c-1.2,0.3-2.7,0.6-4.2,1c-0.2,0.2-0.3,0.3-0.5,0.3l-0.6-2.1c0,0,0.4-0.1,0.6-0.2c1.5-0.5,3.4-2.2,4.1-3.1
			l2.6,1.3c-0.1,0.2-0.4,0.3-0.8,0.3c-0.9,0.6-2.5,1.3-4,1.8c1.2,0,2.7-0.1,4.2-0.1c0.9-0.6,1.7-1.3,2.1-1.8l2.5,1.6
			c-0.1,0.2-0.5,0.3-0.9,0.2c-1.8,1.1-5.3,2.6-8.3,3.5c2.1,0,5.2-0.2,8.4-0.3C111.4,19.9,111,19.2,110.6,18.6L110.6,18.6z M106.6,11
			c0,0.3-0.2,0.5-0.5,0.5v1.4c0,0.2,0,0.2,0.1,0.2l0,0l0,0h0.2c0.1,0,0.2,0,0.3,0h0.3c0.4,0.2,0.5,0.2,0.5,0.6
			c0,0.5-0.5,0.7-1.3,0.7h-0.3c-0.8,0-0.9-0.3-0.9-1.1v-2.4L106.6,11z M114.7,13.4c0.4,0.1,0.5,0.2,0.5,0.5c0,0.6-0.5,0.7-1.7,0.7
			H113c-0.9,0-1.1-0.3-1.1-1.1v-2.7l1.8,0.2c0,0.3-0.3,0.4-0.6,0.5v1.8c0,0.2,0,0.3,0.2,0.3h0.3h0.2h0.2c0.1,0,0.2,0,0.3-0.1
			L114.7,13.4L114.7,13.4z"/>
	</g>
	<line class="st1" x1="120.6" y1="14.6" x2="158.3" y2="14.6"/>
</g>
<g>
	<g>
		<path class="st0" d="M164.8,39c-0.2,1.4-0.8,1.9-1.7,1.9c-0.5,0-1-0.2-1.3-0.7c0.2-2.7,2.4-4.2,5.4-4.2c3.5,0,5.3,1.5,5.3,3.8
			c0,1.7-0.9,2.8-3.1,4.2c-1.7,1-2.2,1.4-2.4,2.6l-0.1,1.3h-0.8c-0.1-0.7-0.3-1.6-0.3-2.2c0-1,0.5-1.6,1.9-2.8
			c1.3-1.1,1.9-1.9,1.9-3.3c0-1.9-1.3-2.8-3.3-2.8c-0.5,0-0.9,0-1.3,0.2L164.8,39z M168.4,51.4c0,0.9-0.8,1.7-1.8,1.7
			s-1.7-0.8-1.7-1.7c0-1,0.7-1.7,1.7-1.7S168.4,50.4,168.4,51.4z"/>
	</g>
	<g>
		<path class="st2" d="M31.8,43.8l1.7-2.4c0,0,1.9,1.6,3,2.7c-0.1,0.2-0.3,0.3-0.6,0.3H17.6l-0.2-0.7h14.4V43.8z"/>
		<path class="st2" d="M51.4,51.3c0.9,0.1,2,0.1,3.2,0.1s3.9,0,5.2,0v0.2c-0.8,0.2-1.2,1.1-1.2,2.1h-4.1c-4.7,0-7.3-0.9-8.8-4.6
			c-0.9,2-2.5,3.8-4.9,5L40.6,54c2.7-2.5,3.6-6.4,3.8-9.5l3.1,0.5c-0.1,0.3-0.3,0.5-0.8,0.5c-0.2,1-0.4,2-0.9,2.9
			c0.8,1.2,1.8,1.9,3.1,2.3v-8.3h-5.5l0-0.4H54l1.3-1.5c0,0,0.3,0.2,0.8,0.6c0.1-0.6,0.3-1.3,0.4-1.9H44c0.2,1.5-0.4,2.5-1.1,3
			c-0.7,0.4-1.8,0.2-2.1-0.7c-0.2-0.9,0.3-1.5,1-1.8c0.7-0.4,1.6-1.3,1.5-2.2h0.2c0.2,0.4,0.3,0.8,0.4,1.2h12.4l1.3-1.3l2.2,2.1
			c-0.2,0.2-0.4,0.2-0.8,0.2c-0.6,0.6-1.6,1.3-2.5,1.7c0.4,0.3,0.8,0.6,1.1,0.9c-0.1,0.2-0.3,0.3-0.5,0.3h-5.6v3.8H54l1.2-1.6
			c0,0,1.4,1.1,2.2,1.8c0,0.2-0.3,0.3-0.5,0.3h-5.5V51.3z M48.4,35.2c6,0.1,3.6,4.8,1.2,3c0-1-0.6-2.2-1.4-2.9L48.4,35.2z"/>
		<path class="st2" d="M80.8,45.1c0,0,1.5,1.1,2.4,1.9c-0.1,0.2-0.3,0.3-0.6,0.3h-4.3c-0.3,1.2-0.8,2.2-1.8,3.2
			C84.7,52,82,54.9,80,54c-1.3-0.8-3.1-1.5-5.3-2.3c-2,1-4.9,1.8-9.5,2.5l-0.1-0.3c3.6-0.9,5.9-1.7,7.5-2.7
			c-1.5-0.4-3.1-0.8-4.8-1.1c0.5-0.6,1.2-1.6,1.8-2.7h-5.4L64,46.8h6c0.6-1,1.1-1.9,1.5-2.6h-2.8v0.2c0,0.2-1,0.7-2,0.7h-0.3v-6.5
			l2.5,1h1.6v-2.4h-5.8l-0.2-0.6h14.7l1.3-1.7c0,0,1.5,1.1,2.4,1.9c-0.1,0.2-0.3,0.3-0.6,0.3h-5.5v2.4h1.6l1.1-1.2l2.3,1.7
			c-0.1,0.2-0.4,0.3-0.8,0.4v3.9c0,0.1-1.2,0.5-2,0.5h-0.4V44h-6.3l2.3,0.8c-0.1,0.2-0.3,0.4-0.9,0.3c-0.2,0.4-0.5,0.9-0.9,1.4h3.1
			c0.1-0.5,0.2-1.1,0.2-1.6l3.2,0.3c0,0.3-0.3,0.5-0.8,0.5c0,0.3-0.1,0.5-0.1,0.8h1.1L80.8,45.1z M68.7,43.6h1.7v-3.4h-1.7V43.6z
			 M72.4,47.3c-0.5,0.9-1.2,1.7-1.7,2.5c1.2,0.1,2.4,0.2,3.4,0.3c0.9-0.8,1.4-1.7,1.7-2.8H72.4z M72.7,39.6h1.9v-2.4h-1.9V39.6z
			 M74.6,43.6v-3.4h-1.9v3.4H74.6z M76.9,40.2v3.4h1.8v-3.4H76.9z"/>
		<path class="st2" d="M106.8,45.1c-0.1,0.2-0.4,0.3-0.8,0.4c-0.1,5.4-0.4,7.4-1.3,8.2c-0.6,0.5-1.4,0.6-2.5,0.6
			c0-0.5-0.1-0.8-0.3-1.1c-0.3-0.3-0.9-0.5-1.6-0.7v-0.3c0.7,0,1.7,0.1,2.1,0.1c0.3,0,0.5-0.1,0.7-0.2c0.5-0.4,0.7-2.6,0.8-7h-4.1
			l2,0.8c-0.1,0.2-0.2,0.3-0.7,0.3c-0.1,0.3-0.3,0.6-0.5,0.9c3.7,0.6,2.4,3.3,0.9,2.3c-0.2-0.6-0.7-1.3-1.2-1.9
			c-0.7,1-1.6,1.9-2.8,2.4l-0.2-0.2c1.1-1.2,1.8-3.1,2-4.6h-1.8c-0.5,0.5-1.1,1-1.8,1.5l2,0.2c0,0.2-0.2,0.4-0.6,0.5V50
			c0,0.2,0.1,0.3,0.6,0.3h1.6h1.4c0.2,0,0.4,0,0.5-0.1c0.2,0,0.4,0,0.5-0.1h0.3c0.6,0.2,0.8,0.4,0.8,0.8c0,0.8-0.8,1-3.7,1h-1.9
			c-1.8,0-2.1-0.4-2.1-1.6V47c-0.4,0.3-0.8,0.5-1.3,0.7v1.5c0,0.2-1,0.7-1.7,0.7h-0.3v-1.7h-1.6v2.2c0,0.2-0.8,0.7-1.7,0.7h-0.3
			V36.2l2.1,0.9h1.3l1-1.1l2.1,1.6c-0.1,0.2-0.4,0.3-0.8,0.4v9.3c1-1.1,2-2.6,2.7-4c-0.3,0.1-0.6,0.1-1,0.1h-0.4v-7.9l2.4,0.9h5.3
			l1.1-1.2l2.1,1.6c-0.1,0.2-0.3,0.3-0.8,0.4v5.4c0,0.1-0.7,0.5-1.9,0.5H103v-0.7h-5.5l2.5,0.9c-0.1,0.2-0.3,0.3-0.8,0.2
			c-0.3,0.3-0.6,0.7-1,1.1h5.5l1.2-1.1L106.8,45.1z M91.8,47.6v-10h-1.6v10H91.8z M97.3,37v2.2h5.6V37H97.3z M102.9,41.8v-2h-5.6v2
			H102.9z"/>
		<path class="st2" d="M112.9,48.5c0.8,2.1,0.7,3.7,0,4.6c-0.4,0.6-1.6,0.6-1.9-0.2c-0.3-0.6,0-1.2,0.6-1.6c0.5-0.5,1.1-1.7,1-2.7
			L112.9,48.5L112.9,48.5z M111,45.9c0,0,0.5-0.1,0.8-0.3c1-0.7,2.2-2.1,3.3-3.6c-0.7,0.3-1.6,0.6-2.5,0.9c-0.2,0.3-0.4,0.4-0.6,0.5
			l-1-2.5c0,0,0.4-0.1,0.6-0.2c1.1-1,2.5-4,3-5.6l2.8,1.4c-0.1,0.2-0.3,0.3-0.7,0.3c-0.9,1.3-2.6,3-4,4.1c0.9,0,2,0,3.1,0
			c0.5-0.8,1-1.6,1.2-2.3l2.5,1.7c-0.1,0.2-0.4,0.3-0.8,0.2c-1.2,1.5-3.6,3.7-5.8,5.1c1.3-0.1,3-0.2,4.8-0.3c-0.3-0.8-0.7-1.5-1-2
			l0.2-0.1c4.7,1.8,2.9,5.2,1.2,3.8c0-0.4-0.1-0.8-0.3-1.2c-1.2,0.5-3.2,1.3-5.4,2c-0.2,0.2-0.3,0.4-0.5,0.4L111,45.9z M114.8,48.2
			c3.6,2.6,1.2,5.7-0.2,3.9c0.2-1.3,0.1-2.8-0.1-3.8L114.8,48.2z M116.9,47.8c4.3,1.6,2.4,4.9,0.8,3.4c0-1.1-0.5-2.5-1-3.3
			L116.9,47.8z M127.9,50.7c0,0,1.5,1.2,2.3,2c-0.1,0.2-0.3,0.3-0.6,0.3H118l-0.2-0.6h4.5v-14h-3.6l-0.2-0.6h7.5l1.2-1.7
			c0,0,1.4,1.2,2.3,2c0,0.2-0.2,0.3-0.5,0.3h-4.2v14h1.7L127.9,50.7z"/>
		<path class="st2" d="M145.8,40c-0.1,0.3-0.3,0.4-1,0.5c1.9,1.9,5.6,2.8,8.6,3.2V44c-1,0.3-1.6,1.4-1.7,2.3
			c-3.3-1.1-5.9-2.9-7.2-5.6c-1.8,2.6-5.9,5.1-10.1,6.2l-0.1-0.2c3.6-1.6,7.2-5,8-7.5L145.8,40z M134.5,37.7h3.5l-0.3-2.5l3,0.2
			c0,0.2-0.2,0.4-0.6,0.6l0.2,1.8h0.7l1.1-1.5c0,0,1.3,1.1,2,1.8c0,0.2-0.3,0.3-0.5,0.3h-3.2l0.3,2c-0.3,0.4-1.2,0.6-2.3,0.6
			l-0.3-2.6h-3.4L134.5,37.7z M135,53.4c1.8-1.5,3.4-3.9,4.1-5.7l2.7,1.4c-0.1,0.2-0.3,0.3-0.8,0.2c-1.2,1.6-3.4,3.4-5.9,4.3
			L135,53.4z M145.1,47.1v6.6c0,0.2-1.1,0.7-2,0.7h-0.5v-7.2h-4.8l-0.2-0.6h5v-3.1l3.2,0.3c0,0.2-0.2,0.4-0.7,0.5v2.3h1.5l1.2-1.5
			c0,0,1.3,1.1,2.2,1.8c-0.1,0.2-0.3,0.3-0.5,0.3L145.1,47.1L145.1,47.1z M144.3,37.7h2.4l0.4-2.6l2.9,0.5c-0.1,0.2-0.2,0.4-0.8,0.5
			l-0.2,1.5h1l1.1-1.5c0,0,1.3,1.1,2,1.8c0,0.2-0.3,0.3-0.5,0.3H149l-0.3,2c-0.4,0.3-1.3,0.5-2.3,0.3l0.3-2.3h-2.2L144.3,37.7z
			 M146.3,48.2c7.3,1.3,5.9,6.3,3.4,4.8c-0.7-1.6-2.2-3.5-3.6-4.7L146.3,48.2z"/>
	</g>
</g>
</svg>
