<?xml version="1.0" encoding="utf-8"?>
<!-- Generator: Adobe Illustrator 24.0.1, SVG Export Plug-In . SVG Version: 6.00 Build 0)  -->
<svg version="1.1" id="圖層_1" xmlns="http://www.w3.org/2000/svg" xmlns:xlink="http://www.w3.org/1999/xlink" x="0px" y="0px"
	 viewBox="0 0 89.1 327.8" style="enable-background:new 0 0 89.1 327.8;" xml:space="preserve">
<style type="text/css">
	.st0{fill:#333333;}
	.st1{fill:none;stroke:#323333;stroke-width:1.5;stroke-miterlimit:10;}
</style>
<g>
	<g>
		<g>
			<path class="st0" d="M22.2,47.1c0.7,0,1.4,0,2.1,0c2.7,0,9.2,0,12-0.1v0.4c-1.3,0.3-1.9,1.7-1.9,3.3H24.2c-6.3,0-9.8-1.4-11.8-7
				c-1.8,3-4.7,5.8-9.5,7.6L2.7,51c5-3.7,6.8-9.3,7.3-13.8l5.8,1.1c-0.1,0.5-0.5,0.8-1.3,0.8c-0.4,1.3-0.8,2.6-1.5,3.9
				c1.2,2,2.8,3,4.9,3.6v-11H3.4l-0.3-1H30l2.3-3c0,0,2.5,2.1,4,3.4c-0.1,0.4-0.5,0.6-1,0.6H22.2v4.9h4.3l2.4-3.2
				c0,0,2.7,2.2,4.3,3.6c-0.1,0.4-0.5,0.6-1,0.6h-10V47.1z M13.4,32.3c0,0.4-1.9,1.4-3.8,1.4H9V18.8l4.6,1.8h12.1l2-2.2l4.2,3.2
				c-0.2,0.3-0.7,0.6-1.4,0.8v9.7c0,0.2-2.3,1-3.7,1h-0.7v-1.8H13.4V32.3z M13.4,21.6v3.8h12.7v-3.8H13.4z M26.1,30.2v-3.8H13.4v3.8
				H26.1z"/>
			<path class="st0" d="M23.8,63.4c-0.8,2.1-1.9,4.1-3.2,6.1l2.2,0.8c-0.1,0.3-0.4,0.6-1.1,0.7v20.3c0,0.2-1.9,0.9-3.5,0.9h-0.8
				V73.8c-3.8,4.7-8.7,8.9-14.3,11.8l-0.3-0.3C10,79.6,16,70.8,18.2,63.4H3.6l-0.3-1h25.5l2.5-3.3c0,0,2.9,2.2,4.6,3.7
				c-0.1,0.4-0.5,0.6-1,0.6H23.8z M23.1,72.3c16,3.5,14.3,13,9.5,10.7c-1.9-3.6-6.3-7.8-9.8-10.4L23.1,72.3z"/>
			<path class="st0" d="M36.8,107.5c-0.2,0.3-0.6,0.4-1.3,0.4c-1.1,1.1-2.9,2.7-4.3,3.5l-0.4-0.2c0.2-1.1,0.5-2.8,0.6-4.1h-9.8v8
				c0,0.2-1.2,0.8-3.4,0.8h-0.7v-8.8H7.8c0.2,2.3-0.7,4-1.9,4.6c-1.2,0.5-2.6,0.2-3-1.1c-0.3-1.2,0.5-2.1,1.5-2.5
				c1.2-0.6,2.2-2.1,2-3.8h0.5c0.3,0.7,0.5,1.3,0.6,1.9h9.8v-2.9H7l-0.3-1h20.1l2.2-2.7c0,0,2.4,1.8,3.9,3.1c-0.1,0.4-0.4,0.6-1,0.6
				H21.5v2.9h9.6l2.1-2.1L36.8,107.5z M31.8,114.6c0,0,2.2,1.6,3.6,2.8c-0.1,0.4-0.5,0.6-1,0.6H21.2c-1,1.1-2.1,2.2-3.2,3.2h10.3
				l1.7-2l4,2.8c-0.2,0.3-0.7,0.6-1.4,0.7v5.8c0,2.5-0.5,3.8-4.5,4.2c-0.1-1.1-0.1-2-0.5-2.5c-0.3-0.5-0.7-0.9-1.9-1.1v-0.5
				c0,0,1.8,0.1,2.4,0.1c0.5,0,0.6-0.2,0.6-0.6V122h-3.4v7.5c0,0.2-1.2,0.8-3,0.8h-0.7V122h-3.4v8.5c0,0.1-1.2,0.7-3,0.7h-0.7V122
				H11v9.5c0,0.4-1.7,1.2-3.3,1.2H7.1v-13.3l4.1,1.6h4.7c0.2-1,0.5-2.2,0.6-3.2H5l-0.3-1h25.2L31.8,114.6z M7.7,113.1
				c1.6-0.1,5.3-0.5,9-1l0.1,0.5c-1.5,0.8-3.6,2-6.7,3.5c-0.2,0.5-0.5,0.7-0.9,0.8L7.7,113.1z M8.4,108.7c8.2-2.2,9,3.3,6,3.2
				c-1.4-1-4.2-2.2-6.2-2.7L8.4,108.7z M22.3,112.3c8.9-1.9,9.4,3.7,6.3,3.6c-1.5-1.1-4.4-2.5-6.5-3.1L22.3,112.3z M22.4,110.9
				c1.8-1,4.6-2.9,5.7-3.8l2.4,3.4c-0.2,0.2-0.6,0.1-1.1-0.1c-1.3,0.3-4.5,0.8-6.9,1L22.4,110.9z"/>
			<path class="st0" d="M32.2,157.8c0,0,2.5,1.9,4.1,3.3c-0.1,0.4-0.5,0.6-1,0.6h-7.5c-0.6,2.1-1.4,3.9-3.2,5.5
				c14.3,2.7,9.7,7.7,6.1,6.2c-2.2-1.3-5.4-2.7-9.3-4c-3.4,1.7-8.5,3.2-16.5,4.3L4.8,173c6.2-1.5,10.3-3,13.1-4.7
				c-2.6-0.7-5.4-1.3-8.4-1.9c0.9-1.1,2.1-2.9,3.2-4.7H3.3l-0.3-1h10.3c1-1.7,2-3.4,2.5-4.5H11v0.4c0,0.4-1.8,1.2-3.5,1.2H7v-11.3
				l4.4,1.7h2.7V144H4l-0.3-1h25.7l2.3-2.9c0,0,2.6,2,4.2,3.4c-0.1,0.4-0.5,0.6-1,0.6h-9.6v4.2h2.8l1.9-2.1l4,3
				c-0.2,0.3-0.7,0.6-1.5,0.7v6.7c0,0.2-2.1,0.9-3.4,0.9h-0.7v-1.3h-11l4,1.4c-0.1,0.4-0.5,0.7-1.6,0.6c-0.4,0.7-0.9,1.6-1.5,2.5
				h5.4c0.2-0.9,0.3-1.8,0.4-2.8l5.6,0.5c-0.1,0.5-0.5,0.9-1.3,1c-0.1,0.5-0.2,0.9-0.2,1.4h1.9L32.2,157.8z M11,155.1h3v-6h-3V155.1
				z M17.5,161.7c-1,1.5-2,3-3,4.3c2.2,0.1,4.1,0.3,5.8,0.5c1.6-1.5,2.5-3,3-4.8H17.5z M18,148.1h3.3v-4.2H18V148.1z M21.4,155.1v-6
				H18v6H21.4z M25.4,149.2v6h3.1v-6H25.4z"/>
			<path class="st0" d="M33,208.9c0,0,2.5,2.2,4,3.6c-0.1,0.4-0.5,0.6-1,0.6H12.6l-0.3-1H23v-6.3h-7.3l-0.3-1h7.5v-5.6h-3.3v1
				c0,0.4-1.7,1.3-3.4,1.3h-0.6v-6.2c-0.1,0.2-0.4,0.4-0.8,0.4h-4v8.7c1.6-0.5,3.2-1,4.9-1.5l0.1,0.4c-2.2,1.7-5.7,4-10.6,7
				c-0.1,0.5-0.5,0.8-0.9,1l-1.9-4.6c0.9-0.2,2.4-0.6,4.3-1.1v-9.9H3.3l-0.3-1h3.8v-8.8H3.2l-0.3-1h7.6l2.1-2.9c0,0,1.7,1.4,3,2.7
				v-2.4l4.2,1.7h10.3l1.9-2.1l3.9,3.1c-0.2,0.3-0.7,0.6-1.4,0.7v13.9c0,0.3-1.9,1.2-3.4,1.2h-0.7v-1.6h-3.5v5.6h2.6l2.1-2.9
				c0,0,2.3,2,3.7,3.4c-0.1,0.4-0.5,0.6-1,0.6h-7.5v6.3h3.7L33,208.9z M12.8,191.8c0,0,1.9,1.8,2.9,3.1v-9.1h-0.2h-4.6v8.8H11
				L12.8,191.8z M19.7,184.9v6.1H23v-6.1H19.7z M23.1,198.1V192h-3.3v6.1H23.1z M27.1,184.9v6.1h3.5v-6.1H27.1z M30.6,198.1V192
				h-3.5v6.1H30.6z"/>
			<path class="st0" d="M35.1,231.2c-0.3,0.4-0.9,0.7-1.8,0.9v21.5c-0.1,0.3-2.1,1.2-3.6,1.2h-0.6v-3h-19v1.8c0,0.5-1.7,1.5-3.5,1.5
				H6v-26.7l4.5,1.8h6.9v-8l5.6,0.5c-0.1,0.5-0.4,0.8-1.3,1v6.5h7l2.1-2.4L35.1,231.2z M10.1,231.2v9h7.3v-9H10.1z M10.1,250.8h7.3
				v-9.6h-7.3C10.1,241.2,10.1,250.8,10.1,250.8z M21.6,231.2v9h7.5v-9H21.6z M29.1,250.8v-9.6h-7.5v9.6H29.1z"/>
			<path class="st0" d="M19.1,270.3c-0.2,0.3-0.8,0.6-1.5,0.7v21.1c0,0.3-1.9,1.2-3.3,1.2h-0.6v-2.8H8.4v2.6c0,0.5-1.5,1.3-3.2,1.3
				H4.5v-26.8l4,1.7h0.2c0.2-1.9,0.6-4.7,0.7-6.7l5.7,1.4c-0.1,0.6-0.6,0.8-1.5,0.8c-0.9,1.2-2.3,3.1-3.4,4.5h3.1l1.9-2.1
				L19.1,270.3z M8.4,270.4v8.8h5.4v-8.8H8.4z M13.8,289.6v-9.3H8.4v9.3H13.8z M36.4,270.3c-0.3,0.3-0.7,0.6-1.6,0.7
				c-0.2,14.3-0.7,20.8-2.7,22.8c-1.3,1.3-2.8,1.9-5.2,1.9c0-1.3-0.2-2.3-0.8-2.9c-0.6-0.7-2-1.2-3.8-1.6v-0.5
				c1.7,0.1,4.1,0.3,5.1,0.3c0.6,0,1-0.1,1.3-0.5c1.3-1.2,1.7-8.3,1.9-20.3H24c-1.7,3-3.7,5.5-6,7.4l-0.5-0.3
				c1.9-3.6,3.9-9.4,4.8-14.8l5.6,1.6c-0.1,0.5-0.6,0.7-1.4,0.7c-0.6,1.5-1.2,2.9-2,4.3h5.6l2.2-2.3L36.4,270.3z M20.8,276.5
				c10.3,3,6.5,10.7,2.7,7.5c-0.2-2.5-1.6-5.4-3-7.3L20.8,276.5z"/>
		</g>
		<path class="st0" d="M29.5,309.9c0-2.1,1.7-3.8,3.8-3.8s3.8,1.7,3.8,3.8c0,2.1-1.7,3.8-3.8,3.8C31.2,313.7,29.5,311.9,29.5,309.9z
			 M30.4,309.9c0,1.5,1.3,2.8,2.8,2.8c1.5,0,2.8-1.3,2.8-2.8s-1.3-2.8-2.8-2.8S30.4,308.3,30.4,309.9z"/>
	</g>
	<g>
		<g>
			<path class="st0" d="M64.1,24c0,0.4-1.7,1.2-3.2,1.2h-0.7v-7.5c-1.7,2.4-3.8,4.5-6.3,6.2l-0.4-0.4c2.7-3.3,4.6-8.1,5.6-12.7h-4.8
				l-0.3-1h6.2V3.7l5.2,0.5C65.2,4.7,65,5,64.1,5.1v4.7h0.7L66.7,7c0,0,2.2,1.9,3.5,3.3c-0.1,0.4-0.5,0.6-1,0.6H64v2.7
				c8.5,2,5.2,8.4,1.9,5.8c-0.1-1.7-1-3.4-1.9-4.8V24H64.1z M58.8,26.2c1.9,4.5,0.6,7.6-1.1,8.7c-1.2,0.7-2.9,0.4-3.4-0.9
				c-0.4-1.3,0.4-2.3,1.5-2.9c1.3-0.7,2.7-2.7,2.6-4.9H58.8z M79,31.9c1.3,0.4,1.6,0.9,1.6,1.6c0,1.8-1.7,2.3-8.8,2.3h-4.6
				c-4.1,0-5-0.6-5-3.4v-6.9l5.3,0.4c0,0.5-0.4,0.8-1.1,0.9v4.9c0,0.5,0.1,0.6,1.5,0.6h4.4c1.5,0,2.9,0,3.5,0s0.8-0.1,1.1-0.5
				c0.4-0.6,1-1.8,1.7-3.8H79V31.9z M68.8,24.5c9.4,2.1,5.8,9,2.3,6.2c-0.2-2.1-1.4-4.4-2.7-5.9L68.8,24.5z M74.4,23.5
				c0,0.4-1.7,1.3-3.4,1.3h-0.6V5l4.1,1.7h5.7l1.9-2.2l4,3.1c-0.2,0.3-0.7,0.6-1.5,0.8v15.2c0,0.3-2.1,1.1-3.4,1.1h-0.7v-2.3h-6.2
				L74.4,23.5L74.4,23.5z M74.4,7.7v3.9h6.2V7.7H74.4z M80.6,16.4v-3.9h-6.2v3.9H80.6z M80.6,21.4v-4h-6.2v4H80.6z M79.3,25.9
				c10.6,3,6.9,11,3.1,7.9c-0.1-2.7-1.7-5.7-3.4-7.6L79.3,25.9z"/>
			<path class="st0" d="M87.3,62c-0.2,0.3-0.7,0.5-1.5,0.6c-0.2,9.4-0.6,12.8-2.2,14.2c-1.1,1-2.5,1.1-4.4,1.1c0-0.9-0.1-1.5-0.5-2
				c-0.5-0.5-1.5-0.9-2.8-1.1v-0.5c1.2,0.1,3,0.2,3.6,0.2s0.8-0.1,1.1-0.4c0.8-0.7,1.1-4.6,1.3-12.2H75l3.5,1.4
				c-0.1,0.4-0.4,0.6-1.3,0.6c-0.2,0.5-0.5,1-0.9,1.5c6.4,1.1,4.1,5.7,1.5,4c-0.3-1.1-1.2-2.3-2-3.3c-1.2,1.7-2.8,3.2-4.8,4.2
				L70.7,70c1.9-2.1,3.1-5.3,3.5-8H71c-0.9,0.9-2,1.8-3.1,2.5l3.5,0.3c-0.1,0.4-0.4,0.7-1.1,0.9v4.6c0,0.4,0.1,0.5,1.1,0.5h2.8h2.5
				c0.3,0,0.7-0.1,0.9-0.1c0.3,0,0.7-0.1,0.9-0.1H79c1,0.4,1.3,0.7,1.3,1.3c0,1.4-1.3,1.8-6.5,1.8h-3.3c-3.1,0-3.6-0.7-3.6-2.8v-5.7
				c-0.7,0.5-1.5,0.9-2.2,1.3v2.6c0,0.3-1.7,1.2-3,1.2h-0.6v-3h-2.8v3.8c0,0.4-1.3,1.3-2.9,1.3h-0.6v-26l3.7,1.6h2.3l1.8-2l3.6,2.9
				c-0.2,0.3-0.7,0.6-1.5,0.7v16.1c1.7-1.8,3.5-4.5,4.6-7c-0.5,0.1-1.1,0.2-1.8,0.2H67V45.2l4.2,1.6h9.2l1.8-2.1l3.6,2.7
				c-0.2,0.3-0.6,0.5-1.3,0.7v9.5c0,0.2-1.3,0.9-3.3,0.9h-0.7v-1.3h-9.6l4.4,1.6c-0.2,0.4-0.5,0.5-1.4,0.4c-0.5,0.6-1.1,1.3-1.8,1.9
				h9.6l2-2L87.3,62z M61.2,66.3V48.9h-2.8v17.4H61.2z M70.8,47.8v3.8h9.7v-3.8H70.8z M80.5,56.1v-3.5h-9.7v3.5H80.5z"/>
			<path class="st0" d="M57.2,108.6c1.4,3.7,1.1,6.5,0.1,7.9c-0.8,1-2.7,1-3.4-0.3c-0.5-1.1,0-2.2,1-2.9c0.9-0.8,2-3,1.8-4.8h0.5
				V108.6z M54,104c0,0,0.9-0.2,1.3-0.5c1.7-1.2,3.9-3.7,5.7-6.2c-1.3,0.5-2.8,1.1-4.4,1.6c-0.3,0.5-0.6,0.8-1,0.9l-1.8-4.4
				c0,0,0.8-0.2,1.1-0.4c1.9-1.8,4.4-7,5.2-9.8l4.9,2.5c-0.1,0.3-0.5,0.6-1.2,0.5c-1.6,2.2-4.5,5.2-7,7.2c1.5,0,3.4,0,5.5,0
				c0.9-1.4,1.7-2.8,2.2-3.9l4.4,3c-0.2,0.3-0.7,0.5-1.4,0.4c-2.1,2.7-6.3,6.4-10,9c2.2-0.1,5.2-0.3,8.3-0.6
				c-0.5-1.3-1.1-2.6-1.8-3.5l0.4-0.2c8.1,3.2,5,9.1,2.1,6.6c-0.1-0.7-0.2-1.4-0.5-2.1c-2.2,0.9-5.6,2.2-9.4,3.5
				c-0.3,0.4-0.6,0.6-1,0.8L54,104z M60.5,108.1c6.2,4.6,2.1,9.9-0.3,6.8c0.4-2.2,0.2-4.8-0.1-6.7L60.5,108.1z M64.3,107.4
				c7.5,2.8,4.1,8.5,1.3,6c0-1.9-0.8-4.3-1.7-5.8L64.3,107.4z M83.3,112.4c0,0,2.5,2.1,4.1,3.5c-0.1,0.4-0.5,0.6-1,0.6H66.2l-0.3-1
				h7.9V91h-6.3l-0.3-1h13.1l2.2-3c0,0,2.5,2,3.9,3.4c-0.1,0.4-0.4,0.6-1,0.6H78v24.4h3L83.3,112.4z"/>
			<path class="st0" d="M73.8,134.4c-0.1,0.5-0.6,0.7-1.7,0.8c3.2,3.3,9.7,5,14.9,5.6v0.6c-1.7,0.6-2.8,2.4-3,4
				c-5.7-1.8-10.3-5.1-12.5-9.7c-3.2,4.5-10.3,8.9-17.6,10.8l-0.2-0.4c6.3-2.9,12.5-8.7,13.9-13L73.8,134.4z M54.1,130.5h6.1
				l-0.5-4.4l5.2,0.3c0,0.4-0.3,0.8-1,1l0.4,3.1h1.2l1.9-2.7c0,0,2.2,1.9,3.5,3.1c-0.1,0.4-0.5,0.6-1,0.6h-5.5l0.5,3.5
				c-0.6,0.8-2.1,1.1-3.9,1.1l-0.5-4.5h-5.9L54.1,130.5z M54.9,157.8c3.2-2.6,5.9-6.8,7.1-10l4.8,2.4c-0.2,0.4-0.5,0.6-1.3,0.4
				c-2.1,2.8-5.8,5.8-10.3,7.5L54.9,157.8z M72.5,146.8v11.5c0,0.3-1.9,1.1-3.5,1.1h-0.8v-12.6h-8.4l-0.3-1h8.6v-5.5l5.5,0.5
				c-0.1,0.4-0.3,0.8-1.2,0.9v4.1h2.7l2.1-2.7c0,0,2.3,1.8,3.8,3.2c-0.1,0.4-0.5,0.6-1,0.6h-7.5V146.8z M71.2,130.5h4.2l0.7-4.5
				l5.1,0.9c-0.1,0.4-0.4,0.8-1.3,0.9l-0.4,2.7h1.7l1.9-2.7c0,0,2.2,1.9,3.4,3.1c-0.1,0.4-0.5,0.6-0.9,0.6h-6.3l-0.5,3.5
				c-0.7,0.6-2.3,0.8-4,0.5l0.6-3.9h-3.8L71.2,130.5z M74.6,148.9c12.6,2.3,10.2,10.9,5.9,8.4c-1.1-2.9-3.9-6.1-6.2-8.1L74.6,148.9z
				"/>
		</g>
		<line class="st1" x1="70.4" y1="254" x2="70.4" y2="171.7"/>
	</g>
</g>
</svg>
