<?xml version="1.0" encoding="utf-8"?>
<!-- Generator: Adobe Illustrator 24.0.1, SVG Export Plug-In . SVG Version: 6.00 Build 0)  -->
<svg version="1.1" id="圖層_1" xmlns="http://www.w3.org/2000/svg" xmlns:xlink="http://www.w3.org/1999/xlink" x="0px" y="0px"
	 viewBox="0 0 88.9 307.2" style="enable-background:new 0 0 88.9 307.2;" xml:space="preserve">
<style type="text/css">
	.st0{fill:#333333;}
	.st1{fill:none;stroke:#333333;stroke-miterlimit:10;}
</style>
<g>
	<g>
		<path class="st0" d="M86,22.4c-0.3,0.2-0.7,0.5-1.4,0.5c-0.5,6-1.5,9.2-3.3,10.4c-1.1,0.8-2.5,1.1-4.1,1.1c0-1.1-0.1-2-0.6-2.5
			c-0.5-0.5-1.4-1-2.6-1.2v-0.5c1.1,0.1,3,0.2,3.7,0.2c0.5,0,0.8-0.1,1.2-0.3c0.8-0.7,1.6-3.3,2-7.8H60.8c-2.1,2.1-4.6,4-7.4,5.6
			l-0.3-0.3c5.3-4.3,9.2-10.5,11.7-16.7h-8.9l-0.3-1h9.6c1.1-2.7,1.9-5.4,2.5-7.9l5.2,1.6c-0.1,0.4-0.4,0.7-1.4,0.7
			C70.9,6.1,70.2,8,69.3,10h4.9l1.5-1.6l3.4,2.5c-0.3,0.3-0.6,0.4-1.2,0.5l-1,4.2h0.5l1.4-1.6l3.3,2.5c-0.3,0.3-0.5,0.4-1.2,0.5
			l-0.8,4.3h0.5l1.9-1.8L86,22.4z M60,24.5c1.9,4.5,0.5,7.6-1.3,8.6c-1.2,0.7-2.8,0.4-3.3-0.9c-0.4-1.2,0.3-2.1,1.4-2.7
			c1.4-0.7,2.9-2.7,2.7-5L60,24.5z M58.2,2.6c9.5,1.5,6.1,8.6,2.4,5.9c-0.2-2-1.5-4.2-2.7-5.7L58.2,2.6z M65.6,16.6
			c-1.1,1.6-2.4,3.3-3.8,4.8h14.9l0.9-4.8C77.6,16.6,65.6,16.6,65.6,16.6z M63.7,24.5c6.6,4.6,1.9,10.2-0.6,6.7
			c0.6-2.2,0.6-4.7,0.2-6.6L63.7,24.5z M68.8,11c-0.8,1.6-1.6,3.1-2.6,4.7h7l1.1-4.7H68.8z M68,24.2c8,2.4,4.6,8.4,1.5,5.8
			c0-1.9-0.9-4.1-1.9-5.6L68,24.2z M72.7,23.5c8.1,0.3,5.8,6.4,2.6,4.5c-0.3-1.5-1.6-3.3-2.8-4.3L72.7,23.5z"/>
		<path class="st0" d="M66.3,43.4c-0.1,0.4-0.6,0.8-1.4,0.7c-1,2.6-2.3,5-3.6,7.1l1.7,0.7c-0.1,0.3-0.4,0.5-1.1,0.7v20.1
			c-0.1,0.3-1.7,1.2-3.3,1.2H58v-18c-1.4,1.5-2.9,2.9-4.5,4l-0.4-0.3c3-4.2,6-11.1,7.5-17.9L66.3,43.4z M81.8,50.9
			c0,0,2.6,2.1,4.1,3.5c-0.1,0.4-0.5,0.5-1,0.5h-8.6V72c0,0.4-1.8,1.4-3.4,1.4h-0.8V55h-7.9l-0.3-1h8.2V42.2l5.5,0.5
			c-0.1,0.5-0.3,0.9-1.2,1V54h3.2L81.8,50.9z"/>
		<path class="st0" d="M82,82.2c0,0,2.3,1.9,3.7,3.2c-0.1,0.4-0.4,0.5-1,0.5H59.5v8.3c0,5.9-0.3,13.7-6.1,18.9l-0.4-0.3
			c2.8-5.4,2.9-12.4,2.9-18.6V83.4l4.2,1.5h10.1c-0.2-0.1-0.4-0.1-0.6-0.3c-0.2-1.3-1.1-2.8-1.9-3.5l0.3-0.2c5.9-0.2,5.5,3.3,3.6,4
			H80L82,82.2z M63.9,92.4c-0.1,0.2-0.4,0.4-0.9,0.4c-0.2,1.8-0.5,4.2-3.1,5.9l-0.5-0.4c1.1-2,1.1-4.3,1.1-6.5l3.4,0.3v-1.5H60
			l-0.3-1h3.8v-3.4l4.5,0.4c-0.1,0.5-0.3,0.7-1.1,0.9v2.1h0.3l1.5-2c0,0,1.3,1.1,2.4,2h4.4v-3.4l4.4,0.4c-0.1,0.5-0.3,0.7-1.1,0.9
			v2.1h1.1l1.7-2.4c0,0,2,1.6,3.2,2.8c-0.1,0.4-0.4,0.5-0.9,0.5h-5.5v8.2c0,0.2-1,0.7-2.2,0.7h-0.4v-6.9c-0.2,0.1-0.4,0.3-0.8,0.3
			c-0.2,1.8-0.5,4.2-3.2,5.9l-0.5-0.5c1.1-2,1.1-4.3,1.1-6.5l3.3,0.3v-1.4h-4.5l-0.1-0.2c-0.1,0.1-0.3,0.2-0.6,0.2h-4.1v8.2
			c0,0.2-1.1,0.7-2.2,0.7h-0.4L63.9,92.4L63.9,92.4z M77.2,104.9c10.5,2.9,7.5,10.3,3.7,7.7c-0.2-1-0.7-2.1-1.2-3.1
			c-4.2,0.8-10.2,1.9-17.2,2.9c-0.3,0.3-0.5,0.5-0.8,0.5l-1.2-4c0,0,0.9-0.1,1.4-0.3c2.7-0.8,6-2.5,8.8-4.3
			c-2.1,0.5-4.6,1.2-7.3,1.7c-0.2,0.2-0.5,0.4-0.7,0.5l-1.2-3.6c0,0,0.6-0.1,0.9-0.2c2.5-0.9,5.8-3.8,6.9-5.3l4.4,2.2
			c-0.2,0.3-0.6,0.5-1.4,0.4c-1.6,1-4.2,2.2-6.7,3c2.1,0,4.6-0.1,7.2-0.2c1.5-1.1,2.8-2.1,3.6-2.9l4.3,2.7c-0.2,0.3-0.7,0.5-1.5,0.3
			c-3.1,1.9-8.9,4.4-14.2,6c3.7-0.1,8.8-0.3,14.2-0.5c-0.8-1.3-1.6-2.5-2.4-3.5L77.2,104.9z M70.4,92c0,0.4-0.4,0.7-0.9,0.8v2.3
			c0,0.3,0.1,0.4,0.1,0.4h-0.1h-0.1c0.1,0,0.2,0,0.3,0c0.1,0,0.3,0,0.4-0.1h0.4c0.6,0.2,0.9,0.4,0.9,0.9c0,0.9-0.7,1.2-2.3,1.2h-0.4
			c-1.4,0-1.5-0.5-1.5-1.8v-4L70.4,92z M84,96c0.6,0.2,0.9,0.4,0.9,0.8c0,0.9-0.8,1.3-2.8,1.3h-0.9c-1.6,0-1.8-0.5-1.8-1.9v-4.6
			l3.2,0.4c-0.1,0.4-0.4,0.7-0.9,0.8v2.9c0,0.3,0.1,0.4,0.3,0.4h0.4h0.4h0.4c0.1,0,0.4-0.1,0.5-0.1L84,96L84,96z"/>
	</g>
	<line class="st1" x1="69.5" y1="209.2" x2="69.5" y2="126.8"/>
</g>
<g>
	<path class="st0" d="M18.7,284.1c-0.4,2.2-1.2,2.9-2.6,2.9c-0.9,0-1.6-0.4-2.1-1.1c0.2-4.2,3.8-6.5,8.5-6.5c5.5,0,8.3,2.4,8.3,6
		c0,2.7-1.3,4.5-4.8,6.6c-2.7,1.6-3.5,2.3-3.7,4.1l-0.2,2.1h-1.2c-0.2-1.1-0.4-2.6-0.4-3.5c0-1.6,0.9-2.5,3-4.4c2.1-1.7,3-3,3-5.2
		c0-2.9-2.1-4.4-5.1-4.4c-0.8,0-1.4,0.1-2.1,0.3L18.7,284.1z M24.3,303.5c0,1.5-1.2,2.7-2.8,2.7s-2.7-1.2-2.7-2.7s1.2-2.7,2.7-2.7
		S24.3,302,24.3,303.5z"/>
	<path class="st0" d="M31.9,56.1l2.9-4c0,0,3.2,2.8,5.1,4.6c-0.1,0.4-0.5,0.6-1.1,0.6H7.7l-0.3-1.1H31.9z"/>
	<path class="st0" d="M25.5,103.9c1.6,0.1,3.4,0.2,5.4,0.2c2,0,6.7,0,8.9,0v0.4c-1.4,0.3-2.1,1.8-2.1,3.5h-7
		c-8.1,0-12.5-1.5-15.1-7.9c-1.6,3.3-4.2,6.4-8.3,8.6L7,108.5c4.6-4.3,6.2-10.9,6.5-16.2l5.4,0.9c-0.1,0.5-0.5,0.8-1.3,0.9
		c-0.3,1.6-0.8,3.3-1.5,5c1.3,2,3,3.3,5.3,4V88.9H12l-0.3-1h18.2l2.2-2.6c0,0,0.6,0.4,1.4,1c0.2-1,0.5-2.3,0.7-3.3H12.8
		c0.3,2.5-0.6,4.3-1.9,5.1c-1.2,0.7-3.1,0.3-3.6-1.3c-0.4-1.5,0.5-2.5,1.7-3.1c1.2-0.6,2.7-2.2,2.6-3.8H12c0.3,0.7,0.5,1.4,0.6,2.1
		h21.3l2.2-2.2l3.8,3.6c-0.3,0.3-0.7,0.4-1.4,0.4c-1,1-2.8,2.2-4.3,3c0.6,0.5,1.3,1,1.8,1.5c-0.1,0.4-0.5,0.6-0.9,0.6h-9.6v6.5H30
		l2.1-2.7c0,0,2.4,1.9,3.8,3.2c-0.1,0.4-0.5,0.6-0.9,0.6h-9.5V103.9z M20.4,76.2c10.2,0.1,6.2,8.1,2.1,5.1c0-1.8-1-3.8-2.3-4.9
		L20.4,76.2z"/>
	<path class="st0" d="M35.8,133.3c0,0,2.5,1.8,4.1,3.2c-0.1,0.4-0.5,0.6-1,0.6h-7.4c-0.6,2-1.4,3.8-3.1,5.4c14,2.6,9.5,7.6,6,6.1
		c-2.2-1.3-5.3-2.6-9.1-3.9c-3.3,1.7-8.4,3.1-16.2,4.2l-0.2-0.6c6.1-1.5,10.1-3,12.9-4.7c-2.5-0.7-5.3-1.3-8.3-1.9
		c0.9-1.1,2.1-2.8,3.1-4.6H7.5l-0.3-1h10.1c1-1.7,1.9-3.3,2.5-4.4H15v0.3c0,0.3-1.8,1.2-3.4,1.2H11v-11.1l4.3,1.7H18v-4.2H8.1
		l-0.3-1h25.2l2.3-2.9c0,0,2.6,1.9,4.2,3.3c-0.1,0.4-0.5,0.6-1,0.6h-9.5v4.2h2.7l1.9-2l3.9,3c-0.2,0.3-0.7,0.6-1.4,0.7v6.6
		c0,0.2-2.1,0.9-3.3,0.9h-0.7v-1.3H21.3l3.9,1.4c-0.1,0.4-0.5,0.7-1.6,0.6c-0.4,0.7-0.9,1.5-1.5,2.4h5.3c0.2-0.9,0.3-1.8,0.3-2.8
		l5.5,0.5c-0.1,0.5-0.5,0.8-1.3,0.9c-0.1,0.5-0.2,0.9-0.2,1.4h1.8L35.8,133.3z M15,130.7h3v-5.9h-3V130.7z M21.4,137.1
		c-0.9,1.5-2,3-2.9,4.2c2.1,0.1,4,0.3,5.7,0.5c1.6-1.4,2.5-3,3-4.7H21.4z M21.9,123.8h3.3v-4.2h-3.3V123.8z M25.2,130.7v-5.9h-3.3
		v5.9H25.2z M29.1,124.8v5.9h3.1v-5.9H29.1z"/>
	<path class="st0" d="M40.2,173.3c-0.2,0.3-0.7,0.5-1.4,0.6c-0.2,9.3-0.6,12.6-2.2,14c-1,0.9-2.5,1.1-4.3,1.1c0-0.9-0.1-1.4-0.5-1.9
		c-0.5-0.5-1.5-0.8-2.7-1.1v-0.5c1.1,0.1,3,0.2,3.6,0.2c0.6,0,0.8-0.1,1.1-0.3c0.8-0.7,1.1-4.5,1.3-12h-7l3.5,1.4
		c-0.1,0.4-0.4,0.6-1.3,0.6c-0.2,0.5-0.5,1-0.8,1.5c6.3,1.1,4,5.6,1.5,4c-0.3-1.1-1.1-2.3-2-3.2c-1.2,1.6-2.7,3.2-4.7,4.1l-0.3-0.4
		c1.9-2.1,3-5.3,3.4-7.8h-3.1c-0.9,0.9-1.9,1.7-3,2.5l3.4,0.3c-0.1,0.4-0.4,0.7-1,0.8v4.6c0,0.4,0.1,0.5,1.1,0.5h2.8H30
		c0.3,0,0.7-0.1,0.9-0.1c0.3,0,0.7-0.1,0.9-0.1h0.5c1,0.4,1.3,0.7,1.3,1.3c0,1.4-1.3,1.8-6.4,1.8h-3.2c-3.1,0-3.6-0.7-3.6-2.8v-5.6
		c-0.7,0.5-1.4,0.9-2.2,1.3v2.5c0,0.3-1.7,1.2-3,1.2h-0.6v-3h-2.8v3.7c0,0.4-1.3,1.3-2.9,1.3H8.4V158l3.6,1.6h2.3l1.7-1.9l3.5,2.8
		c-0.2,0.3-0.7,0.6-1.4,0.7V177c1.7-1.8,3.4-4.5,4.6-6.9c-0.5,0.1-1,0.2-1.7,0.2h-0.7v-13.5l4.1,1.6h9l1.8-2.1l3.5,2.7
		c-0.2,0.3-0.6,0.5-1.3,0.7v9.3c0,0.2-1.3,0.8-3.2,0.8h-0.7v-1.3h-9.4l4.3,1.5c-0.2,0.3-0.5,0.5-1.4,0.3c-0.5,0.6-1.1,1.3-1.7,1.9
		h9.5l2-1.9L40.2,173.3z M14.6,177.5v-17h-2.8v17H14.6z M24,159.4v3.8h9.5v-3.8H24z M33.5,167.6v-3.4H24v3.4H33.5z"/>
	<path class="st0" d="M10.7,219.1c1.4,3.7,1.1,6.4,0.1,7.8c-0.8,1-2.7,1-3.3-0.3c-0.5-1.1,0-2.1,1-2.8c0.9-0.8,1.9-3,1.7-4.7H10.7z
		 M7.5,214.6c0,0,0.9-0.2,1.3-0.5c1.7-1.2,3.8-3.6,5.6-6.1c-1.3,0.5-2.7,1-4.3,1.6c-0.3,0.5-0.6,0.8-1,0.9l-1.8-4.3
		c0,0,0.8-0.2,1.1-0.4c1.8-1.7,4.3-6.9,5.1-9.6l4.8,2.5c-0.1,0.3-0.5,0.6-1.2,0.5c-1.6,2.2-4.4,5.1-6.9,7.1c1.5,0,3.4,0,5.4,0
		c0.9-1.4,1.6-2.8,2.1-3.9l4.3,3c-0.2,0.3-0.7,0.5-1.4,0.4c-2.1,2.6-6.2,6.3-9.8,8.8c2.2-0.1,5.1-0.3,8.2-0.6
		c-0.5-1.3-1.1-2.5-1.7-3.5l0.4-0.2c8,3.1,4.9,8.9,2.1,6.5c-0.1-0.7-0.2-1.4-0.5-2.1c-2.1,0.9-5.5,2.2-9.3,3.4
		c-0.3,0.4-0.6,0.6-0.9,0.8L7.5,214.6z M13.8,218.6c6.1,4.5,2.1,9.7-0.3,6.7c0.4-2.2,0.2-4.7-0.1-6.6L13.8,218.6z M17.6,217.9
		c7.3,2.7,4,8.4,1.3,5.9c0-1.9-0.8-4.2-1.7-5.7L17.6,217.9z M36.3,222.8c0,0,2.5,2.1,4,3.4c-0.1,0.4-0.5,0.6-1,0.6H19.5l-0.3-1h7.7
		v-24h-6.2l-0.3-1h12.9l2.1-2.9c0,0,2.5,2,3.9,3.3c-0.1,0.4-0.4,0.6-0.9,0.6h-7.3v24h2.9L36.3,222.8z"/>
	<path class="st0" d="M26.9,244.5c-0.1,0.5-0.6,0.7-1.7,0.8c3.2,3.2,9.5,4.9,14.7,5.5l0,0.6c-1.7,0.6-2.7,2.3-2.9,3.9
		c-5.6-1.8-10.1-5-12.3-9.5c-3.1,4.4-10.1,8.7-17.3,10.6l-0.2-0.4c6.2-2.8,12.3-8.6,13.7-12.8L26.9,244.5z M7.6,240.6h6l-0.5-4.3
		l5.1,0.3c0,0.4-0.3,0.8-1,1l0.4,3.1h1.2l1.9-2.6c0,0,2.2,1.8,3.4,3.1c-0.1,0.4-0.5,0.6-0.9,0.6h-5.4l0.5,3.4
		c-0.6,0.8-2.1,1.1-3.9,1l-0.5-4.5H7.9L7.6,240.6z M8.4,267.4c3.2-2.5,5.8-6.7,7-9.8l4.7,2.4c-0.2,0.3-0.5,0.6-1.3,0.4
		c-2.1,2.7-5.7,5.7-10.1,7.4L8.4,267.4z M25.7,256.6v11.3c0,0.3-1.9,1.1-3.5,1.1h-0.8v-12.4h-8.2l-0.3-1h8.5v-5.4l5.4,0.5
		c-0.1,0.4-0.3,0.8-1.1,0.9v4h2.6l2-2.6c0,0,2.3,1.8,3.7,3.1c-0.1,0.4-0.5,0.6-0.9,0.6H25.7z M24.4,240.6h4.1l0.7-4.4l5,0.9
		c-0.1,0.4-0.4,0.8-1.3,0.8l-0.4,2.6h1.7L36,238c0,0,2.2,1.8,3.4,3.1c-0.1,0.4-0.5,0.6-0.9,0.6h-6.2l-0.5,3.4
		c-0.7,0.6-2.3,0.8-4,0.5l0.6-3.9h-3.7L24.4,240.6z M27.8,258.6c12.4,2.3,10.1,10.7,5.8,8.3c-1.1-2.8-3.8-5.9-6.1-8L27.8,258.6z"/>
</g>
</svg>
