<?xml version="1.0" encoding="utf-8"?>
<!-- Generator: Adobe Illustrator 24.0.1, SVG Export Plug-In . SVG Version: 6.00 Build 0)  -->
<svg version="1.1" id="圖層_1" xmlns="http://www.w3.org/2000/svg" xmlns:xlink="http://www.w3.org/1999/xlink" x="0px" y="0px"
	 viewBox="0 0 189.4 45.5" style="enable-background:new 0 0 189.4 45.5;" xml:space="preserve">
<style type="text/css">
	.st0{display:none;fill:#3F5D45;}
	.st1{fill:#333333;}
</style>
<path class="st0" d="M8.1,32.3C8,39,7.8,42.2,7.8,43.5s0.3,1.6,2.1,1.6c2.8,0,4.1-0.7,4.1-2.1c0-1.2-0.1-4.2-0.1-15.7V16.6
	c1.2-0.5,1.5-0.8,1.5-1.2c0-0.5-0.5-0.9-3.2-2c1.8-2.5,3.5-5.1,4.9-7.9c1.7-0.5,2.2-0.9,2.2-1.6s-0.5-1.1-7.5-3.8
	c-0.2,1.2-0.5,2.3-0.9,3.5C8,11.7,3.9,20.1,0.1,24.4c-0.2,0.2,0.2,0.5,0.4,0.4c2.9-1.9,5.4-4.2,7.7-6.7L8.1,32.3z M28.1,26.3
	c0-3.5-3.3-6.9-10-7.8c-0.3,0-0.5,0.4-0.2,0.5c2.3,1.5,3.2,3.9,3.3,7.7c0.1,2.4,1.3,3.9,3.2,3.9C26.4,30.6,28.1,29.1,28.1,26.3z
	 M37.8,13.1V4.2c1.7-0.7,2-1.1,2-1.6c0-0.9-1.3-1.3-8.4-2.1c0.3,2.7,0.4,4.7,0.4,12.6H20.9c-1.3,0-3.4-0.1-5.7-0.3l0.4,1.6
	C18,14.1,20,14,20.9,14h10.9v22.1c0,2-0.6,2.5-2.2,2.6c-1,0.1-2.6,0.2-5.8,0.2c-0.3,0-0.3,0.4,0,0.5c3.9,1.2,5,2.9,5.5,4.6
	c0.2,0.9,0.7,1.1,1.7,1.1c1.2,0,2.5-0.3,3.6-0.7c2-0.7,3.5-2.6,3.5-6c0-1.8-0.3-11.2-0.3-19.5V14h8c0.2,0,0.5-0.1,0.5-0.4
	c0,0,0-0.1,0-0.1c0-0.4-0.1-0.6-1.6-2.1C42.2,9,42,8.9,41.6,8.9c-0.5,0-0.7,0.1-3.4,4.1L37.8,13.1z M58.5,8.4v5.5H57
	c-1,0-2.7,0-5.8-0.3l0.4,1.6c1.8-0.2,3.5-0.3,5.3-0.3h14.8c0.6,0,0.8-0.2,0.8-0.5c0-0.4-0.1-0.5-1.4-1.9c-1.6-1.6-1.7-1.7-2.1-1.7
	c-0.3,0-0.4,0-2.8,3.1h-2.1V8.4h8.8c0.6,0,0.8-0.2,0.8-0.5c0-0.3-0.1-0.6-1.9-2.4c-1.3-1.3-1.6-1.5-2-1.5s-0.4,0.1-3,3.4h-2.7V3.8
	c1.2-0.6,1.7-1.1,1.7-1.6c0-0.6-0.4-1.1-7.7-1.8c0.1,2,0.2,3.8,0.2,6.4v0.5h-3.1c-1,0-2.7,0-5.8-0.3l0.4,1.6
	c1.8-0.2,3.5-0.3,5.3-0.3L58.5,8.4z M64.5,29.4c1.7,1.3,2.9,3.2,3.1,5.4c0.3,1.6,1,2.5,2.5,2.5c1.7,0,3-1.4,3-3.1c0-0.1,0-0.1,0-0.2
	c0-2.3-2.5-5.1-8.6-5.3v-0.4c0.9-0.4,1.2-0.7,1.2-1.1h7.3c0.3,0,0.5-0.2,0.5-0.6c0-0.3-0.1-0.7-1.5-2.1c-1.8-1.8-2.2-2-2.5-2
	c-0.3,0-0.5,0.1-3.2,3.7H55.1c-1.8,0-3.6-0.1-5.4-0.4l0.5,1.7c1.6-0.2,3.2-0.3,4.8-0.3h3.8c0.1,1.2,0.1,1.8,0.1,2.5v1.1
	c-0.6-0.5-2.1-1.1-5.5-2.4c-0.1,1-0.4,2.1-0.5,2.6c-0.8,3.8-2.3,7.3-4.6,10.5c-0.1,0.1-0.1,0.3,0.1,0.4c0.1,0.1,0.2,0.1,0.3,0
	c3.8-2.3,7-5.5,9.3-9.4c0.4-0.1,0.7-0.2,1-0.4v5.5c0.1,0.8-0.4,1.6-1.3,1.7c-0.1,0-0.2,0-0.2,0c-1,0.1-2,0.2-3.1,0.2
	c-0.3,0-0.4,0.3-0.1,0.4c1.7,0.5,3,1.9,3.5,3.6c0.2,1,0.5,1.2,1.2,1.2c1.3,0,2.6-0.3,3.7-0.9c1.5-0.8,2.1-2.1,2.1-4.3
	c0-0.8-0.2-5.4-0.2-9.4L64.5,29.4z M78.2,11.9h9.5c-0.6,2.6-1,4.2-1.6,6.3c-0.1,0.3,0.1,0.4,0.3,0.3c2.3-1.4,3.2-2,4.5-2.7
	c0.8-0.5,1.7-0.8,2.6-0.9c1.2-0.2,1.6-0.5,1.6-1.2c0-0.7-0.1-1-2.1-2.9C90.1,8.1,89.9,8,89.4,8c-0.4,0-0.6,0.1-3.1,2.9h-7.6
	c1.2-2.3,2.2-4.7,3-7.1c1.7-0.4,1.8-0.7,1.8-1.3s-1-1.1-7.9-2.5c-0.1,1.9-0.2,2.7-0.4,4c-0.8,6-2.4,12.6-4.3,16.4
	c0-0.3-0.1-0.5-1.4-1.7c-2-1.9-2.2-2-2.5-2c-0.4,0-0.5,0.1-3,3.4h-6.6c-1.8,0-3.6-0.1-5.4-0.4l0.5,1.7c1.6-0.2,3.3-0.3,4.9-0.3h13.2
	c-0.2,0.4-0.5,0.8-0.7,1.1c-0.2,0.2,0.1,0.5,0.4,0.3c2.9-2.6,5.3-5.6,7.2-9c0,0.9,0,1.6,0,2.4C76.9,35,70.9,41.8,62.8,44.8
	c-0.3,0.1-0.1,0.5,0.1,0.5c10.6-2.3,18.2-8.7,19.5-24.5l0.1-0.9v0.9c-0.1,4.5,0.3,8.9,1,13.3c0.6,3.6,2,7,4.1,9.9
	c0.4,0.5,0.6,0.6,1,0.6c0.3,0,0.5-0.1,1.2-0.9c1.1-1.3,2.9-3.2,5-3.7c0.3,0,0.3-0.3,0-0.4c-3.3-2.2-6-5.2-8-8.6
	c-2.4-4.5-3.7-9.6-3.8-14.7c1.1-0.5,1.4-0.9,1.4-1.3c0-0.7-0.5-1.1-6.7-2.3L78.2,11.9z M125.5,1.8c1.2,0.9,2,2.4,2.3,4.6
	c0.2,2,1.2,3,2.9,3c1.7,0,3.2-1.4,3.2-3.1c0,0,0-0.1,0-0.1c0-2.6-2.5-4.9-8.2-4.9C125.4,1.2,125.3,1.6,125.5,1.8z M140.1,11.5
	c0.5,0,0.7-0.2,0.7-0.6c0-0.3-0.2-0.6-1.7-2.1c-2.4-2.3-2.6-2.4-3.1-2.4c-0.5,0-0.7,0-3.7,4.2h-8.7c-0.2-2-0.3-4.1-0.4-6.3
	c1.5-0.7,1.8-1,1.8-1.5c0-0.8-0.5-1.2-7.7-2c0.3,1.8,0.4,3.2,0.7,6.1c0.1,1.2,0.2,2.5,0.3,3.7h-10.2c-0.5-0.4-2-1-7.1-2
	c0.4,3.7,0.5,7.4,0.4,11.1c0,16.2-1.5,21.2-4.7,24.9c-0.2,0.2,0,0.5,0.3,0.3c5.8-3.7,10-11.6,10-23.4v-0.6h5.6
	c-0.1,3.3-0.5,6.5-1.2,9.7c-0.3,1.3-1.1,2.3-2.2,2.4c-1.1,0.1-2.2,0.2-3.4,0.1c-0.1,0-0.2,0.1-0.2,0.2c0,0.1,0.1,0.2,0.2,0.2
	c1.9,0.5,2.5,1.6,2.9,3.5c0.2,0.8,0.7,1,1.6,1c2.6-0.2,4.9-1.9,6-4.4c0.8-2,1.4-4.5,1.8-11.2c1.2-0.9,1.3-1,1.3-1.5
	c0-0.4-0.2-0.6-1.6-1.8c-2.4-1.9-2.5-2-3.1-2c-0.5,0-0.6,0-2.7,2.7H107v-7.7c0.4-0.2,0.7-0.4,1.1-0.6h10.4
	c0.5,5.5,1.7,10.9,3.6,16.1c0.4,1.1,0.9,2.2,1.4,3.2c-3.2,5.5-7.9,9.9-13.5,12.9c-0.2,0.1,0,0.6,0.3,0.5c6-1.8,10.9-4.1,15.8-9
	c1.8,2.7,4.1,5,6.8,6.8c1.3,0.9,2.8,1.4,4.4,1.4c1.7,0,3.1-1.3,3.2-3c0,0,0-0.1,0-0.1c0-0.9-0.3-1.7-0.7-2.5
	c-0.3-0.7-0.5-1.4-0.5-2.1c0.5-2.3,1.2-4.5,2.1-6.7c0.1-0.3-0.2-0.4-0.4-0.2c-3.4,4.4-4.8,6-5.7,6c-0.5,0-1-0.2-1.4-0.5
	c-1.5-1.2-2.7-2.6-3.8-4.1c2.4-3.4,4.3-7.1,5.7-11c1.4-0.3,1.8-0.7,1.8-1.2c0-0.7-0.4-1.1-7.2-4.3c-0.3,1.5-0.6,3-0.9,4.3
	c-0.6,2.5-1.4,4.9-2.4,7.2c-1.8-4.3-2.9-8.9-3.4-13.6H140.1z M158.5,9c0.8-0.3,1.1-0.6,1.1-1.1h7.4c0.3,0,0.5-0.3,0.5-0.6
	c0,0,0,0,0,0c0-0.4-0.2-0.7-1.7-2.2c-2.2-2.2-2.4-2.4-2.9-2.4c-0.4,0-0.5,0.2-3.4,4.1h-9c-1.7,0-3.5-0.1-5.2-0.3l0.5,1.6
	c1.6-0.2,3.1-0.3,4.7-0.3h1.7c0.1,1.5,0.2,2.9,0.1,4.4v16.5c-1.5,0.3-3,0.6-4.3,0.9c-1.1,0.2-2.1,0.4-3.2,0.5c2.9,6.7,3.4,7.6,4,7.6
	c0.4,0,1.2-0.3,1.4-2c5-2.6,12.3-7,16.6-9.8c0.2-0.1,0-0.6-0.3-0.5c-2.2,0.6-5.1,1.3-8.2,2L158.5,9z M176,13.4
	c0.1-2.8,0.2-6,0.2-9.6c1.6-0.8,1.8-1.3,1.8-1.7c0-0.7-1.1-1.4-8.1-2c0.2,1.2,0.3,2.6,0.3,8.4c0,1.8,0,3.4,0,4.9h-3.3
	c-1.8,0-3.6-0.1-5.4-0.4l0.5,1.7c1.6-0.2,3.3-0.3,4.9-0.3h3.2c-0.4,9.7-1.7,14.9-4,19.2c-2.7,5-7.3,9.6-11.8,11.5
	c-0.3,0.1,0,0.5,0.3,0.4c6.1-1.6,11.5-5.1,15.5-9.9c3.5-4.4,5.2-9.6,5.8-21.2h6c-0.1,9.5-0.3,15.7-1.2,21.1
	c-0.5,2.9-1.6,3.5-3.2,3.6c-1,0-3.2,0.1-6.1,0c-0.3,0-0.3,0.4,0,0.5c3.9,1.4,5.2,2.4,5.8,4.6c0.2,0.9,0.5,1.2,1.3,1.2
	c4.8,0,7.3-2.3,8.3-7.1c0.7-3.6,1.1-9.6,1.2-21.7c1.2-1,1.4-1.2,1.4-1.6s-0.1-0.7-2-2.2c-2.3-1.9-2.5-2-3-2s-0.6,0.1-3.1,2.9
	L176,13.4z"/>
<g>
	<path class="st1" d="M18.8,3.3c-0.2,0.6-0.8,1-1.8,1c-1.4,3.7-3.1,7.1-5,10.2l2.6,0.9c-0.1,0.4-0.6,0.7-1.4,0.9v26.5
		c-0.1,0.4-2.3,1.6-4.4,1.6h-1V20.2c-1.7,1.9-3.4,3.6-5.3,5.1l-0.6-0.4c3.8-5.7,7.6-14.8,9.5-23.9L18.8,3.3z M41.3,9.3
		c0,0,3.1,2.8,4.8,4.6c-0.1,0.5-0.6,0.7-1.2,0.7h-6.7v22.7c0,4-1,6.2-8,6.9c-0.2-1.9-0.6-3.2-1.5-4c-1.1-0.9-2.4-1.5-5.5-2v-0.6
		c0,0,6.8,0.4,8.1,0.4c1,0,1.2-0.3,1.2-1V14.6H15.7l-0.4-1.3h17.2V1.7l7.3,0.7c-0.1,0.7-0.5,1.1-1.7,1.2v9.7h0.5L41.3,9.3z
		 M18.4,18.8C32.4,23.6,28.1,34,23.1,30c-0.6-3.7-3-8-5.1-11L18.4,18.8z"/>
	<path class="st1" d="M63.6,27.2v15.7c0,0.3-1.6,1.4-4.2,1.4h-0.9V31.4C58.2,31.8,57.7,32,57,32c-1.8,3.6-4.3,6.6-7.1,8.5l-0.6-0.4
		c1.4-2.7,2.7-6.8,3.4-10.9l5.8,1.7v-3.8H50l-0.4-1.3h16.4l2.7-3.4c0,0,3,2.3,4.8,4c-0.1,0.5-0.6,0.7-1.2,0.7H63.6z M49.8,6.8h8.8V1
		l6.8,0.6c-0.1,0.6-0.5,1.1-1.7,1.3v4H66l2.5-3.3c0,0,2.9,2.3,4.7,3.9c-0.1,0.5-0.6,0.7-1.2,0.7h-8.3v5.4h1.6l2.4-3
		c0,0,2.7,2.1,4.4,3.6c-0.1,0.5-0.6,0.7-1.2,0.7H51.4l-0.4-1.3h7.6V8.1h-8.5L49.8,6.8z M66.2,16.2c0,0,2.9,2.2,4.5,3.8
		c-0.1,0.5-0.6,0.7-1.2,0.7h-17l-0.4-1.3h11.5L66.2,16.2z M65.2,29.5c11.2,3.3,6.1,11.7,2,7.8c0-2.6-1.1-5.6-2.4-7.5L65.2,29.5z
		 M82.7,17.3c0.7,10.2,3.3,16.8,10.2,20.6v0.6c-2.5,0.7-4,2.5-4.4,5.7c-4.2-3.8-5.7-11.6-6.3-21.1c-1,8.1-3.6,15.5-13.7,21.1
		l-0.6-0.6c9.2-8.5,9.7-18.5,9.9-30l6.7,1.5c-0.2,0.6-0.7,1.1-1.8,1.1L82.7,17.3z M70.5,20.6c2.8-4.8,5.2-12.1,6.2-19.4l6.8,1.9
		c-0.2,0.6-0.7,1-1.8,1C80.9,6.6,80,8.9,78.9,11h7.5L89,8.5l4.4,4.2c-0.4,0.4-0.9,0.5-1.8,0.6c-1.5,2.3-4.2,5.7-6.3,7.7l-0.5-0.3
		c0.7-2.3,1.6-5.8,2-8.4h-8.6c-2,3.5-4.4,6.4-7.2,8.6L70.5,20.6z"/>
	<path class="st1" d="M138.5,38.1c1.7,2.7,1.9,4.1,1.1,4.8c-2.1,2-5.9,0.1-8.1-1.8c-2.1-1.8-3.9-3.9-5.3-6.1
		c-3.7,3.7-8.3,6.8-14.3,8.9l-0.3-0.6c5.3-3.1,9.5-7.3,12.6-12c-2.7-5.7-4-12.3-4.6-19.5h-12.9v7.4h5.4l2.6-2.6l4.6,3.9
		c-0.3,0.4-0.9,0.6-1.8,0.8c-0.3,9.8-0.9,13.4-2.9,15c-1.2,1-2.8,1.5-5,1.5c0-1.5-0.1-2.7-0.6-3.4c-0.6-0.6-1.5-1.1-2.9-1.5v-0.6
		c1.1,0.1,2.9,0.2,3.7,0.2c0.6,0,1-0.1,1.2-0.4c0.8-0.7,1.2-4.2,1.4-11.6h-5.8c0,7.4-0.6,17.5-9.8,24l-0.4-0.4
		c4.4-7,4.8-15.9,4.8-23.6V8.4l6.2,2.2h12c-0.2-3.1-0.3-6.2-0.3-9.4l7,0.7c0,0.6-0.5,1.1-1.7,1.3c0,2.5,0,5,0.1,7.4h6.9l1.7-2.1
		c-0.6,0-1.1,0-1.8-0.4c-0.7-2-2.9-4.3-4.6-5.5l0.3-0.4c7.4-0.5,9,3,8,4.9c1,0.8,3.3,2.6,4.8,4c-0.1,0.5-0.6,0.7-1.3,0.7h-13.9
		c0.4,4.9,1.1,9.7,2.7,13.8c1.6-3.3,2.7-6.8,3.5-10.1l7.2,2.4c-0.2,0.6-0.6,0.9-1.8,0.9c-1.5,4-3.5,8.1-6.3,11.9
		c1.3,2,2.9,3.8,4.8,5.2c0.7,0.6,1,0.6,1.5-0.2c0.7-1.1,2-3.6,2.9-5.6l0.5,0.1L138.5,38.1z"/>
	<path class="st1" d="M165.2,25.1c-3.5,2.4-8.9,5.9-16.8,10.3c-0.2,0.6-0.6,1.1-1.1,1.3l-3.2-5.8c1.6-0.4,4.1-1.1,7.3-2V9.3h-6
		l-0.4-1.3h12.5l2.8-3.6c0,0,3,2.5,4.9,4.2c-0.1,0.5-0.6,0.7-1.3,0.7h-7.1v17.9c2.7-0.8,5.5-1.7,8.3-2.6L165.2,25.1z M187.4,14.4
		c-0.3,0.4-1,0.7-2,0.9c-0.6,16.4-1.6,24-4.3,26.6c-1.6,1.6-3.7,2.3-6.5,2.3c0-1.7-0.2-2.9-0.9-3.7c-0.8-0.8-2.4-1.5-4.6-2l0-0.6
		c2,0.2,5.1,0.4,6.2,0.4c0.8,0,1.3-0.1,1.7-0.6c1.7-1.5,2.6-9.6,3-23.3h-6.9c-0.7,12.6-3.8,22.8-19.4,29.9l-0.5-0.7
		c11.6-7.9,14.2-17.6,14.7-29.2h-6.8l-0.4-1.3h7.3c0.1-3.8,0.1-7.7,0.1-11.9l7.2,0.7c-0.1,0.7-0.6,1.1-1.7,1.3
		c0,3.4-0.1,6.7-0.2,9.9h6.3l2.9-2.9L187.4,14.4z"/>
</g>
</svg>
