<?xml version="1.0" encoding="utf-8"?>
<!-- Generator: Adobe Illustrator 24.0.1, SVG Export Plug-In . SVG Version: 6.00 Build 0)  -->
<svg version="1.1" id="圖層_1" xmlns="http://www.w3.org/2000/svg" xmlns:xlink="http://www.w3.org/1999/xlink" x="0px" y="0px"
	 viewBox="0 0 89.1 327.8" style="enable-background:new 0 0 89.1 327.8;" xml:space="preserve">
<style type="text/css">
	.st0{display:none;}
	.st1{display:inline;fill:#333333;}
	.st2{fill:none;stroke:#323333;stroke-width:1.5;stroke-miterlimit:10;}
	.st3{fill:#333333;}
</style>
<g class="st0">
	<path class="st1" d="M22.2,47.1c0.7,0,1.4,0,2.1,0c2.7,0,9.2,0,12-0.1v0.4c-1.3,0.3-1.9,1.7-1.9,3.3H24.2c-6.3,0-9.8-1.4-11.8-7
		c-1.8,3-4.7,5.8-9.5,7.6L2.7,51c5-3.7,6.8-9.3,7.3-13.8l5.8,1.1c-0.1,0.5-0.5,0.8-1.3,0.8c-0.4,1.3-0.8,2.6-1.5,3.9
		c1.2,2,2.8,3,4.9,3.6v-11H3.4l-0.3-1H30l2.3-3c0,0,2.5,2.1,4,3.4c-0.1,0.4-0.5,0.6-1,0.6H22.2v4.9h4.3l2.4-3.2c0,0,2.7,2.2,4.3,3.6
		c-0.1,0.4-0.5,0.6-1,0.6h-10V47.1z M13.4,32.3c0,0.4-1.9,1.4-3.8,1.4H9V18.8l4.6,1.8h12.1l2-2.2l4.2,3.2c-0.2,0.3-0.7,0.6-1.4,0.8
		v9.7c0,0.2-2.3,1-3.7,1h-0.7v-1.8H13.4V32.3z M13.4,21.6v3.8h12.7v-3.8H13.4z M26.1,30.2v-3.8H13.4v3.8H26.1z"/>
	<path class="st1" d="M23.8,63.4c-0.8,2.1-1.9,4.1-3.2,6.1l2.2,0.8c-0.1,0.3-0.4,0.6-1.1,0.7v20.3c0,0.2-1.9,0.9-3.5,0.9h-0.8V73.8
		c-3.8,4.7-8.7,8.9-14.3,11.8l-0.3-0.3C10,79.6,16,70.8,18.2,63.4H3.6l-0.3-1h25.5l2.5-3.3c0,0,2.9,2.2,4.6,3.7
		c-0.1,0.4-0.5,0.6-1,0.6H23.8z M23.1,72.3c16,3.5,14.3,13,9.5,10.7c-1.9-3.6-6.3-7.8-9.8-10.4L23.1,72.3z"/>
	<path class="st1" d="M36.8,107.5c-0.2,0.3-0.6,0.4-1.3,0.4c-1.1,1.1-2.9,2.7-4.3,3.5l-0.4-0.2c0.2-1.1,0.5-2.8,0.6-4.1h-9.8v8
		c0,0.2-1.2,0.8-3.4,0.8h-0.7v-8.8H7.8c0.2,2.3-0.7,4-1.9,4.6c-1.2,0.5-2.6,0.2-3-1.1c-0.3-1.2,0.5-2.1,1.5-2.5
		c1.2-0.6,2.2-2.1,2-3.8h0.5c0.3,0.7,0.5,1.3,0.6,1.9h9.8v-2.9H7l-0.3-1h20.1l2.2-2.7c0,0,2.4,1.8,3.9,3.1c-0.1,0.4-0.4,0.6-1,0.6
		H21.5v2.9h9.6l2.1-2.1L36.8,107.5z M31.8,114.6c0,0,2.2,1.6,3.6,2.8c-0.1,0.4-0.5,0.6-1,0.6H21.2c-1,1.1-2.1,2.2-3.2,3.2h10.3
		l1.7-2l4,2.8c-0.2,0.3-0.7,0.6-1.4,0.7v5.8c0,2.5-0.5,3.8-4.5,4.2c-0.1-1.1-0.1-2-0.5-2.5c-0.3-0.5-0.7-0.9-1.9-1.1v-0.5
		c0,0,1.8,0.1,2.4,0.1c0.5,0,0.6-0.2,0.6-0.6V122h-3.4v7.5c0,0.2-1.2,0.8-3,0.8h-0.7V122h-3.4v8.5c0,0.1-1.2,0.7-3,0.7h-0.7V122H11
		v9.5c0,0.4-1.7,1.2-3.3,1.2H7.1v-13.3l4.1,1.6h4.7c0.2-1,0.5-2.2,0.6-3.2H5l-0.3-1h25.2L31.8,114.6z M7.7,113.1
		c1.6-0.1,5.3-0.5,9-1l0.1,0.5c-1.5,0.8-3.6,2-6.7,3.5c-0.2,0.5-0.5,0.7-0.9,0.8L7.7,113.1z M8.4,108.7c8.2-2.2,9,3.3,6,3.2
		c-1.4-1-4.2-2.2-6.2-2.7L8.4,108.7z M22.3,112.3c8.9-1.9,9.4,3.7,6.3,3.6c-1.5-1.1-4.4-2.5-6.5-3.1L22.3,112.3z M22.4,110.9
		c1.8-1,4.6-2.9,5.7-3.8l2.4,3.4c-0.2,0.2-0.6,0.1-1.1-0.1c-1.3,0.3-4.5,0.8-6.9,1L22.4,110.9z"/>
	<path class="st1" d="M32.2,157.8c0,0,2.5,1.9,4.1,3.3c-0.1,0.4-0.5,0.6-1,0.6h-7.5c-0.6,2.1-1.4,3.9-3.2,5.5
		c14.3,2.7,9.7,7.7,6.1,6.2c-2.2-1.3-5.4-2.7-9.3-4c-3.4,1.7-8.5,3.2-16.5,4.3L4.8,173c6.2-1.5,10.3-3,13.1-4.7
		c-2.6-0.7-5.4-1.3-8.4-1.9c0.9-1.1,2.1-2.9,3.2-4.7H3.3l-0.3-1h10.3c1-1.7,2-3.4,2.5-4.5H11v0.4c0,0.4-1.8,1.2-3.5,1.2H7v-11.3
		l4.4,1.7h2.7V144H4l-0.3-1h25.7l2.3-2.9c0,0,2.6,2,4.2,3.4c-0.1,0.4-0.5,0.6-1,0.6h-9.6v4.2h2.8l1.9-2.1l4,3
		c-0.2,0.3-0.7,0.6-1.5,0.7v6.7c0,0.2-2.1,0.9-3.4,0.9h-0.7v-1.3h-11l4,1.4c-0.1,0.4-0.5,0.7-1.6,0.6c-0.4,0.7-0.9,1.6-1.5,2.5h5.4
		c0.2-0.9,0.3-1.8,0.4-2.8l5.6,0.5c-0.1,0.5-0.5,0.9-1.3,1c-0.1,0.5-0.2,0.9-0.2,1.4h1.9L32.2,157.8z M11,155.1h3v-6h-3V155.1z
		 M17.5,161.7c-1,1.5-2,3-3,4.3c2.2,0.1,4.1,0.3,5.8,0.5c1.6-1.5,2.5-3,3-4.8H17.5z M18,148.1h3.3v-4.2H18V148.1z M21.4,155.1v-6H18
		v6H21.4z M25.4,149.2v6h3.1v-6H25.4z"/>
	<path class="st1" d="M33,208.9c0,0,2.5,2.2,4,3.6c-0.1,0.4-0.5,0.6-1,0.6H12.6l-0.3-1H23v-6.3h-7.3l-0.3-1h7.5v-5.6h-3.3v1
		c0,0.4-1.7,1.3-3.4,1.3h-0.6v-6.2c-0.1,0.2-0.4,0.4-0.8,0.4h-4v8.7c1.6-0.5,3.2-1,4.9-1.5l0.1,0.4c-2.2,1.7-5.7,4-10.6,7
		c-0.1,0.5-0.5,0.8-0.9,1l-1.9-4.6c0.9-0.2,2.4-0.6,4.3-1.1v-9.9H3.3l-0.3-1h3.8v-8.8H3.2l-0.3-1h7.6l2.1-2.9c0,0,1.7,1.4,3,2.7
		v-2.4l4.2,1.7h10.3l1.9-2.1l3.9,3.1c-0.2,0.3-0.7,0.6-1.4,0.7v13.9c0,0.3-1.9,1.2-3.4,1.2h-0.7v-1.6h-3.5v5.6h2.6l2.1-2.9
		c0,0,2.3,2,3.7,3.4c-0.1,0.4-0.5,0.6-1,0.6h-7.5v6.3h3.7L33,208.9z M12.8,191.8c0,0,1.9,1.8,2.9,3.1v-9.1h-0.2h-4.6v8.8H11
		L12.8,191.8z M19.7,184.9v6.1H23v-6.1H19.7z M23.1,198.1V192h-3.3v6.1H23.1z M27.1,184.9v6.1h3.5v-6.1H27.1z M30.6,198.1V192h-3.5
		v6.1H30.6z"/>
	<path class="st1" d="M35.1,231.2c-0.3,0.4-0.9,0.7-1.8,0.9v21.5c-0.1,0.3-2.1,1.2-3.6,1.2h-0.6v-3h-19v1.8c0,0.5-1.7,1.5-3.5,1.5H6
		v-26.7l4.5,1.8h6.9v-8l5.6,0.5c-0.1,0.5-0.4,0.8-1.3,1v6.5h7l2.1-2.4L35.1,231.2z M10.1,231.2v9h7.3v-9H10.1z M10.1,250.8h7.3v-9.6
		h-7.3C10.1,241.2,10.1,250.8,10.1,250.8z M21.6,231.2v9h7.5v-9H21.6z M29.1,250.8v-9.6h-7.5v9.6H29.1z"/>
	<path class="st1" d="M19.1,270.3c-0.2,0.3-0.8,0.6-1.5,0.7v21.1c0,0.3-1.9,1.2-3.3,1.2h-0.6v-2.8H8.4v2.6c0,0.5-1.5,1.3-3.2,1.3
		H4.5v-26.8l4,1.7h0.2c0.2-1.9,0.6-4.7,0.7-6.7l5.7,1.4c-0.1,0.6-0.6,0.8-1.5,0.8c-0.9,1.2-2.3,3.1-3.4,4.5h3.1l1.9-2.1L19.1,270.3z
		 M8.4,270.4v8.8h5.4v-8.8H8.4z M13.8,289.6v-9.3H8.4v9.3H13.8z M36.4,270.3c-0.3,0.3-0.7,0.6-1.6,0.7c-0.2,14.3-0.7,20.8-2.7,22.8
		c-1.3,1.3-2.8,1.9-5.2,1.9c0-1.3-0.2-2.3-0.8-2.9c-0.6-0.7-2-1.2-3.8-1.6v-0.5c1.7,0.1,4.1,0.3,5.1,0.3c0.6,0,1-0.1,1.3-0.5
		c1.3-1.2,1.7-8.3,1.9-20.3H24c-1.7,3-3.7,5.5-6,7.4l-0.5-0.3c1.9-3.6,3.9-9.4,4.8-14.8l5.6,1.6c-0.1,0.5-0.6,0.7-1.4,0.7
		c-0.6,1.5-1.2,2.9-2,4.3h5.6l2.2-2.3L36.4,270.3z M20.8,276.5c10.3,3,6.5,10.7,2.7,7.5c-0.2-2.5-1.6-5.4-3-7.3L20.8,276.5z"/>
</g>
<g class="st0">
	<path class="st1" d="M64.1,24c0,0.4-1.7,1.2-3.2,1.2h-0.7v-7.5c-1.7,2.4-3.8,4.5-6.3,6.2l-0.4-0.4c2.7-3.3,4.6-8.1,5.6-12.7h-4.8
		l-0.3-1h6.2V3.7l5.2,0.5C65.2,4.7,65,5,64.1,5.1v4.7h0.7L66.7,7c0,0,2.2,1.9,3.5,3.3c-0.1,0.4-0.5,0.6-1,0.6H64v2.7
		c8.5,2,5.2,8.4,1.9,5.8c-0.1-1.7-1-3.4-1.9-4.8L64.1,24L64.1,24z M58.8,26.2c1.9,4.5,0.6,7.6-1.1,8.7c-1.2,0.7-2.9,0.4-3.4-0.9
		c-0.4-1.3,0.4-2.3,1.5-2.9c1.3-0.7,2.7-2.7,2.6-4.9H58.8z M79,31.9c1.3,0.4,1.6,0.9,1.6,1.6c0,1.8-1.7,2.3-8.8,2.3h-4.6
		c-4.1,0-5-0.6-5-3.4v-6.9l5.3,0.4c0,0.5-0.4,0.8-1.1,0.9v4.9c0,0.5,0.1,0.6,1.5,0.6h4.4c1.5,0,2.9,0,3.5,0s0.8-0.1,1.1-0.5
		c0.4-0.6,1-1.8,1.7-3.8H79V31.9z M68.8,24.5c9.4,2.1,5.8,9,2.3,6.2c-0.2-2.1-1.4-4.4-2.7-5.9L68.8,24.5z M74.4,23.5
		c0,0.4-1.7,1.3-3.4,1.3h-0.6V5l4.1,1.7h5.7l1.9-2.2l4,3.1c-0.2,0.3-0.7,0.6-1.5,0.8v15.2c0,0.3-2.1,1.1-3.4,1.1h-0.7v-2.3h-6.2
		L74.4,23.5L74.4,23.5z M74.4,7.7v3.9h6.2V7.7H74.4z M80.6,16.4v-3.9h-6.2v3.9H80.6z M80.6,21.4v-4h-6.2v4H80.6z M79.3,25.9
		c10.6,3,6.9,11,3.1,7.9c-0.1-2.7-1.7-5.7-3.4-7.6L79.3,25.9z"/>
	<path class="st1" d="M87.3,62c-0.2,0.3-0.7,0.5-1.5,0.6c-0.2,9.4-0.6,12.8-2.2,14.2c-1.1,1-2.5,1.1-4.4,1.1c0-0.9-0.1-1.5-0.5-2
		c-0.5-0.5-1.5-0.9-2.8-1.1v-0.5c1.2,0.1,3,0.2,3.6,0.2s0.8-0.1,1.1-0.4c0.8-0.7,1.1-4.6,1.3-12.2H75l3.5,1.4
		c-0.1,0.4-0.4,0.6-1.3,0.6c-0.2,0.5-0.5,1-0.9,1.5c6.4,1.1,4.1,5.7,1.5,4c-0.3-1.1-1.2-2.3-2-3.3c-1.2,1.7-2.8,3.2-4.8,4.2L70.7,70
		c1.9-2.1,3.1-5.3,3.5-8H71c-0.9,0.9-2,1.8-3.1,2.5l3.5,0.3c-0.1,0.4-0.4,0.7-1.1,0.9v4.6c0,0.4,0.1,0.5,1.1,0.5h2.8h2.5
		c0.3,0,0.7-0.1,0.9-0.1c0.3,0,0.7-0.1,0.9-0.1H79c1,0.4,1.3,0.7,1.3,1.3c0,1.4-1.3,1.8-6.5,1.8h-3.3c-3.1,0-3.6-0.7-3.6-2.8v-5.7
		c-0.7,0.5-1.5,0.9-2.2,1.3v2.6c0,0.3-1.7,1.2-3,1.2h-0.6v-3h-2.8v3.8c0,0.4-1.3,1.3-2.9,1.3h-0.6v-26l3.7,1.6h2.3l1.8-2l3.6,2.9
		c-0.2,0.3-0.7,0.6-1.5,0.7v16.1c1.7-1.8,3.5-4.5,4.6-7c-0.5,0.1-1.1,0.2-1.8,0.2H67V45.2l4.2,1.6h9.2l1.8-2.1l3.6,2.7
		c-0.2,0.3-0.6,0.5-1.3,0.7v9.5c0,0.2-1.3,0.9-3.3,0.9h-0.7v-1.3h-9.6l4.4,1.6c-0.2,0.4-0.5,0.5-1.4,0.4c-0.5,0.6-1.1,1.3-1.8,1.9
		h9.6l2-2L87.3,62z M61.2,66.3V48.9h-2.8v17.4H61.2z M70.8,47.8v3.8h9.7v-3.8H70.8z M80.5,56.1v-3.5h-9.7v3.5H80.5z"/>
	<path class="st1" d="M57.2,108.6c1.4,3.7,1.1,6.5,0.1,7.9c-0.8,1-2.7,1-3.4-0.3c-0.5-1.1,0-2.2,1-2.9c0.9-0.8,2-3,1.8-4.8h0.5
		C57.2,108.5,57.2,108.6,57.2,108.6z M54,104c0,0,0.9-0.2,1.3-0.5c1.7-1.2,3.9-3.7,5.7-6.2c-1.3,0.5-2.8,1.1-4.4,1.6
		c-0.3,0.5-0.6,0.8-1,0.9l-1.8-4.4c0,0,0.8-0.2,1.1-0.4c1.9-1.8,4.4-7,5.2-9.8l4.9,2.5c-0.1,0.3-0.5,0.6-1.2,0.5
		c-1.6,2.2-4.5,5.2-7,7.2c1.5,0,3.4,0,5.5,0c0.9-1.4,1.7-2.8,2.2-3.9l4.4,3c-0.2,0.3-0.7,0.5-1.4,0.4c-2.1,2.7-6.3,6.4-10,9
		c2.2-0.1,5.2-0.3,8.3-0.6c-0.5-1.3-1.1-2.6-1.8-3.5l0.4-0.2c8.1,3.2,5,9.1,2.1,6.6c-0.1-0.7-0.2-1.4-0.5-2.1
		c-2.2,0.9-5.6,2.2-9.4,3.5c-0.3,0.4-0.6,0.6-1,0.8L54,104z M60.5,108.1c6.2,4.6,2.1,9.9-0.3,6.8c0.4-2.2,0.2-4.8-0.1-6.7
		L60.5,108.1z M64.3,107.4c7.5,2.8,4.1,8.5,1.3,6c0-1.9-0.8-4.3-1.7-5.8L64.3,107.4z M83.3,112.4c0,0,2.5,2.1,4.1,3.5
		c-0.1,0.4-0.5,0.6-1,0.6H66.2l-0.3-1h7.9V91h-6.3l-0.3-1h13.1l2.2-3c0,0,2.5,2,3.9,3.4c-0.1,0.4-0.4,0.6-1,0.6H78v24.4h3
		L83.3,112.4z"/>
	<path class="st1" d="M73.8,134.4c-0.1,0.5-0.6,0.7-1.7,0.8c3.2,3.3,9.7,5,14.9,5.6v0.6c-1.7,0.6-2.8,2.4-3,4
		c-5.7-1.8-10.3-5.1-12.5-9.7c-3.2,4.5-10.3,8.9-17.6,10.8l-0.2-0.4c6.3-2.9,12.5-8.7,13.9-13L73.8,134.4z M54.1,130.5h6.1l-0.5-4.4
		l5.2,0.3c0,0.4-0.3,0.8-1,1l0.4,3.1h1.2l1.9-2.7c0,0,2.2,1.9,3.5,3.1c-0.1,0.4-0.5,0.6-1,0.6h-5.5l0.5,3.5
		c-0.6,0.8-2.1,1.1-3.9,1.1l-0.5-4.5h-5.9L54.1,130.5z M54.9,157.8c3.2-2.6,5.9-6.8,7.1-10l4.8,2.4c-0.2,0.4-0.5,0.6-1.3,0.4
		c-2.1,2.8-5.8,5.8-10.3,7.5L54.9,157.8z M72.5,146.8v11.5c0,0.3-1.9,1.1-3.5,1.1h-0.8v-12.6h-8.4l-0.3-1h8.6v-5.5l5.5,0.5
		c-0.1,0.4-0.3,0.8-1.2,0.9v4.1h2.7l2.1-2.7c0,0,2.3,1.8,3.8,3.2c-0.1,0.4-0.5,0.6-1,0.6h-7.5V146.8z M71.2,130.5h4.2l0.7-4.5
		l5.1,0.9c-0.1,0.4-0.4,0.8-1.3,0.9l-0.4,2.7h1.7l1.9-2.7c0,0,2.2,1.9,3.4,3.1c-0.1,0.4-0.5,0.6-0.9,0.6h-6.3l-0.5,3.5
		c-0.7,0.6-2.3,0.8-4,0.5l0.6-3.9h-3.8L71.2,130.5z M74.6,148.9c12.6,2.3,10.2,10.9,5.9,8.4c-1.1-2.9-3.9-6.1-6.2-8.1L74.6,148.9z"
		/>
</g>
<g>
	<g>
		<line class="st2" x1="70.1" y1="254" x2="70.1" y2="171.7"/>
		<g>
			<path class="st3" d="M72.6,6.6c-0.2,0.3-0.5,0.5-1.2,0.5c3.6,4.3,9.9,7.5,15.9,8.7l-0.1,0.4c-1.6,0.4-3,1.7-3.5,3.8
				c-5.9-2.4-10.3-6.6-13-12.5c-4.4,6.8-10.3,10.6-17.1,12.8L53.4,20c5.3-3.2,10.9-9,13.9-16.2L72.6,6.6z M78.5,21.1l4,3.2
				c-0.2,0.4-0.6,0.5-1.4,0.6c-1.9,4.5-5.7,9.6-10.6,13l-0.3-0.3c2.4-3.6,4.7-9,5.7-13.3H58.1l-0.3-1H76L78.5,21.1z M73.9,14.4
				c0,0,2.5,2.1,4,3.5c-0.1,0.4-0.5,0.6-1,0.6H61.6l-0.3-1h10.4L73.9,14.4z"/>
			<path class="st3" d="M71.7,60.6c1.4,5.4,5.7,10.7,15.5,13.9l0,0.4c-2.1,0.4-3.4,1.5-3.7,3.9c-8.2-4.1-11.1-11.2-12.3-17.2
				c-1.3,7.6-5.2,13.3-17.6,17.2l-0.3-0.5c9.8-4.7,12.6-10.5,13.5-17.7H54.6l-0.3-1H67c0.2-2.9,0.2-6,0.2-9.4H56.7l-0.3-1h21.3
				l2.5-3.1c0,0,2.8,2.1,4.5,3.6c-0.1,0.4-0.5,0.6-1,0.6H72c-0.1,3.4-0.1,6.5-0.4,9.4h8.3l2.5-3.1c0,0,2.8,2.1,4.5,3.6
				c-0.1,0.4-0.5,0.6-1,0.6H71.7z"/>
			<path class="st3" d="M72.8,115.6c0.7,0,1.4,0,2.1,0c2.7,0,9.3,0,12.2-0.1v0.4c-1.3,0.3-2,1.7-2,3.3H74.8c-6.4,0-9.9-1.4-11.9-7
				c-1.8,3-4.8,5.8-9.6,7.7l-0.3-0.4c5.1-3.8,6.9-9.4,7.3-14l5.8,1.1c-0.1,0.5-0.5,0.8-1.4,0.8c-0.4,1.3-0.8,2.6-1.5,3.9
				c1.2,2,2.8,3.1,4.9,3.6v-11.1H53.8l-0.3-1h27.1l2.3-3c0,0,2.5,2.1,4,3.5c-0.1,0.4-0.5,0.6-1,0.6H72.8v4.9h4.3l2.4-3.2
				c0,0,2.8,2.2,4.4,3.7c-0.1,0.4-0.5,0.6-1,0.6H72.8V115.6z M63.9,100.6c0,0.4-2,1.4-3.8,1.4h-0.6V87l4.7,1.9h12.2l2-2.2l4.3,3.2
				c-0.2,0.3-0.7,0.6-1.4,0.8v9.8c0,0.2-2.3,1-3.7,1h-0.8v-1.8H63.9V100.6z M63.9,89.8v3.8h12.8v-3.8H63.9z M76.7,98.5v-3.9H63.9
				v3.9H76.7z"/>
			<path class="st3" d="M86.8,131.5c-0.3,0.3-0.8,0.6-1.5,0.8v27c0,0.4-1.9,1.3-3.5,1.3h-0.6v-2.3H68v1.2c0,0.5-1.5,1.5-3.1,1.5
				h-0.7v-30.9c-0.1,0-0.2,0-0.3,0c-1,2.6-2.1,5-3.4,7.2l1.8,0.7c-0.1,0.4-0.4,0.6-1.1,0.7v21.2c0,0.3-1.7,1.1-3.2,1.1h-0.7v-18.9
				c-1.2,1.5-2.4,2.8-3.8,4l-0.5-0.2c2.6-4.5,5.3-11.6,6.7-18.3l4.5,1.5v-0.3l4,1.8h12.6l2-2.2L86.8,131.5z M81.2,157.3V139
				c-0.1,0.1-0.3,0.1-0.5,0.1h-4.4v4.8H77l1.3-1.5l2.4,2.5c-0.3,0.2-0.8,0.5-1.3,0.6v7.8c0,0.2-1.2,0.8-2.5,0.8h-0.5v-1.8h-3.5v1.4
				c0,0.3-1.3,1-2.5,1h-0.4v-12.2l3.1,1.3v-4.8h-4.2l-0.3-1H73v-5.4l4.5,0.4c-0.1,0.5-0.4,0.8-1.2,0.9v4.1h0.9l1.6-2.3
				c0,0,1.4,1.2,2.4,2.3v-6.6H68v25.7H81.2z M76.4,144.9h-3.5v6.5h3.5V144.9z"/>
		</g>
	</g>
	<g>
		<path class="st3" d="M30.5,309.9c0-2.1,1.7-3.8,3.8-3.8s3.8,1.7,3.8,3.8c0,2.1-1.7,3.8-3.8,3.8C32.2,313.7,30.5,311.9,30.5,309.9z
			 M31.4,309.9c0,1.5,1.3,2.8,2.8,2.8s2.8-1.3,2.8-2.8s-1.3-2.8-2.8-2.8S31.4,308.3,31.4,309.9z"/>
		<g>
			<path class="st3" d="M38.1,34.6c-0.3,0.3-0.7,0.5-1.5,0.6c-0.2,9.5-0.6,13-2.2,14.4c-1.1,1-2.5,1.1-4.4,1.1c0-0.9-0.1-1.5-0.5-2
				c-0.5-0.5-1.5-0.9-2.8-1.1v-0.5c1.2,0.1,3,0.2,3.7,0.2c0.6,0,0.9-0.1,1.1-0.4c0.8-0.7,1.1-4.6,1.3-12.3h-7.2l3.6,1.4
				c-0.1,0.4-0.4,0.6-1.3,0.6c-0.3,0.5-0.5,1-0.9,1.5c6.5,1.1,4.2,5.8,1.5,4.1c-0.3-1.1-1.2-2.4-2-3.3c-1.2,1.7-2.8,3.3-4.9,4.2
				l-0.3-0.4c1.9-2.1,3.1-5.4,3.5-8.1h-3.2c-0.9,0.9-2,1.8-3.1,2.6l3.5,0.3C22,38,21.7,38.3,21,38.4v4.7c0,0.4,0.1,0.5,1.1,0.5H25
				h2.5c0.3,0,0.7-0.1,0.9-0.1c0.3,0,0.7-0.1,0.9-0.1h0.5c1,0.4,1.3,0.7,1.3,1.3c0,1.4-1.4,1.8-6.6,1.8h-3.3c-3.1,0-3.7-0.7-3.7-2.9
				v-5.8c-0.8,0.5-1.5,0.9-2.2,1.3v2.6c0,0.3-1.7,1.3-3,1.3h-0.6v-3H8.9v3.8c0,0.4-1.4,1.3-3,1.3H5.3V18.8L9,20.4h2.3l1.8-2l3.6,2.9
				c-0.3,0.3-0.7,0.6-1.5,0.8v16.3c1.7-1.9,3.5-4.6,4.7-7.1c-0.5,0.1-1.1,0.2-1.8,0.2h-0.7V17.6l4.2,1.6H31l1.9-2.1l3.6,2.8
				c-0.3,0.3-0.6,0.5-1.4,0.7v9.6c0,0.2-1.3,0.9-3.3,0.9h-0.7v-1.3h-9.7l4.4,1.6c-0.2,0.4-0.5,0.5-1.4,0.4c-0.5,0.6-1.1,1.3-1.8,2
				h9.7l2-2L38.1,34.6z M11.7,38.9V21.4H8.9v17.5H11.7z M21.4,20.2v3.9h9.8v-3.9H21.4z M31.2,28.7v-3.5h-9.8v3.5H31.2z"/>
			<path class="st3" d="M7.7,81.7c1.4,3.8,1.1,6.6,0.1,8c-0.8,1-2.8,1-3.4-0.3c-0.5-1.1,0-2.2,1-2.9c0.9-0.9,2-3,1.8-4.8H7.7z
				 M4.4,77c0,0,0.9-0.2,1.3-0.5c1.8-1.3,3.9-3.7,5.8-6.3c-1.3,0.5-2.8,1.1-4.4,1.6c-0.3,0.5-0.6,0.8-1,0.9l-1.8-4.4
				c0,0,0.8-0.2,1.1-0.4c1.9-1.8,4.5-7,5.2-9.9l4.9,2.5c-0.1,0.3-0.5,0.6-1.2,0.5c-1.6,2.3-4.5,5.3-7.1,7.3c1.5,0,3.5,0,5.5,0
				c0.9-1.4,1.7-2.9,2.2-4l4.5,3.1c-0.2,0.3-0.7,0.5-1.4,0.4c-2.1,2.7-6.3,6.5-10.1,9.1c2.3-0.1,5.3-0.3,8.4-0.6
				c-0.5-1.3-1.1-2.6-1.8-3.6l0.4-0.2c8.2,3.2,5.1,9.2,2.1,6.7c-0.1-0.7-0.3-1.4-0.5-2.1c-2.2,0.9-5.6,2.2-9.5,3.5
				c-0.3,0.4-0.6,0.6-1,0.8L4.4,77z M10.9,81.1c6.3,4.6,2.1,10-0.3,6.9c0.4-2.2,0.3-4.9-0.1-6.8L10.9,81.1z M14.8,80.5
				c7.5,2.8,4.2,8.6,1.3,6c0-2-0.8-4.3-1.8-5.9L14.8,80.5z M34,85.5c0,0,2.6,2.1,4.1,3.5c-0.1,0.4-0.5,0.6-1,0.6H16.7l-0.3-1h7.9
				V63.9h-6.3l-0.3-1H31l2.2-3c0,0,2.5,2,4,3.4c-0.1,0.4-0.4,0.6-1,0.6h-7.5v24.7h3L34,85.5z"/>
			<path class="st3" d="M24.4,107.8c-0.1,0.5-0.6,0.7-1.7,0.8c3.3,3.3,9.8,5,15.1,5.6l0,0.6c-1.7,0.6-2.8,2.4-3,4
				c-5.7-1.9-10.4-5.2-12.6-9.8c-3.2,4.5-10.4,8.9-17.8,10.9l-0.2-0.4c6.4-2.9,12.7-8.8,14.1-13.1L24.4,107.8z M4.5,103.8h6.2
				l-0.5-4.5l5.2,0.3c0,0.4-0.3,0.8-1,1l0.4,3.1h1.2l1.9-2.7c0,0,2.2,1.9,3.5,3.1c-0.1,0.4-0.5,0.6-1,0.6h-5.6l0.5,3.5
				c-0.6,0.8-2.1,1.1-4,1.1l-0.5-4.6h-6L4.5,103.8z M5.3,131.4c3.3-2.6,6-6.9,7.2-10.1l4.8,2.4c-0.2,0.4-0.5,0.6-1.4,0.4
				c-2.1,2.8-5.9,5.9-10.4,7.6L5.3,131.4z M23.1,120.2v11.6c0,0.3-1.9,1.1-3.6,1.1h-0.8v-12.7h-8.4l-0.3-1h8.7v-5.5l5.6,0.5
				c-0.1,0.4-0.3,0.8-1.2,0.9v4.1h2.7l2.1-2.7c0,0,2.4,1.9,3.8,3.2c-0.1,0.4-0.5,0.6-1,0.6H23.1z M21.8,103.8h4.3l0.7-4.5l5.2,0.9
				c-0.1,0.4-0.4,0.8-1.4,0.9l-0.4,2.7h1.7l1.9-2.7c0,0,2.2,1.9,3.5,3.1c-0.1,0.4-0.5,0.6-0.9,0.6h-6.4l-0.5,3.5
				c-0.8,0.6-2.4,0.8-4.1,0.5l0.6-4h-3.8L21.8,103.8z M25.2,122.3c12.8,2.3,10.3,11,6,8.5c-1.1-2.9-3.9-6.1-6.3-8.2L25.2,122.3z"/>
			<path class="st3" d="M20.3,148.2c-0.3,0.3-0.8,0.6-1.5,0.8v21.3c0,0.3-1.9,1.2-3.3,1.2h-0.6v-2.8H9.4v2.6c0,0.5-1.5,1.4-3.2,1.4
				H5.6v-27.1l4,1.7h0.2c0.3-2,0.6-4.8,0.8-6.8l5.8,1.4c-0.1,0.6-0.6,0.9-1.5,0.9c-0.9,1.3-2.3,3.1-3.5,4.5h3.1l1.9-2.1L20.3,148.2z
				 M9.4,148.3v8.9h5.4v-8.9H9.4z M14.9,167.7v-9.4H9.4v9.4H14.9z M37.8,148.2c-0.3,0.3-0.8,0.6-1.6,0.7c-0.3,14.4-0.8,21-2.7,23.1
				c-1.3,1.4-2.9,1.9-5.2,1.9c0-1.4-0.2-2.4-0.8-2.9c-0.6-0.7-2-1.3-3.8-1.6l0-0.5c1.7,0.1,4.2,0.3,5.1,0.3c0.6,0,1-0.1,1.3-0.5
				c1.3-1.2,1.7-8.3,1.9-20.5h-6.7c-1.7,3-3.8,5.6-6,7.5l-0.5-0.3c2-3.6,3.9-9.5,4.8-15l5.7,1.6c-0.1,0.5-0.6,0.7-1.4,0.7
				c-0.6,1.5-1.3,3-2,4.3h5.7l2.3-2.3L37.8,148.2z M22,154.5c10.4,3.1,6.5,10.8,2.8,7.6c-0.2-2.5-1.6-5.4-3-7.4L22,154.5z"/>
			<path class="st3" d="M21.3,190.7c-1,0.3-2,0.6-3.1,0.9c-0.5,4.7-1.4,9.1-3.3,13c6.7,4.3,3.2,8.1,0.4,6.3c-0.6-1-1.4-2-2.4-3
				c-2,2.9-4.8,5.4-8.7,7.3l-0.4-0.4c3.2-2.5,5.5-5.6,7-8.9c-1.9-1.8-4.2-3.4-6.1-4.5c0.5-1.7,1.1-4.2,1.6-6.8l-0.8,0.2
				c-0.3,0.5-0.6,0.7-1.1,0.8l-0.9-4.3c0.9,0,2.1,0,3.5,0c0.7-3.8,1.3-7.5,1.5-9.6l5.2,0.9c-0.1,0.4-0.3,0.8-1.4,0.9
				c-0.4,1.9-0.9,4.7-1.5,7.7c1,0,2.1-0.1,3.2-0.2c0-1.3,0.1-2.6,0-4l5.6,1c-0.1,0.6-0.6,0.9-1.4,1c0,0.6-0.1,1.1-0.1,1.8
				c1-0.1,1.9-0.2,2.9-0.3L21.3,190.7z M12,203.1c1.1-3.3,1.8-6.8,2-10.3c-1.1,0.3-2.4,0.6-3.7,0.9c-0.6,2.8-1.3,5.6-2,7.9
				C9.8,202.1,11,202.6,12,203.1z M34,194.6c0,0,2.5,2,3.9,3.4c-0.1,0.4-0.5,0.6-1,0.6h-7.7v11.7c0,2.9-0.6,4.5-5.2,4.9
				c-0.1-1.3-0.3-2.3-0.8-2.9c-0.5-0.6-1.3-1.1-3-1.4v-0.5c0,0,3.5,0.2,4.3,0.2c0.5,0,0.7-0.2,0.7-0.6v-11.5h-6.7l-0.3-1h7v-6
				l2.9,0.3c0.9-1.8,2-4.2,2.6-5.9H19.7l-0.3-1h11.4l2.3-2.3l3.8,3.5c-0.3,0.3-0.7,0.4-1.5,0.4c-1.6,1.5-4,3.8-6.2,5.3l1.4,0.1
				c-0.1,0.5-0.4,0.8-1.3,0.9v4.5h2.5L34,194.6z"/>
			<path class="st3" d="M34.1,227.5c-0.3,0.3-0.7,0.6-1.4,0.8v26.1c0,0.3-2.2,1.4-3.8,1.4h-0.7v-3.3H14v1.9c0,0.6-1.8,1.6-3.7,1.6
				H9.5v-31.5l4.7,1.9h13.5l2.1-2.4L34.1,227.5z M14,227.5v11.2h14.1v-11.2H14z M28.1,251.5v-11.7H14v11.7H28.1z"/>
			<path class="st3" d="M32.8,276.7c0,0,2.9,2.2,4.7,3.7c-0.1,0.4-0.5,0.5-1,0.5H23.2v11.2c0,3-0.8,4.8-6.4,5.2
				c-0.2-1.4-0.4-2.4-1.2-3.1c-0.8-0.7-1.9-1.1-4.4-1.6v-0.5c0,0,5.5,0.4,6.6,0.4c0.7,0,0.9-0.3,0.9-0.8V281H4.6l-0.3-1h14.4v-6.3
				l3.6,0.4c2-1.7,4-4.1,5.4-5.8H8.3l-0.3-1h20.1l2.5-2.4l4.1,3.6c-0.3,0.4-0.7,0.4-1.5,0.5c-2.6,1.7-6.2,3.8-9.6,5.2l0.6,0.1
				c-0.1,0.5-0.4,0.8-1.2,1v4.8h7L32.8,276.7z"/>
		</g>
	</g>
</g>
</svg>
