<?xml version="1.0" encoding="utf-8"?>
<!-- Generator: Adobe Illustrator 24.0.1, SVG Export Plug-In . SVG Version: 6.00 Build 0)  -->
<svg version="1.1" id="圖層_1" xmlns="http://www.w3.org/2000/svg" xmlns:xlink="http://www.w3.org/1999/xlink" x="0px" y="0px"
	 viewBox="0 0 187.6 42.8" style="enable-background:new 0 0 187.6 42.8;" xml:space="preserve">
<style type="text/css">
	.st0{fill:#E5781F;}
	.st1{fill:none;stroke:#E5781F;stroke-miterlimit:10;}
	.st2{fill:#FFFFFF;}
</style>
<title>logo</title>
<g>
	<path class="st0" d="M60.9,12.8c0.3,0.1,0.6,0.3,0.8,0.6c0.2,0.2,0.3,0.5,0.3,0.8c0,0.3-0.1,0.6-0.3,0.8c-0.3,0.2-0.6,0.4-1,0.4h-5
		v15.5c0.1,0.4-0.1,0.8-0.3,1.2c-0.2,0.2-0.5,0.4-0.9,0.4c-0.3,0-0.6-0.1-0.8-0.3c-0.3-0.3-0.4-0.6-0.5-1V15.5h-5
		c-0.4-0.1-0.7-0.2-1-0.5c-0.2-0.2-0.3-0.5-0.3-0.8c0-0.3,0.2-0.6,0.4-0.9c0.3-0.3,0.7-0.4,1.1-0.4h9h2.2L60.9,12.8z"/>
	<path class="st0" d="M76.5,28.4c0.4,0,0.7,0.1,1,0.2c0.5,0.3,0.7,0.9,0.5,1.5c-0.1,0.3-0.4,0.6-0.7,0.8c-0.8,0.2-1.6,0.4-2.4,0.5
		c-0.9,0.1-1.7,0.2-2.6,0.2c-0.9,0-1.8,0-2.6,0c-0.8-0.1-1.7-0.2-2.5-0.4c-0.3-0.1-0.5-0.3-0.7-0.6c-0.1-0.2-0.2-0.5-0.2-0.7v-14
		c-0.5-0.1-0.9-0.6-0.8-1.1c0-0.3,0.1-0.5,0.2-0.7c0.2-0.3,0.5-0.5,0.8-0.6c0.8-0.3,1.7-0.4,2.5-0.5c0.8-0.1,1.7-0.2,2.6-0.2
		s1.7-0.1,2.6-0.1s1.7,0,2.6-0.1c0.4,0,0.8,0.1,1.1,0.3c0.2,0.2,0.4,0.5,0.5,0.8c0,0.3-0.1,0.6-0.2,0.9c-0.2,0.3-0.6,0.5-1,0.6
		c-1.3,0.1-2.6,0.1-4,0.1c-1.4,0-2.8,0.1-4.1,0.3v5.6c1.1,0,2.2,0,3.3,0s2.2-0.1,3.3-0.2c0.4,0,0.8,0.1,1.1,0.3
		c0.2,0.2,0.4,0.5,0.4,0.8c0,0.3-0.1,0.6-0.2,0.9c-0.2,0.3-0.6,0.5-1,0.6c-1.2,0.1-2.3,0.2-3.5,0.3s-2.3,0.1-3.5,0v5.1
		c1.3,0.2,2.6,0.2,3.9,0.1C74,28.9,75.3,28.7,76.5,28.4z"/>
	<path class="st0" d="M98.2,30.6c0,0.4-0.1,0.7-0.3,1c-0.2,0.2-0.4,0.4-0.7,0.5c-0.3,0-0.6,0-0.8-0.1c-0.3-0.2-0.5-0.4-0.7-0.8
		c-0.1-1-0.3-2-0.5-2.9c-0.2-1-0.5-1.9-0.8-2.9l-8.4,0.1h-0.1h-0.2c-0.5,1.8-1,3.7-1.4,5.6c-0.1,0.4-0.4,0.7-0.7,0.9
		c-0.6,0.3-1.3,0.1-1.6-0.5c0,0,0,0,0,0c-0.2-0.4-0.2-0.8-0.1-1.1c0.7-3.1,1.5-6.1,2.5-9c1-3,2.3-5.8,3.7-8.6
		c0.1-0.4,0.5-0.7,0.9-0.8c0.2-0.1,0.4-0.1,0.7,0c0.2,0.1,0.4,0.2,0.5,0.3l0,0l0,0c1.1,1.1,2,2.3,2.8,3.6c0.7,1.3,1.4,2.7,2,4.1
		c0.2,0.5,0.4,1,0.7,1.5s0.4,1,0.6,1.5h1.7c0.4,0.1,0.7,0.3,0.9,0.6c0.2,0.2,0.3,0.5,0.3,0.8c0,0.3-0.1,0.6-0.3,0.8
		c-0.2,0.3-0.6,0.4-0.9,0.5H97c0.3,0.9,0.5,1.7,0.7,2.6C97.9,28.9,98.1,29.8,98.2,30.6z M89.5,15.4c-0.6,1.2-1.1,2.4-1.6,3.7
		s-1,2.5-1.4,3.8l6.9-0.1c-0.3-0.6-0.6-1.3-0.8-1.9s-0.6-1.2-0.9-1.8s-0.7-1.2-1-1.9C90.3,16.6,89.9,16,89.5,15.4z"/>
	<path class="st0" d="M102.5,10.4c0.2-0.2,0.5-0.3,0.8-0.3c0.3,0,0.6,0.1,0.8,0.3c0.3,0.2,0.4,0.5,0.5,0.9v4.8
		c0,0.4-0.1,0.8-0.4,1.1c-0.2,0.2-0.6,0.4-0.9,0.4c-0.3,0-0.6-0.1-0.8-0.3c-0.3-0.3-0.4-0.6-0.5-1v-4.9
		C102.1,11,102.3,10.7,102.5,10.4z"/>
	<path class="st0" d="M121.9,30.3L121.9,30.3c0.1,0.3,0.2,0.5,0.1,0.8c-0.1,0.2-0.2,0.5-0.4,0.6c-0.2,0.2-0.4,0.3-0.7,0.3
		c-0.3,0-0.6,0-0.9-0.2c-0.2-0.2-0.4-0.4-0.5-0.6c-0.2-0.2-0.3-0.4-0.4-0.7c-0.4,0.4-0.9,0.7-1.4,1c-0.4,0.3-0.9,0.5-1.5,0.5
		c-0.8,0-1.7,0.1-2.5,0c-0.8,0-1.7-0.3-2.3-0.8c-0.6-0.4-1.1-1-1.4-1.6c-0.3-0.6-0.5-1.3-0.6-2c-0.1-0.7-0.1-1.4,0-2.1
		c0.1-0.7,0.3-1.4,0.5-2.1c0.1-0.3,0.3-0.6,0.4-0.9c0.2-0.3,0.3-0.6,0.5-0.9c0.2-0.4,0.5-0.8,0.8-1.2c0.3-0.4,0.6-0.7,1-1l0.8-0.6
		c0.3-0.2,0.5-0.4,0.8-0.5c0.3-0.2,0.6-0.3,0.9-0.4c0.4-0.1,0.8-0.3,1.3-0.4c0.4-0.1,0.9-0.1,1.4-0.1c0.4,0,0.8,0.1,1.2,0.2
		c0.3,0,0.6,0,0.9,0.2c0.3,0.2,0.5,0.6,0.7,0.9c0,1.4,0,2.9,0,4.3c0,1.5,0.1,2.9,0.3,4.4c0,0.2,0.1,0.5,0.2,0.7
		c0.1,0.3,0.3,0.5,0.4,0.8l0.4,0.7C121.8,30,121.9,30.2,121.9,30.3z M117.9,28.1C117.9,28.1,117.9,28.1,117.9,28.1L118,28
		c-0.3-1.3-0.4-2.7-0.4-4c0-1.4,0-2.6,0-3.8c-0.2,0-0.4,0-0.6,0.1c-0.2,0-0.5,0.1-0.7,0.2l-0.6,0.2c-0.1,0-0.3,0.1-0.4,0.2
		c-0.6,0.3-1.2,0.7-1.6,1.1c-0.4,0.5-0.8,1-1.1,1.6c-0.3,0.6-0.5,1.2-0.7,1.8c-0.1,0.7-0.2,1.3-0.2,2c0,0.2,0.1,0.3,0.2,0.5
		s0.1,0.3,0.2,0.5c0.1,0.1,0.2,0.2,0.3,0.3c0.1,0.1,0.2,0.2,0.4,0.4c0.2,0.1,0.4,0.2,0.6,0.2l0.6,0.2c0.4,0,0.7,0,1,0
		c0.3,0,0.7,0,1-0.1l0.9-0.6C117.2,28.6,117.5,28.4,117.9,28.1L117.9,28.1z"/>
	<path class="st0" d="M128.4,31.8c-0.2,0.2-0.5,0.4-0.8,0.4c-0.3,0-0.6-0.1-0.9-0.3c-0.3-0.3-0.5-0.6-0.5-1V13.2
		c0.1-0.4,0.2-0.7,0.5-0.9c0.2-0.2,0.5-0.3,0.8-0.3c0.3,0,0.6,0.1,0.8,0.3c0.3,0.2,0.5,0.5,0.6,0.9v7.5c0.3-0.3,0.6-0.5,0.9-0.8
		c0.4-0.3,0.8-0.5,1.2-0.7c0.4-0.2,0.8-0.3,1.3-0.4c0.4-0.1,0.8-0.1,1.2-0.1c0.4,0.1,0.8,0.1,1.2,0.2c0.6,0.2,1.2,0.5,1.6,0.9
		c0.5,0.4,0.8,0.9,1.1,1.5c0.3,0.6,0.5,1.2,0.7,1.8c0.1,0.6,0.2,1.2,0.2,1.8c0,1,0,2,0,3s0,2,0,3c0,0.4-0.1,0.8-0.4,1.1
		c-0.5,0.5-1.2,0.5-1.7,0.1c-0.3-0.3-0.5-0.6-0.5-1v-3c0-1,0-2,0-3c0-0.7-0.2-1.4-0.4-2.1c-0.3-0.6-0.8-1.2-1.4-1.5
		c-0.5-0.2-1-0.2-1.5,0c-0.4,0.1-0.9,0.4-1.2,0.7c-0.4,0.3-0.7,0.7-1,1.1l-0.9,1.2c0,0.1-0.1,0.1-0.2,0.2l-0.2,0.1v6.2
		C128.9,31.1,128.7,31.5,128.4,31.8z"/>
	<path class="st0" d="M142.4,23.9c0.2-0.7,0.5-1.4,0.9-2c0.3-0.6,0.7-1.2,1.2-1.8c0.5-0.5,1-1,1.6-1.4c0.6-0.4,1.3-0.7,2-0.8
		c1.1-0.3,2.2-0.2,3.2,0.3c0.9,0.5,1.7,1.1,2.2,2c0.6,0.9,0.9,1.9,1.1,3c0.2,1.1,0.1,2.1-0.1,3.2c-0.3,1.3-0.9,2.4-1.7,3.5
		c-0.8,1.1-1.8,1.9-3,2.3c-0.8,0.3-1.7,0.5-2.6,0.4c-0.8-0.1-1.6-0.4-2.2-0.8c-0.7-0.5-1.3-1-1.7-1.7c-0.5-0.7-0.8-1.6-0.9-2.5
		c-0.1-0.5-0.2-1.1-0.1-1.7c0-0.6,0.1-1.1,0.2-1.6L142.4,23.9z M144.9,24.7c-0.1,0.4-0.1,0.9-0.2,1.2c0,0.4,0,0.8,0,1.2
		c0.1,0.5,0.2,1.1,0.5,1.5c0.3,0.4,0.6,0.8,1.1,1c0.4,0.2,0.9,0.4,1.4,0.4c0.6,0,1.1-0.2,1.6-0.5c0.7-0.4,1.3-1,1.7-1.6
		c0.4-0.7,0.7-1.4,0.9-2.2c0.2-0.7,0.2-1.3,0.1-2c-0.1-0.7-0.3-1.3-0.6-1.9c-0.3-0.5-0.8-1-1.4-1.2c-0.7-0.2-1.4-0.2-2,0.1
		c-0.8,0.3-1.5,0.9-2,1.6C145.5,23.1,145.1,23.8,144.9,24.7z"/>
	<path class="st0" d="M161.8,30.2c0.3,0.2,0.6,0.5,0.7,0.9c0.1,0.3,0,0.6-0.1,0.9c-0.2,0.3-0.4,0.5-0.7,0.5c-0.4,0.1-0.8,0-1.1-0.2
		l-0.6-0.4c-0.2-0.1-0.4-0.3-0.6-0.4c-0.2-0.1-0.3-0.3-0.4-0.5c-0.1-0.2-0.1-0.4-0.2-0.6V12.9c0.1-0.4,0.2-0.7,0.5-0.9
		c0.2-0.2,0.5-0.3,0.8-0.3c0.3,0,0.6,0.1,0.8,0.3c0.3,0.2,0.5,0.5,0.6,0.9v17.1l0.2,0.1L161.8,30.2z"/>
	<path class="st0" d="M166.9,13.4c0-0.4,0.1-0.9,0.4-1.2c0.3-0.3,0.7-0.5,1.1-0.5c0.4,0,0.8,0.2,1.1,0.5c0.3,0.3,0.5,0.7,0.5,1.2
		c0,0.4-0.2,0.8-0.5,1.2c-0.3,0.3-0.7,0.5-1.1,0.5c-0.4,0-0.8-0.2-1.1-0.5C167.1,14.3,166.9,13.8,166.9,13.4z M169.8,30.7
		c0,0.4-0.1,0.8-0.4,1.1c-0.2,0.2-0.5,0.4-0.9,0.4c-0.3,0-0.6-0.1-0.8-0.3c-0.3-0.3-0.4-0.6-0.5-1c0-2,0-4-0.1-6.1
		c0-2.1,0-4.1,0-6.1c0.1-0.4,0.3-0.7,0.5-1c0.2-0.2,0.5-0.3,0.8-0.3c0.3,0,0.6,0.1,0.8,0.3c0.3,0.2,0.5,0.5,0.5,0.9c0,2,0,4,0.1,6.1
		C169.9,26.7,169.9,28.7,169.8,30.7L169.8,30.7z"/>
	<path class="st0" d="M182.9,28.3c0.3-0.3,0.7-0.4,1.1-0.4c0.6,0,1.2,0.5,1.2,1.1c0,0.4-0.1,0.8-0.4,1.1c-0.7,0.7-1.5,1.3-2.5,1.6
		c-0.9,0.3-1.9,0.4-2.8,0.3c-0.9-0.1-1.8-0.5-2.6-1.1c-0.8-0.6-1.4-1.5-1.8-2.4c-0.2-0.6-0.4-1.2-0.5-1.8c-0.1-0.6-0.1-1.2-0.1-1.9
		c0.1-1.1,0.3-2.1,0.7-3.1c0.4-1,1-1.9,1.7-2.6c0.7-0.8,1.6-1.3,2.5-1.7c1-0.4,2.1-0.4,3.1,0c0.5,0.2,1.1,0.4,1.6,0.7
		c0.5,0.3,0.9,0.6,1.3,1c0.2,0.3,0.3,0.6,0.4,1c0,0.3-0.1,0.6-0.3,0.8c-0.2,0.2-0.4,0.4-0.7,0.4c-0.3,0-0.7,0-1-0.2
		c-0.5-0.6-1.2-1-2-1.2c-0.6-0.1-1.2-0.1-1.8,0.2c-0.6,0.3-1.1,0.7-1.5,1.2c-0.4,0.6-0.8,1.2-1,1.9c-0.2,0.7-0.4,1.5-0.4,2.2
		c0,0.7,0.1,1.5,0.4,2.1c0.2,0.5,0.6,1,1,1.4c0.4,0.3,0.9,0.5,1.4,0.5c0.5,0.1,1,0,1.5-0.2C182.1,29,182.5,28.7,182.9,28.3z"/>
</g>
<g>
	<circle class="st1" cx="21.7" cy="21.4" r="20.2"/>
	<circle class="st0" cx="21.7" cy="21.4" r="17.8"/>
	<path class="st2" d="M24.5,14.6c-0.1,0.4-0.5,0.6-1.4,0.7c2.6,2.7,8,4.1,12.3,4.6v0.5c-1.3,0.6-2.3,1.8-2.4,3.3
		c-4.7-1.5-8.4-4.2-10.3-8c-2.6,3.7-8.5,7.3-14.5,8.9L8,24.1c5.2-2.4,10.3-7.2,11.4-10.7L24.5,14.6z M8.3,11.4h5l-0.4-3.6L17.1,8
		c0,0.4-0.3,0.6-0.9,0.8l0.3,2.6h1l1.6-2.2c0,0,1.8,1.5,2.8,2.5c0,0.3-0.4,0.5-0.8,0.5h-4.5l0.4,2.8c-0.5,0.6-1.7,0.9-3.2,0.9
		l-0.4-3.7H8.5L8.3,11.4z M9,33.8c2.6-2.2,4.6-5,5.9-8.2l3.9,2c-0.1,0.3-0.4,0.5-1.1,0.4c-2.2,2.8-5.1,4.9-8.4,6.2L9,33.8z
		 M23.5,24.8v9.4c0,0.3-1.6,0.9-2.9,0.9h-0.7V24.7H13l-0.2-0.9h7.1v-4.5l4.5,0.4c-0.1,0.4-0.3,0.6-1,0.7v3.4h2.2l1.7-2.2
		c0,0,1.9,1.5,3.1,2.6c-0.1,0.3-0.4,0.5-0.8,0.5L23.5,24.8z M22.4,11.4h3.5l0.5-3.7l4.2,0.8c-0.1,0.4-0.3,0.6-1.1,0.7l-0.3,2.2h1.4
		l1.6-2.2c0,0,1.8,1.5,2.8,2.6c-0.1,0.3-0.4,0.5-0.8,0.5H29L28.6,15c-1,0.6-2.2,0.7-3.3,0.4l0.5-3.2h-3.1L22.4,11.4z M25.2,26.4
		c10.4,1.9,8.4,9,4.9,6.9c-1.2-2.6-2.9-4.8-5-6.7L25.2,26.4z"/>
</g>
</svg>
