<svg id="圖層_1" data-name="圖層 1" xmlns="http://www.w3.org/2000/svg" viewBox="0 0 187.59 42.8"><defs><style>.cls-1{fill:#e5781f;}.cls-2{fill:none;stroke:#e5781f;stroke-miterlimit:10;}.cls-3{fill:#fff;}</style></defs><title>logo-s</title><path class="cls-1" d="M60.9,12.75a1.76,1.76,0,0,1,.85.57,1.22,1.22,0,0,1,.26.8,1.27,1.27,0,0,1-.35.78,1.76,1.76,0,0,1-.95.45h-5V30.83A1.47,1.47,0,0,1,55.36,32a1.28,1.28,0,0,1-.87.37,1.24,1.24,0,0,1-.82-.34,1.53,1.53,0,0,1-.48-1V15.46h-5a1.62,1.62,0,0,1-1-.53,1,1,0,0,1-.3-.84,1.32,1.32,0,0,1,.39-.85,1.45,1.45,0,0,1,1.1-.38H59.62Z"/><path class="cls-1" d="M76.53,28.39a1.6,1.6,0,0,1,1,.24A1.18,1.18,0,0,1,78,30.12a1.61,1.61,0,0,1-.71.75,18.34,18.34,0,0,1-2.45.5,24,24,0,0,1-5.26.19,14.71,14.71,0,0,1-2.48-.38,1.8,1.8,0,0,1-.73-.61,1.32,1.32,0,0,1-.19-.72v-14a1.16,1.16,0,0,1-.85-1.14,1.22,1.22,0,0,1,.25-.74,1.54,1.54,0,0,1,.79-.56,13.69,13.69,0,0,1,2.53-.52c.85-.1,1.71-.16,2.58-.19s1.74,0,2.6,0,1.73,0,2.57-.06a1.55,1.55,0,0,1,1.1.31,1.42,1.42,0,0,1,.46.8,1.19,1.19,0,0,1-.24.87,1.64,1.64,0,0,1-1,.59c-1.27.06-2.61.08-4,.06a22.89,22.89,0,0,0-4.13.29v5.58h3.31c1.11,0,2.23-.13,3.35-.24a1.49,1.49,0,0,1,1.09.32A1.32,1.32,0,0,1,77,22a1.21,1.21,0,0,1-.24.88,1.61,1.61,0,0,1-1,.58c-1.16.11-2.33.19-3.5.26a28.69,28.69,0,0,1-3.47,0v5.14A17.64,17.64,0,0,0,72.7,29,19.85,19.85,0,0,0,76.53,28.39Z"/><path class="cls-1" d="M98.25,30.64a1.7,1.7,0,0,1-.32,1,1.15,1.15,0,0,1-.7.46,1.24,1.24,0,0,1-.82-.14,1.74,1.74,0,0,1-.7-.77,29,29,0,0,0-.54-2.93c-.23-1-.51-1.92-.82-2.87l-8.41.06h-.29c-.53,1.8-1,3.66-1.42,5.58a1.54,1.54,0,0,1-.73.89,1.17,1.17,0,0,1-1.6-.46h0a1.69,1.69,0,0,1-.14-1.15q1.05-4.59,2.52-9A57.11,57.11,0,0,1,88,12.69a1.12,1.12,0,0,1,.89-.76,1.06,1.06,0,0,1,.66,0,1.16,1.16,0,0,1,.54.3h0a15.34,15.34,0,0,1,2.76,3.59,44.88,44.88,0,0,1,2,4.06c.23.49.44,1,.65,1.46s.39,1,.58,1.46h1.68a1.61,1.61,0,0,1,.89.57,1.21,1.21,0,0,1,.27.77,1.22,1.22,0,0,1-.33.77,1.66,1.66,0,0,1-.92.49H97c.28.86.52,1.74.72,2.61A26.62,26.62,0,0,1,98.25,30.64ZM89.49,15.39c-.59,1.2-1.14,2.43-1.63,3.68s-1,2.5-1.38,3.77l6.91-.06c-.27-.64-.55-1.26-.84-1.87s-.57-1.23-.87-1.84-.68-1.24-1-1.88A11.93,11.93,0,0,0,89.49,15.39Z"/><path class="cls-1" d="M102.52,10.41a1.16,1.16,0,0,1,.79-.32,1.24,1.24,0,0,1,.78.28,1.56,1.56,0,0,1,.52.89v4.82a1.55,1.55,0,0,1-.42,1.1,1.27,1.27,0,0,1-.88.36,1.2,1.2,0,0,1-.82-.33,1.58,1.58,0,0,1-.48-1V11.36A1.92,1.92,0,0,1,102.52,10.41Z"/><path class="cls-1" d="M121.86,30.33h0a1.23,1.23,0,0,1-.27,1.44,1.3,1.3,0,0,1-.7.3,1.51,1.51,0,0,1-.93-.19,4.53,4.53,0,0,1-.54-.62,4.45,4.45,0,0,1-.45-.68,11.06,11.06,0,0,1-1.36,1,3,3,0,0,1-1.46.49c-.85,0-1.68.06-2.51,0a4.12,4.12,0,0,1-2.34-.82,4.61,4.61,0,0,1-1.42-1.59,5.87,5.87,0,0,1-.63-1.95,7.46,7.46,0,0,1,0-2.11,10.6,10.6,0,0,1,.54-2.06,4.48,4.48,0,0,1,.42-.85c.17-.28.33-.56.5-.86a8,8,0,0,1,.8-1.19,5.26,5.26,0,0,1,1-1l.81-.57.81-.54a4.53,4.53,0,0,1,.87-.39,9.17,9.17,0,0,1,1.27-.35,6.32,6.32,0,0,1,1.37-.15,3.23,3.23,0,0,1,1.15.19,1.3,1.3,0,0,1,.88.23,1.78,1.78,0,0,1,.65.92v4.34a27.49,27.49,0,0,0,.29,4.35,2,2,0,0,0,.24.68c.14.26.28.52.44.78l.43.69A1.15,1.15,0,0,1,121.86,30.33Zm-4-2.19.1-.07,0-.07a17.91,17.91,0,0,1-.39-4V20.24a2.7,2.7,0,0,0-.63.07,5.2,5.2,0,0,0-.68.17l-.61.21a1.68,1.68,0,0,0-.39.16A5,5,0,0,0,113.68,22a6.42,6.42,0,0,0-1.09,1.59,8.41,8.41,0,0,0-.66,1.84,9,9,0,0,0-.22,2,5,5,0,0,0,.16.51,5,5,0,0,1,.16.51c.11.1.22.22.33.34a3.06,3.06,0,0,0,.37.35c.19.09.38.16.57.23l.57.19h1a2.6,2.6,0,0,0,1-.13l.94-.63a3.74,3.74,0,0,0,1-.66Z"/><path class="cls-1" d="M128.45,31.77a1.26,1.26,0,0,1-.84.38,1.23,1.23,0,0,1-.86-.32,1.54,1.54,0,0,1-.49-1V13.17a1.57,1.57,0,0,1,.49-.92,1.23,1.23,0,0,1,.76-.34,1.18,1.18,0,0,1,.78.27,1.7,1.7,0,0,1,.57.89v7.46a6.56,6.56,0,0,1,.89-.77,9.58,9.58,0,0,1,1.19-.71,5.84,5.84,0,0,1,1.28-.43,2.84,2.84,0,0,1,1.16-.06,11.4,11.4,0,0,1,1.16.25,4.13,4.13,0,0,1,1.63.92,5.85,5.85,0,0,1,1.14,1.48A7.06,7.06,0,0,1,138,23a10.31,10.31,0,0,1,.25,1.84v6a1.51,1.51,0,0,1-.41,1.07,1.21,1.21,0,0,1-1.7.06,1.54,1.54,0,0,1-.49-1V25a5.39,5.39,0,0,0-.43-2.06,3.41,3.41,0,0,0-1.38-1.55,2.52,2.52,0,0,0-1.49,0,3.75,3.75,0,0,0-1.22.68,7.17,7.17,0,0,0-1,1.06l-.92,1.18a1.29,1.29,0,0,1-.16.17l-.16.14v6.16A1.51,1.51,0,0,1,128.45,31.77Z"/><path class="cls-1" d="M142.4,23.92a14.13,14.13,0,0,1,.85-2,8.87,8.87,0,0,1,1.21-1.76,7.25,7.25,0,0,1,1.6-1.37,6.35,6.35,0,0,1,2-.82,4.68,4.68,0,0,1,3.21.28,5.47,5.47,0,0,1,2.21,2,7.7,7.7,0,0,1,1.09,3,7.31,7.31,0,0,1-.14,3.19,10,10,0,0,1-1.68,3.48,6.86,6.86,0,0,1-3,2.35,5.6,5.6,0,0,1-2.62.4,5.05,5.05,0,0,1-2.25-.81,6,6,0,0,1-1.7-1.74,6.62,6.62,0,0,1-1-2.45A6.25,6.25,0,0,1,142.1,26a13.26,13.26,0,0,1,.2-1.65Zm2.47.73c-.08.44-.14.85-.17,1.22a6.53,6.53,0,0,0,0,1.25,3.69,3.69,0,0,0,.54,1.54,3.19,3.19,0,0,0,1.08,1.05,2.78,2.78,0,0,0,1.41.35,3.22,3.22,0,0,0,1.57-.49,5.06,5.06,0,0,0,1.7-1.65,8.65,8.65,0,0,0,.93-2.19,5.18,5.18,0,0,0,.12-2,5,5,0,0,0-.65-1.91A3.07,3.07,0,0,0,150,20.6a2.62,2.62,0,0,0-2,.12,4.5,4.5,0,0,0-2,1.61A9.59,9.59,0,0,0,144.87,24.65Z"/><path class="cls-1" d="M161.77,30.17a1.58,1.58,0,0,1,.67.93,1.26,1.26,0,0,1-.15.91,1.32,1.32,0,0,1-.73.54,1.51,1.51,0,0,1-1.12-.16l-.57-.38c-.2-.14-.4-.26-.61-.38a1.47,1.47,0,0,1-.38-.48,3.42,3.42,0,0,1-.16-.63V12.91a1.64,1.64,0,0,1,.5-.92,1.22,1.22,0,0,1,.76-.33,1.21,1.21,0,0,1,.77.27,1.72,1.72,0,0,1,.58.89V29.88l.2.15Z"/><path class="cls-1" d="M166.9,13.42a1.74,1.74,0,0,1,.44-1.19,1.41,1.41,0,0,1,1.08-.49,1.45,1.45,0,0,1,1.1.49,1.74,1.74,0,0,1,.46,1.19,1.67,1.67,0,0,1-.46,1.16,1.45,1.45,0,0,1-1.1.49,1.41,1.41,0,0,1-1.08-.49A1.71,1.71,0,0,1,166.9,13.42Zm2.92,17.26a1.52,1.52,0,0,1-.43,1.09,1.22,1.22,0,0,1-1.7,0,1.59,1.59,0,0,1-.47-1q0-3-.05-6.09t0-6.09a1.92,1.92,0,0,1,.51-.95,1.16,1.16,0,0,1,.79-.32,1.23,1.23,0,0,1,.78.29,1.56,1.56,0,0,1,.52.89q0,3,0,6.09t0,6.06Z"/><path class="cls-1" d="M182.88,28.27a1.56,1.56,0,0,1,1.06-.42A1.2,1.2,0,0,1,185.13,29a1.56,1.56,0,0,1-.41,1.07A6,6,0,0,1,179.47,32a5.54,5.54,0,0,1-2.55-1.09,5.28,5.28,0,0,1-1.75-2.41,9.35,9.35,0,0,1-.51-1.81,8.38,8.38,0,0,1-.09-1.87,9.75,9.75,0,0,1,.71-3.06A8.42,8.42,0,0,1,177,19.07a6.37,6.37,0,0,1,2.51-1.67,4.73,4.73,0,0,1,3.15,0,8.71,8.71,0,0,1,1.56.69,7.5,7.5,0,0,1,1.33,1.05,1.73,1.73,0,0,1,.35,1,1.13,1.13,0,0,1-.27.78,1.29,1.29,0,0,1-.73.4,1.57,1.57,0,0,1-1-.19,4.13,4.13,0,0,0-2-1.25,2.91,2.91,0,0,0-1.82.17,3.92,3.92,0,0,0-1.49,1.22,6.18,6.18,0,0,0-1,1.9,6.74,6.74,0,0,0-.35,2.22,5.14,5.14,0,0,0,.44,2.15,3.29,3.29,0,0,0,1,1.36,2.88,2.88,0,0,0,1.38.55,3.13,3.13,0,0,0,1.51-.22A3.65,3.65,0,0,0,182.88,28.27Z"/><circle class="cls-2" cx="21.66" cy="21.39" r="20.18"/><circle class="cls-1" cx="21.66" cy="21.39" r="17.76"/><path class="cls-3" d="M24.49,14.58c-.12.41-.47.58-1.4.67,2.65,2.68,8,4.07,12.28,4.57v.46a4,4,0,0,0-2.44,3.26c-4.66-1.51-8.44-4.19-10.27-8-2.62,3.67-8.47,7.27-14.5,8.85L8,24.07c5.21-2.36,10.3-7.19,11.44-10.68ZM8.31,11.35h5l-.43-3.64L17.13,8c0,.35-.27.64-.85.82l.32,2.56h1l1.57-2.21S21,10.68,22,11.7c-.05.32-.37.46-.78.46H16.69L17.07,15c-.47.65-1.72.91-3.23.88l-.44-3.73H8.54ZM9,33.79a20.93,20.93,0,0,0,5.85-8.18l3.92,2c-.14.29-.4.46-1.1.35a19.71,19.71,0,0,1-8.44,6.17Zm14.46-9v9.43c0,.26-1.57.93-2.91.93h-.67V24.74H13l-.23-.85h7.1V19.41l4.54.41c-.06.35-.26.64-1,.72v3.35h2.21l1.69-2.21s1.92,1.51,3.09,2.59c-.09.32-.38.47-.79.47ZM22.39,11.35h3.47l.55-3.67,4.19.76c-.09.35-.32.64-1.11.7l-.34,2.21h1.39l1.57-2.21s1.81,1.54,2.83,2.56c-.06.32-.38.46-.76.46H29L28.56,15a4.44,4.44,0,0,1-3.31.38l.49-3.23H22.63Zm2.8,15.07c10.39,1.9,8.41,9,4.86,6.93A20.44,20.44,0,0,0,25,26.66Z"/></svg>