<?xml version="1.0" encoding="utf-8"?>
<!-- Generator: Adobe Illustrator 24.0.1, SVG Export Plug-In . SVG Version: 6.00 Build 0)  -->
<svg version="1.1" id="圖層_1" xmlns="http://www.w3.org/2000/svg" xmlns:xlink="http://www.w3.org/1999/xlink" x="0px" y="0px"
	 viewBox="0 0 33.1 33.4" style="enable-background:new 0 0 33.1 33.4;" xml:space="preserve">
<style type="text/css">
	.st0{fill:none;stroke:#EFEFEF;stroke-miterlimit:10;}
	.st1{fill:#EFEFEF;}
	.st2{fill:#333333;}
</style>
<g>
	<circle class="st0" cx="16.4" cy="16.7" r="15.3"/>
	<circle class="st1" cx="16.4" cy="16.7" r="13.5"/>
	<path class="st2" d="M18.6,11.5c-0.1,0.3-0.4,0.4-1.1,0.5c2,2,6.1,3.1,9.3,3.5v0.3c-1,0.4-1.7,1.4-1.9,2.5
		c-3.5-1.1-6.4-3.2-7.8-6.1c-2,2.8-6.4,5.5-11,6.7L6,18.7c4-1.8,7.8-5.5,8.7-8.1L18.6,11.5z M6.3,9.1h3.8L9.8,6.3L13,6.5
		c0,0.3-0.2,0.5-0.6,0.6L12.6,9h0.8l1.2-1.7c0,0,1.4,1.1,2.1,1.9c0,0.2-0.3,0.3-0.6,0.3h-3.4l0.3,2.2c-0.4,0.5-1.3,0.7-2.5,0.7
		l-0.3-2.8H6.5L6.3,9.1z M6.8,26.1c2-1.7,3.5-3.8,4.4-6.2l3,1.5c-0.1,0.2-0.3,0.3-0.8,0.3c-1.7,2.1-3.9,3.7-6.4,4.7L6.8,26.1z
		 M17.8,19.3v7.2c0,0.2-1.2,0.7-2.2,0.7h-0.5v-7.9H9.9l-0.2-0.6h5.4v-3.4l3.4,0.3c0,0.3-0.2,0.5-0.8,0.5v2.5h1.7l1.3-1.7
		c0,0,1.5,1.1,2.3,2c-0.1,0.2-0.3,0.4-0.6,0.4L17.8,19.3z M17,9.1h2.6L20,6.3l3.2,0.6c-0.1,0.3-0.2,0.5-0.8,0.5l-0.3,1.7h1.1
		l1.2-1.7c0,0,1.4,1.2,2.1,1.9c0,0.2-0.3,0.3-0.6,0.3H22l-0.3,2.2c-0.8,0.4-1.7,0.5-2.5,0.3l0.4-2.5h-2.4L17,9.1z M19.1,20.5
		c7.9,1.4,6.4,6.8,3.7,5.3c-0.9-1.9-2.2-3.7-3.8-5.1L19.1,20.5z"/>
</g>
</svg>
