<svg id="圖層_1" data-name="圖層 1" xmlns="http://www.w3.org/2000/svg" viewBox="0 0 106.53 24.87"><defs><style>.cls-1{fill:#333;}.cls-2{fill:none;stroke:#333;stroke-miterlimit:10;stroke-width:0.25px;}.cls-3{fill:#fff;}</style></defs><title>logo-footer</title><path class="cls-1" d="M10.33,10.13a1.23,1.23,0,0,1,.6.4.82.82,0,0,1,.18.56.88.88,0,0,1-.25.55,1.16,1.16,0,0,1-.66.31H6.69V22.81a1,1,0,0,1-.24.82.87.87,0,0,1-.62.26.82.82,0,0,1-.57-.24,1,1,0,0,1-.34-.7V12H1.42a1.23,1.23,0,0,1-.71-.37.76.76,0,0,1-.21-.59,1,1,0,0,1,.28-.6,1,1,0,0,1,.77-.26H9.43Z"/><path class="cls-1" d="M21.3,21.1a1.16,1.16,0,0,1,.7.17.84.84,0,0,1,.33,1,1.12,1.12,0,0,1-.5.53,12.79,12.79,0,0,1-1.72.35,16.3,16.3,0,0,1-1.85.17,16.15,16.15,0,0,1-1.84,0,10.15,10.15,0,0,1-1.74-.26,1.25,1.25,0,0,1-.51-.43.82.82,0,0,1-.13-.5V12.3a.8.8,0,0,1-.6-.8.87.87,0,0,1,.17-.51,1.12,1.12,0,0,1,.56-.4,9.75,9.75,0,0,1,1.77-.36c.6-.07,1.2-.11,1.81-.14l1.83,0c.6,0,1.21,0,1.8,0a1.06,1.06,0,0,1,.77.22.94.94,0,0,1,.32.56.85.85,0,0,1-.16.61,1.17,1.17,0,0,1-.71.41c-.89,0-1.82.06-2.8,0a15.67,15.67,0,0,0-2.9.21V16h2.32a23.21,23.21,0,0,0,2.35-.17,1,1,0,0,1,.77.23.91.91,0,0,1,.28.58.86.86,0,0,1-.16.62,1.12,1.12,0,0,1-.7.4c-.82.08-1.64.14-2.46.19s-1.63,0-2.43,0v3.6a12.53,12.53,0,0,0,2.74.1A13.59,13.59,0,0,0,21.3,21.1Z"/><path class="cls-1" d="M36.53,22.68a1.26,1.26,0,0,1-.22.7.8.8,0,0,1-.49.32.9.9,0,0,1-.58-.09,1.34,1.34,0,0,1-.49-.54A20.2,20.2,0,0,0,34.37,21c-.16-.7-.36-1.35-.57-2l-5.9,0h-.21c-.37,1.26-.7,2.57-1,3.91a1.12,1.12,0,0,1-.52.63.82.82,0,0,1-1.12-.33h0a1.19,1.19,0,0,1-.09-.81q.73-3.23,1.76-6.31a41.43,41.43,0,0,1,2.62-6A.8.8,0,0,1,30,9.55a.9.9,0,0,1,.46,0,.86.86,0,0,1,.38.22h0a10.5,10.5,0,0,1,1.93,2.51q.78,1.41,1.41,2.85c.16.35.3.7.45,1s.28.7.41,1h1.18a1.16,1.16,0,0,1,.62.4.81.81,0,0,1,.19.54.85.85,0,0,1-.23.54,1.14,1.14,0,0,1-.65.34h-.47q.3.91.51,1.83C36.31,21.44,36.44,22.06,36.53,22.68ZM30.39,12c-.42.84-.8,1.71-1.15,2.58s-.7,1.76-1,2.65l4.85,0c-.19-.45-.38-.89-.59-1.32s-.4-.86-.61-1.29-.47-.87-.7-1.32A9.45,9.45,0,0,0,30.39,12Z"/><path class="cls-1" d="M39.53,8.49a.85.85,0,0,1,.55-.23.87.87,0,0,1,.55.2,1.15,1.15,0,0,1,.36.62v3.39a1.06,1.06,0,0,1-.29.77.9.9,0,0,1-.62.25.86.86,0,0,1-.57-.23,1.08,1.08,0,0,1-.34-.7V9.16A1.29,1.29,0,0,1,39.53,8.49Z"/><path class="cls-1" d="M53.09,22.46h0a.89.89,0,0,1,.07.58.8.8,0,0,1-.26.43.9.9,0,0,1-.49.21,1.06,1.06,0,0,1-.65-.13,2.67,2.67,0,0,1-.38-.44,3.46,3.46,0,0,1-.31-.47,8.43,8.43,0,0,1-1,.7,2.07,2.07,0,0,1-1,.34c-.6,0-1.18,0-1.76,0a2.9,2.9,0,0,1-1.64-.57,3.17,3.17,0,0,1-1-1.12,3.86,3.86,0,0,1-.44-1.37,5.24,5.24,0,0,1,0-1.48,6.65,6.65,0,0,1,.38-1.44,2.77,2.77,0,0,1,.29-.6c.12-.19.23-.39.35-.6a7.66,7.66,0,0,1,.56-.84,3.87,3.87,0,0,1,.7-.7l.57-.4.57-.38a3.33,3.33,0,0,1,.61-.27,6.88,6.88,0,0,1,.89-.24,4.49,4.49,0,0,1,1-.11,2.45,2.45,0,0,1,.81.13,1,1,0,0,1,.62.16,1.24,1.24,0,0,1,.45.65v3a19.51,19.51,0,0,0,.21,3.06,1.31,1.31,0,0,0,.16.47c.1.19.2.37.31.55l.3.48A.78.78,0,0,1,53.09,22.46Zm-2.8-1.53.07-.05,0-.05A13.25,13.25,0,0,1,50.11,18V15.38a2.12,2.12,0,0,0-.44,0l-.48.12-.43.15a1.53,1.53,0,0,0-.27.11,3.65,3.65,0,0,0-1.14.81,5,5,0,0,0-.76,1.11A5.52,5.52,0,0,0,46.13,19,6.16,6.16,0,0,0,46,20.43c0,.12.07.24.11.36a2.06,2.06,0,0,1,.12.35l.23.24a2.06,2.06,0,0,0,.26.25l.4.16.4.13h.7a1.85,1.85,0,0,0,.7-.09l.66-.44a2.87,2.87,0,0,0,.72-.46Z"/><path class="cls-1" d="M57.72,23.47a.85.85,0,0,1-1.2,0,1.09,1.09,0,0,1-.34-.7V10.42a1.15,1.15,0,0,1,.34-.64.92.92,0,0,1,.54-.24.83.83,0,0,1,.54.19,1.16,1.16,0,0,1,.4.62v5.24a4.08,4.08,0,0,1,.63-.54,5.38,5.38,0,0,1,.83-.5,4.14,4.14,0,0,1,.9-.3,1.85,1.85,0,0,1,.81,0,7.45,7.45,0,0,1,.82.17,2.89,2.89,0,0,1,1.14.65,4.2,4.2,0,0,1,.8,1,4.82,4.82,0,0,1,.48,1.26,7,7,0,0,1,.18,1.29v4.21a1.08,1.08,0,0,1-.29.75.84.84,0,0,1-1.19,0,1,1,0,0,1-.34-.7V18.7a3.76,3.76,0,0,0-.31-1.44,2.37,2.37,0,0,0-1-1.09,1.71,1.71,0,0,0-1,0,2.56,2.56,0,0,0-.85.48,5,5,0,0,0-.71.74l-.64.83-.11.12-.12.1v4.32A1,1,0,0,1,57.72,23.47Z"/><path class="cls-1" d="M67.5,18a8.78,8.78,0,0,1,.6-1.41A5.74,5.74,0,0,1,69,15.33a4.67,4.67,0,0,1,1.12-1,4.42,4.42,0,0,1,1.4-.58,3.29,3.29,0,0,1,2.25.2,3.88,3.88,0,0,1,1.55,1.4A5.48,5.48,0,0,1,76,17.5a5.25,5.25,0,0,1-.1,2.23,6.83,6.83,0,0,1-1.18,2.44,4.79,4.79,0,0,1-2.1,1.65,3.87,3.87,0,0,1-1.84.28,3.53,3.53,0,0,1-1.58-.56,4.11,4.11,0,0,1-1.19-1.23,4.6,4.6,0,0,1-.67-1.71,4.67,4.67,0,0,1-.09-1.18,9,9,0,0,1,.14-1.15Zm1.73.51c0,.31-.1.59-.12.85a4.31,4.31,0,0,0,0,.88,2.79,2.79,0,0,0,.38,1.08,2.24,2.24,0,0,0,.76.74,1.89,1.89,0,0,0,1,.24,2.26,2.26,0,0,0,1.1-.34,3.48,3.48,0,0,0,1.19-1.16,6.1,6.1,0,0,0,.66-1.53,3.94,3.94,0,0,0,.08-1.41,3.4,3.4,0,0,0-.46-1.34,2,2,0,0,0-1-.85,1.84,1.84,0,0,0-1.4.08A3.11,3.11,0,0,0,70,16.85,6.67,6.67,0,0,0,69.23,18.48Z"/><path class="cls-1" d="M81.09,22.35a1.11,1.11,0,0,1,.47.65.89.89,0,0,1-.11.64.93.93,0,0,1-.51.38,1,1,0,0,1-.79-.11l-.39-.27c-.14-.1-.29-.18-.43-.27a1.09,1.09,0,0,1-.27-.33A2.36,2.36,0,0,1,79,22.6V10.24a1.08,1.08,0,0,1,.35-.64.8.8,0,0,1,1.07,0,1.22,1.22,0,0,1,.41.63v12l.14.1Z"/><path class="cls-1" d="M84.69,10.6A1.16,1.16,0,0,1,85,9.77a.94.94,0,0,1,.75-.35,1,1,0,0,1,.77.35,1.21,1.21,0,0,1,.33.83,1.18,1.18,0,0,1-.33.81,1,1,0,0,1-.77.35,1,1,0,0,1-.75-.35A1.12,1.12,0,0,1,84.69,10.6Zm2,12.11a1,1,0,0,1-.3.76.86.86,0,0,1-.61.25.85.85,0,0,1-.58-.23,1.07,1.07,0,0,1-.33-.7c0-1.4,0-2.83,0-4.27s0-2.87,0-4.27a1.32,1.32,0,0,1,.35-.67.83.83,0,0,1,1.1,0,1.11,1.11,0,0,1,.37.62c0,1.41,0,2.83,0,4.28s0,2.86,0,4.25Z"/><path class="cls-1" d="M95.9,21a1.07,1.07,0,0,1,.74-.3.84.84,0,0,1,.83.81,1.09,1.09,0,0,1-.28.75A4.23,4.23,0,0,1,93.5,23.6a3.79,3.79,0,0,1-1.78-.77,3.58,3.58,0,0,1-1.23-1.69,5.58,5.58,0,0,1-.36-1.27,5.73,5.73,0,0,1-.06-1.31,6.81,6.81,0,0,1,.49-2.14,6.22,6.22,0,0,1,1.21-1.86,4.46,4.46,0,0,1,1.76-1.17,3.35,3.35,0,0,1,2.21,0,5.68,5.68,0,0,1,1.1.49,5,5,0,0,1,.93.73,1.21,1.21,0,0,1,.24.7.74.74,0,0,1-.19.55.84.84,0,0,1-.51.28,1.13,1.13,0,0,1-.7-.13,2.92,2.92,0,0,0-1.4-.88,2,2,0,0,0-1.28.12,2.71,2.71,0,0,0-1,.86,4.24,4.24,0,0,0-.7,1.33A4.85,4.85,0,0,0,91.94,19a3.51,3.51,0,0,0,.31,1.5,2.32,2.32,0,0,0,.7,1,2,2,0,0,0,1,.38A2.14,2.14,0,0,0,95,21.69,2.63,2.63,0,0,0,95.9,21Z"/><circle class="cls-2" cx="100.88" cy="6.24" r="5.65"/><circle class="cls-1" cx="100.88" cy="6.24" r="5.11"/><path class="cls-3" d="M101.69,4.27c0,.12-.13.17-.4.2a6.4,6.4,0,0,0,3.53,1.31v.13a1.13,1.13,0,0,0-.7.94,4.75,4.75,0,0,1-3-2.3A7.89,7.89,0,0,1,97,7.1L97,7a6.58,6.58,0,0,0,3.29-3.07ZM97,3.34h1.43l-.12-1,1.22.08c0,.1-.07.19-.24.24l.09.73h.29l.45-.63a10.32,10.32,0,0,1,.81.73c0,.09-.1.13-.22.13h-1.3l.11.81a1.17,1.17,0,0,1-.93.26L98.5,3.57H97.1Zm.19,6.46a6,6,0,0,0,1.69-2.35l1.13.57c0,.09-.12.13-.32.1A5.81,5.81,0,0,1,97.3,9.9Zm4.16-2.59V9.92c0,.08-.45.27-.83.27h-.2v-3h-2L98.32,7h2V5.66l1.31.12c0,.1-.08.19-.29.21V7H102l.48-.63s.55.43.89.74a.22.22,0,0,1-.23.14Zm-.3-3.87h1l.16-1,1.21.22c0,.1-.09.18-.32.2l-.1.63h.4l.45-.63s.52.44.82.74c0,.09-.11.13-.22.13H103l-.13.81a1.26,1.26,0,0,1-1,.11l.14-.93h-.89Zm.8,4.34c3,.55,2.42,2.59,1.4,2a5.94,5.94,0,0,0-1.45-1.92Z"/></svg>